<svg width="250" height="173" viewBox="0 0 250 173" fill="none" xmlns="http://www.w3.org/2000/svg">
<rect y="0.660156" width="250" height="172" rx="4" fill="url(#paint0_linear_890_32799)"/>
<path d="M159.954 41.1465L157.733 64.9983L153.923 105.866L150.577 141.783C150.501 142.578 149.836 143.185 149.035 143.185H101.36C100.339 143.185 99.4836 142.405 99.3901 141.388L96.0798 105.866L92.2698 64.9983L90.0449 41.1465H159.954Z" fill="white"/>
<path d="M164.612 41.1467H85.3862C85.034 41.1467 84.7895 40.7981 84.9118 40.4674L86.0224 37.326L86.159 36.9414H163.789L163.933 37.326L165.09 40.4674C165.209 40.7981 164.968 41.1467 164.616 41.1467H164.612Z" fill="#326335"/>
<path d="M163.788 35.2176V36.9393H86.1548V35.2176C86.1548 34.6245 86.6364 34.1465 87.2295 34.1465H162.714C163.307 34.1465 163.788 34.6245 163.788 35.2176Z" fill="#326335"/>
<path d="M159.954 34.1447H90.0449L90.2282 32.9982L91.2167 26.9166C91.2167 25.6909 92.2123 24.6953 93.4415 24.6953H156.561C157.787 24.6953 158.782 25.6909 158.782 26.9166L159.771 32.9982L159.954 34.1447Z" fill="#1E4620"/>
<path d="M152.903 24.6961H142.364V24.0599C142.364 23.2476 143.022 22.5898 143.834 22.5898H151.429C152.241 22.5898 152.899 23.2476 152.899 24.0599V24.6961H152.903Z" fill="#1E4620"/>
<path d="M163.928 37.3257H86.021L86.154 36.9375H163.787L163.928 37.3257Z" fill="#1E4620"/>
<path d="M163.785 36.5547H86.1548V36.9393H163.785V36.5547Z" fill="#1E4620"/>
<path d="M157.734 65L153.924 105.867H96.0769L92.2705 65H157.734Z" fill="#1E4620"/>
<g style="mix-blend-mode:multiply">
<path d="M153.284 41.1465C151.318 72.6793 149.316 105.84 145.15 133.786C144.657 137.079 141.976 139.609 138.658 139.893C125.5 141.018 114.548 140.777 99.2505 139.861L99.3943 141.417C99.4877 142.42 100.329 143.189 101.339 143.189H149.035C149.833 143.189 150.502 142.581 150.577 141.783C159.592 45.0391 155.81 85.6404 159.955 41.1501H153.284V41.1465Z" fill="#F5FFF6"/>
</g>
<path d="M137.185 97.6204C143.916 90.8898 143.916 79.9774 137.185 73.2468C130.455 66.5162 119.542 66.5163 112.812 73.2468C106.081 79.9774 106.081 90.8898 112.812 97.6204C119.542 104.351 130.455 104.351 137.185 97.6204Z" fill="#EDF7ED"/>
<g clip-path="url(#clip0_890_32799)">
<path d="M126.324 81.022C124.612 80.3864 122.555 81.6745 121.729 83.899C120.903 86.1236 121.621 88.4422 123.333 89.0777C125.044 89.7133 127.101 88.4252 127.927 86.2006C128.753 83.9761 128.036 81.6575 126.324 81.022Z" fill="#237027"/>
<path d="M126.064 80.9264L126.077 80.9305C126.272 81.0028 126.451 81.1028 126.615 81.2251C127.524 81.8982 127.95 83.2685 127.738 84.7685C127.732 84.8197 127.725 84.8704 127.714 84.9217C127.7 85.009 127.683 85.0984 127.665 85.1863C127.65 85.2538 127.634 85.3212 127.617 85.3901C127.582 85.5271 127.542 85.6675 127.496 85.8077C127.477 85.8708 127.455 85.9331 127.43 85.9964C127.385 86.119 127.335 86.2388 127.281 86.3587C126.41 88.3301 124.642 89.4905 123.17 89.0132C123.136 89.0029 123.102 88.9925 123.068 88.9803C123.063 88.9789 123.057 88.9771 123.052 88.9724C123.017 88.9616 122.985 88.9469 122.952 88.9321C122.952 88.9321 122.948 88.9308 122.947 88.9289C122.851 88.8866 122.759 88.8378 122.672 88.7807C122.67 88.7798 122.668 88.7794 122.664 88.7766C122.616 88.7457 122.568 88.7134 122.522 88.6785C122.51 88.6701 122.496 88.6593 122.485 88.6494C121.476 87.8543 121.092 86.1851 121.551 84.4573C121.567 84.3996 121.583 84.3418 121.6 84.2811C121.618 84.2224 121.636 84.1651 121.654 84.1063C121.674 84.0388 121.699 83.974 121.723 83.9073C121.746 83.8455 121.769 83.7832 121.794 83.7252L121.804 83.6929C121.812 83.6791 121.818 83.6634 121.825 83.6496C121.836 83.6256 121.846 83.5981 121.858 83.5745C121.878 83.5307 121.897 83.4836 121.918 83.4403C121.93 83.4181 121.94 83.3955 121.95 83.3729C121.969 83.3336 121.989 83.2947 122.009 83.2592C122.01 83.2548 122.012 83.2504 122.015 83.245C122.036 83.2017 122.06 83.1593 122.085 83.1154C122.401 82.539 122.818 82.0222 123.353 81.5836C123.87 81.1616 124.446 80.8736 125.122 80.812C125.442 80.7831 125.756 80.8243 126.062 80.926L126.064 80.9264Z" fill="#37873B"/>
<path d="M126.062 80.9252L126.076 80.9292C126.14 80.9538 126.137 80.9962 126.14 81.05C126.178 81.8295 125.998 82.56 125.652 83.2557C125.289 83.9864 124.753 84.5776 124.17 85.1383C123.561 85.7279 123.066 86.4007 122.757 87.201C122.593 87.6278 122.502 88.0708 122.497 88.5287C122.497 88.5623 122.497 88.5943 122.494 88.6274C122.493 88.6333 122.49 88.6373 122.483 88.6481C121.475 87.8531 121.091 86.1838 121.55 84.456C121.566 84.3983 121.582 84.3406 121.599 84.2799C121.617 84.2211 121.634 84.1638 121.652 84.1051C121.673 84.0375 121.698 83.9727 121.721 83.9061C121.745 83.8442 121.767 83.782 121.793 83.724L121.797 83.7122C121.806 83.6911 121.815 83.668 121.824 83.6484C121.835 83.6243 121.845 83.5968 121.857 83.5732C121.877 83.5295 121.896 83.4823 121.917 83.439C121.929 83.4169 121.939 83.3943 121.949 83.3717C121.967 83.3323 121.987 83.2935 122.008 83.258C122.009 83.2535 122.011 83.2491 122.014 83.2437C122.035 83.2004 122.059 83.158 122.084 83.1142C122.4 82.5377 122.817 82.021 123.352 81.5824C123.868 81.1603 124.445 80.8723 125.121 80.8107C125.441 80.7818 125.755 80.823 126.061 80.9247L126.062 80.9252Z" fill="#0F2410"/>
<path d="M126.613 81.221C126.863 81.3955 127.056 81.604 127.212 81.846C127.775 82.7153 127.879 83.6787 127.75 84.6771C127.597 85.8545 127.131 86.9007 126.347 87.7949C125.859 88.3509 125.28 88.7843 124.56 89.001C124.062 89.149 123.56 89.1611 123.066 88.9781C123.026 88.9626 122.98 88.902 122.975 88.8584C122.911 88.2721 123.028 87.7166 123.264 87.1816C123.587 86.4451 124.092 85.8411 124.669 85.2916C125.253 84.7376 125.748 84.1164 126.101 83.3874C126.412 82.745 126.586 82.0691 126.604 81.3548C126.605 81.315 126.611 81.275 126.615 81.22L126.613 81.221Z" fill="#0F2410"/>
<g opacity="0.2">
<path d="M122.945 88.9292C122.849 88.8869 122.758 88.8382 122.671 88.7811C122.778 88.8396 122.907 88.9064 122.945 88.9292Z" fill="white"/>
</g>
<g opacity="0.2">
<path d="M126.069 80.9303C124.583 80.9898 123.138 82.079 122.373 84.1405C121.608 86.2005 121.778 87.3352 122.521 88.6787C121.484 87.8975 121.085 86.2092 121.55 84.4589C121.566 84.4012 121.582 84.3434 121.599 84.2828C121.617 84.224 121.634 84.1667 121.652 84.108C121.675 84.0394 121.699 83.9697 121.725 83.9006C121.751 83.8314 121.778 83.7627 121.805 83.6955C122.671 81.5955 124.544 80.3644 126.068 80.9298L126.069 80.9303Z" fill="white"/>
</g>
</g>
<path d="M124.999 102.846C115.395 102.846 107.584 95.036 107.584 85.432C107.584 75.828 115.395 68.0176 124.999 68.0176C134.603 68.0176 142.413 75.828 142.413 85.432C142.413 95.036 134.603 102.846 124.999 102.846ZM124.999 68.377C115.596 68.377 107.944 76.0293 107.944 85.432C107.944 94.8347 115.596 102.487 124.999 102.487C134.402 102.487 142.054 94.8347 142.054 85.432C142.054 76.0293 134.402 68.377 124.999 68.377Z" fill="#F1FFF2"/>
<g opacity="0.4">
<path d="M101.896 46.6855H97.6803C96.5445 46.6855 95.6531 47.6668 95.7573 48.799C99.3984 87.8511 100.426 99.5865 103.848 136.335C103.942 137.327 104.775 138.089 105.771 138.089H109.987C111.123 138.089 112.014 137.108 111.91 135.975C108.859 103.188 107.601 89.0049 103.819 48.4396C103.726 47.4475 102.892 46.6855 101.896 46.6855Z" fill="#F5FFF6"/>
</g>
<g style="mix-blend-mode:multiply">
<path d="M159.785 42.9583H90.2139L90.0449 41.1504H159.954L159.785 42.9583Z" fill="#315A33"/>
</g>
<g style="mix-blend-mode:multiply">
<path d="M159.954 34.1446H90.0449L90.2282 32.998H159.767L159.954 34.1446Z" fill="#315A33"/>
</g>
<g style="mix-blend-mode:multiply">
<path d="M165.088 40.4674L163.931 37.326L163.787 36.9414V35.2198C163.787 34.6267 163.305 34.1487 162.712 34.1487H159.952L159.768 33.0021L158.78 26.9205C158.78 25.6948 157.784 24.6992 156.559 24.6992H144.992C146.218 24.6992 147.213 25.6948 147.213 26.9205L148.202 33.0021L148.385 34.1487H151.146C151.739 34.1487 152.22 34.6267 152.22 35.2198V36.9414L152.364 37.326L153.521 40.4674C153.64 40.7981 153.399 41.1468 153.047 41.1468H164.614C164.966 41.1468 165.207 40.7981 165.088 40.4674Z" fill="#315A33"/>
</g>
<g opacity="0.2">
<path d="M91.8519 40.4674L92.9625 37.326L93.0991 36.9414V35.2198C93.0991 34.6267 93.5807 34.1487 94.1738 34.1487H96.9845L97.1678 33.0021L98.1563 26.9205C98.1563 25.6948 99.1519 24.6992 100.381 24.6992H93.4406C92.2113 24.6992 91.2157 25.6948 91.2157 26.9205L90.2272 33.0021L90.0439 34.1487H87.2332C86.6401 34.1487 86.1585 34.6267 86.1585 35.2198V36.9414L86.0219 37.326L84.9113 40.4674C84.7891 40.7981 85.0335 41.1468 85.3857 41.1468H92.3263C91.9741 41.1468 91.7297 40.7981 91.8519 40.4674Z" fill="#1E4620"/>
</g>
<g filter="url(#filter0_f_890_32799)">
<ellipse cx="125" cy="142.751" rx="28.7227" ry="3.80574" fill="#1E4620" fill-opacity="0.52"/>
</g>
<g filter="url(#filter1_f_890_32799)">
<ellipse cx="125.102" cy="142.385" rx="27.2578" ry="1.50655" fill="#0A1A0B"/>
</g>
<g filter="url(#filter2_f_890_32799)">
<ellipse cx="125" cy="144.459" rx="49.1758" ry="6.26978" fill="#1E4620" fill-opacity="0.13"/>
</g>
<defs>
<filter id="filter0_f_890_32799" x="92.2773" y="134.945" width="65.4453" height="15.6113" filterUnits="userSpaceOnUse" color-interpolation-filters="sRGB">
<feFlood flood-opacity="0" result="BackgroundImageFix"/>
<feBlend mode="normal" in="SourceGraphic" in2="BackgroundImageFix" result="shape"/>
<feGaussianBlur stdDeviation="2" result="effect1_foregroundBlur_890_32799"/>
</filter>
<filter id="filter1_f_890_32799" x="95.8438" y="138.879" width="58.5156" height="7.01367" filterUnits="userSpaceOnUse" color-interpolation-filters="sRGB">
<feFlood flood-opacity="0" result="BackgroundImageFix"/>
<feBlend mode="normal" in="SourceGraphic" in2="BackgroundImageFix" result="shape"/>
<feGaussianBlur stdDeviation="1" result="effect1_foregroundBlur_890_32799"/>
</filter>
<filter id="filter2_f_890_32799" x="65.8242" y="128.189" width="118.352" height="32.5391" filterUnits="userSpaceOnUse" color-interpolation-filters="sRGB">
<feFlood flood-opacity="0" result="BackgroundImageFix"/>
<feBlend mode="normal" in="SourceGraphic" in2="BackgroundImageFix" result="shape"/>
<feGaussianBlur stdDeviation="5" result="effect1_foregroundBlur_890_32799"/>
</filter>
<linearGradient id="paint0_linear_890_32799" x1="125" y1="0.660156" x2="125" y2="172.66" gradientUnits="userSpaceOnUse">
<stop stop-color="#EAEDEA"/>
<stop offset="1" stop-color="white" stop-opacity="0"/>
<stop offset="1" stop-color="white"/>
</linearGradient>
<clipPath id="clip0_890_32799">
<rect width="8.60246" height="6.62083" fill="white" transform="translate(120.405 88.1875) rotate(-72.998)"/>
</clipPath>
</defs>
</svg>
