<svg width="250" height="173" viewBox="0 0 250 173" fill="none" xmlns="http://www.w3.org/2000/svg">
<rect y="0.660156" width="250" height="172" rx="4" fill="url(#paint0_linear_890_32517)"/>
<g clip-path="url(#clip0_890_32517)">
<path d="M159.956 39.9258L157.734 63.7776L153.924 104.645L150.578 140.563C150.503 141.357 149.838 141.965 149.036 141.965H101.361C100.34 141.965 99.485 141.185 99.3916 140.167L96.0812 104.645L92.2713 63.7776L90.0464 39.9258H159.956Z" fill="#FFF8F6"/>
<path d="M164.613 39.926H85.3877C85.0354 39.926 84.791 39.5774 84.9132 39.2467L86.0239 36.1053L86.1604 35.7207H163.79L163.934 36.1053L165.091 39.2467C165.21 39.5774 164.969 39.926 164.617 39.926H164.613Z" fill="#934E36"/>
<path d="M163.79 33.9969V35.7186H86.1562V33.9969C86.1562 33.4038 86.6379 32.9258 87.2309 32.9258H162.715C163.308 32.9258 163.79 33.4038 163.79 33.9969Z" fill="#934E36"/>
<path d="M159.956 32.924H90.0464L90.2297 31.7775L91.2181 25.6959C91.2181 24.4702 92.2138 23.4746 93.443 23.4746H156.563C157.788 23.4746 158.784 24.4702 158.784 25.6959L159.772 31.7775L159.956 32.924Z" fill="#6B321F"/>
<path d="M152.904 23.4754H142.366V22.8392C142.366 22.0269 143.023 21.3691 143.836 21.3691H151.431C152.243 21.3691 152.901 22.0269 152.901 22.8392V23.4754H152.904Z" fill="#6B321F"/>
<path d="M163.929 36.105H86.0225L86.1555 35.7168H163.789L163.929 36.105Z" fill="#6B321F"/>
<path d="M163.786 35.334H86.1562V35.7186H163.786V35.334Z" fill="#6B321F"/>
<path d="M157.735 63.7793L153.925 104.647H96.0783L92.272 63.7793H157.735Z" fill="#934E36"/>
<g style="mix-blend-mode:multiply">
<path d="M153.285 39.9258C151.319 71.4586 149.317 104.62 145.151 132.565C144.659 135.858 141.977 138.388 138.66 138.672C125.501 139.797 114.549 139.556 99.252 138.64L99.3957 140.196C99.4892 141.199 100.33 141.968 101.34 141.968H149.037C149.835 141.968 150.503 141.361 150.579 140.563C159.593 43.8184 155.812 84.4197 159.956 39.9294H153.285V39.9258Z" fill="#FFF1EC"/>
</g>
<path d="M137.045 72.1675C143.698 78.82 143.698 89.6058 137.045 96.2582C130.393 102.911 119.607 102.911 112.955 96.2582C106.302 89.6058 106.302 78.82 112.955 72.1675C119.607 65.5151 130.393 65.5151 137.045 72.1675Z" fill="#FEE3DA" stroke="#6B321F" stroke-width="0.4"/>
<g opacity="0.4">
<path d="M101.898 45.4648H97.6817C96.5459 45.4648 95.6545 46.4461 95.7588 47.5783C99.3998 86.6304 100.428 98.3658 103.85 135.114C103.943 136.106 104.777 136.868 105.773 136.868H109.989C111.124 136.868 112.016 135.887 111.912 134.755C108.86 101.967 107.602 87.7842 103.821 47.2189C103.727 46.2268 102.893 45.4648 101.898 45.4648Z" fill="#FFF1EC"/>
</g>
<g style="mix-blend-mode:multiply">
<path d="M159.787 41.7376H90.2153L90.0464 39.9297H159.956L159.787 41.7376Z" fill="#BE8F7F"/>
</g>
<g style="mix-blend-mode:multiply">
<path d="M159.956 32.9239H90.0464L90.2297 31.7773H159.769L159.956 32.9239Z" fill="#FED6C7"/>
</g>
<g style="mix-blend-mode:multiply">
<path d="M165.089 39.2467L163.932 36.1053L163.788 35.7207V33.9991C163.788 33.406 163.307 32.9279 162.714 32.9279H159.953L159.77 31.7814L158.781 25.6998C158.781 24.4741 157.786 23.4785 156.56 23.4785H144.994C146.219 23.4785 147.215 24.4741 147.215 25.6998L148.203 31.7814L148.387 32.9279H151.147C151.74 32.9279 152.222 33.406 152.222 33.9991V35.7207L152.366 36.1053L153.523 39.2467C153.642 39.5774 153.401 39.9261 153.048 39.9261H164.615C164.967 39.9261 165.208 39.5774 165.089 39.2467Z" fill="#FED6C7"/>
</g>
<g opacity="0.2">
<path d="M91.8533 39.2467L92.964 36.1053L93.1006 35.7207V33.9991C93.1006 33.406 93.5822 32.9279 94.1753 32.9279H96.986L97.1693 31.7814L98.1577 25.6998C98.1577 24.4741 99.1534 23.4785 100.383 23.4785H93.442C92.2128 23.4785 91.2171 24.4741 91.2171 25.6998L90.2287 31.7814L90.0454 32.9279H87.2347C86.6416 32.9279 86.16 33.406 86.16 33.9991V35.7207L86.0234 36.1053L84.9127 39.2467C84.7905 39.5774 85.0349 39.9261 85.3872 39.9261H92.3278C91.9755 39.9261 91.7311 39.5774 91.8533 39.2467Z" fill="#FDC8B5"/>
</g>
<g clip-path="url(#clip1_890_32517)">
<path d="M120.479 80.8013C118.767 80.1657 116.71 81.4538 115.884 83.6783C115.058 85.9029 115.776 88.2215 117.487 88.857C119.199 89.4926 121.256 88.2045 122.082 85.9799C122.908 83.7554 122.19 81.4368 120.479 80.8013Z" fill="#6B321F"/>
<path d="M120.218 80.7057L120.232 80.7098C120.426 80.7821 120.606 80.8821 120.77 81.0044C121.679 81.6775 122.105 83.0478 121.893 84.5478C121.887 84.599 121.88 84.6497 121.869 84.701C121.855 84.7883 121.837 84.8777 121.82 84.9656C121.804 85.0331 121.789 85.1005 121.772 85.1694C121.737 85.3064 121.697 85.4468 121.651 85.587C121.632 85.6501 121.609 85.7124 121.585 85.7757C121.54 85.8983 121.49 86.0181 121.436 86.138C120.565 88.1094 118.796 89.2698 117.325 88.7925C117.291 88.7821 117.257 88.7718 117.222 88.7596C117.218 88.7582 117.212 88.7564 117.207 88.7517C117.172 88.7409 117.139 88.7262 117.107 88.7114C117.107 88.7114 117.103 88.7101 117.102 88.7082C117.005 88.6659 116.914 88.6171 116.827 88.56C116.824 88.5591 116.823 88.5587 116.819 88.5559C116.77 88.525 116.723 88.4927 116.677 88.4578C116.665 88.4494 116.651 88.4386 116.639 88.4287C115.631 87.6336 115.247 85.9644 115.706 84.2366C115.722 84.1789 115.738 84.1211 115.755 84.0604C115.773 84.0017 115.79 83.9444 115.808 83.8856C115.829 83.818 115.854 83.7533 115.877 83.6866C115.901 83.6248 115.923 83.5625 115.949 83.5045L115.959 83.4722C115.966 83.4584 115.973 83.4427 115.98 83.4289C115.991 83.4049 116.001 83.3774 116.013 83.3538C116.033 83.31 116.052 83.2629 116.073 83.2196C116.085 83.1974 116.095 83.1748 116.105 83.1522C116.123 83.1129 116.143 83.074 116.164 83.0385C116.165 83.0341 116.167 83.0297 116.17 83.0243C116.191 82.981 116.215 82.9386 116.24 82.8947C116.556 82.3183 116.973 81.8015 117.508 81.3629C118.024 80.9409 118.601 80.6529 119.277 80.5913C119.597 80.5623 119.911 80.6036 120.217 80.7053L120.218 80.7057Z" fill="#934E36"/>
<path d="M120.217 80.7045L120.23 80.7085C120.295 80.7331 120.292 80.7755 120.295 80.8293C120.333 81.6088 120.153 82.3393 119.807 83.035C119.443 83.7657 118.908 84.3569 118.325 84.9176C117.716 85.5072 117.221 86.18 116.912 86.9803C116.748 87.4071 116.657 87.8501 116.652 88.308C116.651 88.3415 116.651 88.3736 116.649 88.4067C116.647 88.4126 116.645 88.4166 116.638 88.4274C115.63 87.6324 115.245 85.9631 115.705 84.2353C115.721 84.1776 115.737 84.1199 115.754 84.0592C115.772 84.0004 115.789 83.9431 115.807 83.8844C115.828 83.8168 115.852 83.752 115.876 83.6854C115.9 83.6235 115.922 83.5613 115.948 83.5033L115.951 83.4915C115.961 83.4704 115.97 83.4473 115.979 83.4277C115.99 83.4036 116 83.3761 116.012 83.3525C116.031 83.3088 116.051 83.2616 116.072 83.2183C116.084 83.1962 116.094 83.1736 116.104 83.151C116.122 83.1116 116.142 83.0728 116.163 83.0373C116.164 83.0328 116.165 83.0284 116.169 83.023C116.19 82.9797 116.214 82.9373 116.239 82.8935C116.555 82.317 116.971 81.8003 117.507 81.3617C118.023 80.9396 118.6 80.6516 119.275 80.59C119.596 80.5611 119.909 80.6023 120.216 80.704L120.217 80.7045Z" fill="#7A3923"/>
<path d="M120.767 81.0003C121.018 81.1748 121.211 81.3833 121.367 81.6253C121.93 82.4946 122.033 83.458 121.905 84.4564C121.752 85.6338 121.286 86.6799 120.502 87.5742C120.014 88.1302 119.435 88.5636 118.715 88.7803C118.216 88.9283 117.715 88.9404 117.221 88.7574C117.181 88.7419 117.135 88.6813 117.129 88.6377C117.066 88.0514 117.183 87.4959 117.419 86.9609C117.742 86.2244 118.246 85.6204 118.824 85.0709C119.408 84.5169 119.903 83.8957 120.256 83.1667C120.566 82.5243 120.741 81.8484 120.759 81.1341C120.76 81.0943 120.765 81.0543 120.769 80.9993L120.767 81.0003Z" fill="#7A3923"/>
<g opacity="0.2">
<path d="M117.1 88.7085C117.004 88.6662 116.913 88.6175 116.826 88.5604C116.933 88.6189 117.062 88.6857 117.1 88.7085Z" fill="white"/>
</g>
<g opacity="0.2">
<path d="M120.224 80.7096C118.738 80.7691 117.293 81.8583 116.528 83.9198C115.763 85.9798 115.933 87.1145 116.676 88.458C115.639 87.6768 115.24 85.9885 115.704 84.2382C115.72 84.1805 115.736 84.1227 115.753 84.0621C115.771 84.0033 115.789 83.946 115.807 83.8873C115.829 83.8187 115.854 83.749 115.88 83.6799C115.906 83.6107 115.933 83.542 115.96 83.4748C116.826 81.3748 118.699 80.1437 120.223 80.7091L120.224 80.7096Z" fill="white"/>
</g>
</g>
<g clip-path="url(#clip2_890_32517)">
<path d="M126.325 80.8013C124.614 80.1657 122.557 81.4538 121.731 83.6783C120.905 85.9029 121.623 88.2215 123.334 88.857C125.046 89.4926 127.103 88.2045 127.929 85.9799C128.755 83.7554 128.037 81.4368 126.325 80.8013Z" fill="#6B321F"/>
<path d="M126.065 80.7057L126.078 80.7098C126.273 80.7821 126.453 80.8821 126.616 81.0044C127.525 81.6775 127.951 83.0478 127.74 84.5478C127.734 84.599 127.726 84.6497 127.716 84.701C127.702 84.7883 127.684 84.8777 127.667 84.9656C127.651 85.0331 127.635 85.1005 127.619 85.1694C127.583 85.3064 127.544 85.4468 127.498 85.587C127.478 85.6501 127.456 85.7124 127.432 85.7757C127.386 85.8983 127.337 86.0181 127.283 86.138C126.412 88.1094 124.643 89.2698 123.172 88.7925C123.138 88.7821 123.104 88.7718 123.069 88.7596C123.065 88.7582 123.059 88.7564 123.054 88.7517C123.019 88.7409 122.986 88.7262 122.954 88.7114C122.954 88.7114 122.949 88.7101 122.948 88.7082C122.852 88.6659 122.761 88.6171 122.674 88.56C122.671 88.5591 122.67 88.5587 122.666 88.5559C122.617 88.525 122.569 88.4927 122.524 88.4578C122.512 88.4494 122.497 88.4386 122.486 88.4287C121.478 87.6336 121.093 85.9644 121.553 84.2366C121.569 84.1789 121.585 84.1211 121.602 84.0604C121.62 84.0017 121.637 83.9444 121.655 83.8856C121.676 83.818 121.7 83.7533 121.724 83.6866C121.748 83.6248 121.77 83.5625 121.796 83.5045L121.806 83.4722C121.813 83.4584 121.819 83.4427 121.827 83.4289C121.837 83.4049 121.847 83.3774 121.86 83.3538C121.879 83.31 121.899 83.2629 121.92 83.2196C121.931 83.1974 121.942 83.1748 121.952 83.1522C121.97 83.1129 121.99 83.074 122.011 83.0385C122.012 83.0341 122.013 83.0297 122.016 83.0243C122.038 82.981 122.062 82.9386 122.087 82.8947C122.403 82.3183 122.819 81.8015 123.355 81.3629C123.871 80.9409 124.448 80.6529 125.123 80.5913C125.444 80.5623 125.757 80.6036 126.064 80.7053L126.065 80.7057Z" fill="#934E36"/>
<path d="M126.064 80.7045L126.077 80.7085C126.142 80.7331 126.138 80.7755 126.141 80.8293C126.179 81.6088 125.999 82.3393 125.653 83.035C125.29 83.7657 124.754 84.3569 124.172 84.9176C123.562 85.5072 123.068 86.18 122.759 86.9803C122.594 87.4071 122.504 87.8501 122.499 88.308C122.498 88.3415 122.498 88.3736 122.496 88.4067C122.494 88.4126 122.491 88.4166 122.485 88.4274C121.477 87.6324 121.092 85.9631 121.551 84.2353C121.567 84.1776 121.583 84.1199 121.6 84.0592C121.618 84.0004 121.636 83.9431 121.654 83.8844C121.675 83.8168 121.699 83.752 121.723 83.6854C121.747 83.6235 121.769 83.5613 121.795 83.5033L121.798 83.4915C121.808 83.4704 121.816 83.4473 121.826 83.4277C121.836 83.4036 121.846 83.3761 121.858 83.3525C121.878 83.3088 121.897 83.2616 121.919 83.2183C121.93 83.1962 121.94 83.1736 121.95 83.151C121.969 83.1116 121.989 83.0728 122.009 83.0373C122.011 83.0328 122.012 83.0284 122.015 83.023C122.037 82.9797 122.061 82.9373 122.085 82.8935C122.401 82.317 122.818 81.8003 123.354 81.3617C123.87 80.9396 124.446 80.6516 125.122 80.59C125.443 80.5611 125.756 80.6023 126.062 80.704L126.064 80.7045Z" fill="#7A3923"/>
<path d="M126.614 81.0003C126.864 81.1748 127.058 81.3833 127.213 81.6253C127.776 82.4946 127.88 83.458 127.752 84.4564C127.599 85.6338 127.133 86.6799 126.348 87.5742C125.86 88.1302 125.281 88.5636 124.561 88.7803C124.063 88.9283 123.561 88.9404 123.068 88.7574C123.028 88.7419 122.982 88.6813 122.976 88.6377C122.913 88.0514 123.03 87.4959 123.265 86.9609C123.589 86.2244 124.093 85.6204 124.671 85.0709C125.254 84.5169 125.75 83.8957 126.103 83.1667C126.413 82.5243 126.588 81.8484 126.605 81.1341C126.606 81.0943 126.612 81.0543 126.616 80.9993L126.614 81.0003Z" fill="#7A3923"/>
<g opacity="0.2">
<path d="M122.947 88.7085C122.85 88.6662 122.759 88.6175 122.672 88.5604C122.78 88.6189 122.909 88.6857 122.947 88.7085Z" fill="white"/>
</g>
<g opacity="0.2">
<path d="M126.071 80.7096C124.584 80.7691 123.14 81.8583 122.374 83.9198C121.61 85.9798 121.78 87.1145 122.522 88.458C121.486 87.6768 121.087 85.9885 121.551 84.2382C121.567 84.1805 121.583 84.1227 121.6 84.0621C121.618 84.0033 121.636 83.946 121.654 83.8873C121.676 83.8187 121.701 83.749 121.727 83.6799C121.753 83.6107 121.78 83.542 121.807 83.4748C122.672 81.3748 124.546 80.1437 126.069 80.7091L126.071 80.7096Z" fill="white"/>
</g>
</g>
<g clip-path="url(#clip3_890_32517)">
<path d="M132.173 80.8013C130.461 80.1657 128.404 81.4538 127.578 83.6783C126.752 85.9029 127.47 88.2215 129.181 88.857C130.893 89.4926 132.95 88.2045 133.776 85.9799C134.602 83.7554 133.884 81.4368 132.173 80.8013Z" fill="#6B321F"/>
<path d="M131.912 80.7057L131.925 80.7098C132.12 80.7821 132.3 80.8821 132.463 81.0044C133.372 81.6775 133.798 83.0478 133.587 84.5478C133.581 84.599 133.574 84.6497 133.563 84.701C133.549 84.7883 133.531 84.8777 133.514 84.9656C133.498 85.0331 133.482 85.1005 133.466 85.1694C133.431 85.3064 133.391 85.4468 133.345 85.587C133.326 85.6501 133.303 85.7124 133.279 85.7757C133.234 85.8983 133.184 86.0181 133.13 86.138C132.259 88.1094 130.49 89.2698 129.019 88.7925C128.985 88.7821 128.951 88.7718 128.916 88.7596C128.912 88.7582 128.906 88.7564 128.901 88.7517C128.866 88.7409 128.833 88.7262 128.801 88.7114C128.801 88.7114 128.796 88.7101 128.795 88.7082C128.699 88.6659 128.608 88.6171 128.521 88.56C128.518 88.5591 128.517 88.5587 128.513 88.5559C128.464 88.525 128.416 88.4927 128.371 88.4578C128.359 88.4494 128.345 88.4386 128.333 88.4287C127.325 87.6336 126.941 85.9644 127.4 84.2366C127.416 84.1789 127.432 84.1211 127.449 84.0604C127.467 84.0017 127.484 83.9444 127.502 83.8856C127.523 83.818 127.548 83.7533 127.571 83.6866C127.595 83.6248 127.617 83.5625 127.643 83.5045L127.653 83.4722C127.66 83.4584 127.667 83.4427 127.674 83.4289C127.685 83.4049 127.695 83.3774 127.707 83.3538C127.726 83.31 127.746 83.2629 127.767 83.2196C127.779 83.1974 127.789 83.1748 127.799 83.1522C127.817 83.1129 127.837 83.074 127.858 83.0385C127.859 83.0341 127.86 83.0297 127.864 83.0243C127.885 82.981 127.909 82.9386 127.934 82.8947C128.25 82.3183 128.666 81.8015 129.202 81.3629C129.718 80.9409 130.295 80.6529 130.971 80.5913C131.291 80.5623 131.604 80.6036 131.911 80.7053L131.912 80.7057Z" fill="#934E36"/>
<path d="M131.911 80.7045L131.924 80.7085C131.989 80.7331 131.986 80.7755 131.988 80.8293C132.026 81.6088 131.846 82.3393 131.5 83.035C131.137 83.7657 130.601 84.3569 130.019 84.9176C129.41 85.5072 128.915 86.18 128.606 86.9803C128.442 87.4071 128.351 87.8501 128.346 88.308C128.345 88.3415 128.345 88.3736 128.343 88.4067C128.341 88.4126 128.338 88.4166 128.332 88.4274C127.324 87.6324 126.939 85.9631 127.399 84.2353C127.415 84.1776 127.431 84.1199 127.448 84.0592C127.466 84.0004 127.483 83.9431 127.501 83.8844C127.522 83.8168 127.546 83.752 127.57 83.6854C127.594 83.6235 127.616 83.5613 127.642 83.5033L127.645 83.4915C127.655 83.4704 127.664 83.4473 127.673 83.4277C127.683 83.4036 127.693 83.3761 127.705 83.3525C127.725 83.3088 127.744 83.2616 127.766 83.2183C127.777 83.1962 127.787 83.1736 127.798 83.151C127.816 83.1116 127.836 83.0728 127.856 83.0373C127.858 83.0328 127.859 83.0284 127.862 83.023C127.884 82.9797 127.908 82.9373 127.933 82.8935C128.249 82.317 128.665 81.8003 129.201 81.3617C129.717 80.9396 130.293 80.6516 130.969 80.59C131.29 80.5611 131.603 80.6023 131.91 80.704L131.911 80.7045Z" fill="#7A3923"/>
<path d="M132.461 81.0003C132.711 81.1748 132.905 81.3833 133.06 81.6253C133.624 82.4946 133.727 83.458 133.599 84.4564C133.446 85.6338 132.98 86.6799 132.196 87.5742C131.708 88.1302 131.128 88.5636 130.408 88.7803C129.91 88.9283 129.409 88.9404 128.915 88.7574C128.875 88.7419 128.829 88.6813 128.823 88.6377C128.76 88.0514 128.877 87.4959 129.113 86.9609C129.436 86.2244 129.94 85.6204 130.518 85.0709C131.102 84.5169 131.597 83.8957 131.95 83.1667C132.26 82.5243 132.435 81.8484 132.452 81.1341C132.453 81.0943 132.459 81.0543 132.463 80.9993L132.461 81.0003Z" fill="#7A3923"/>
<g opacity="0.2">
<path d="M128.794 88.7085C128.697 88.6662 128.606 88.6175 128.519 88.5604C128.627 88.6189 128.756 88.6857 128.794 88.7085Z" fill="white"/>
</g>
<g opacity="0.2">
<path d="M131.918 80.7096C130.432 80.7691 128.987 81.8583 128.222 83.9198C127.457 85.9798 127.627 87.1145 128.37 88.458C127.333 87.6768 126.934 85.9885 127.398 84.2382C127.414 84.1805 127.43 84.1227 127.447 84.0621C127.465 84.0033 127.483 83.946 127.501 83.8873C127.523 83.8187 127.548 83.749 127.574 83.6799C127.6 83.6107 127.627 83.542 127.654 83.4748C128.519 81.3748 130.393 80.1437 131.916 80.7091L131.918 80.7096Z" fill="white"/>
</g>
</g>
</g>
<g filter="url(#filter0_f_890_32517)">
<ellipse cx="125" cy="142.416" rx="28.7227" ry="4.54871" fill="#B03E18" fill-opacity="0.2"/>
</g>
<g filter="url(#filter1_f_890_32517)">
<ellipse cx="125.102" cy="141.98" rx="27.2578" ry="1.80066" fill="#7A3923"/>
</g>
<g filter="url(#filter2_f_890_32517)">
<ellipse cx="125" cy="144.459" rx="49.1758" ry="7.49377" fill="#B03E18" fill-opacity="0.25"/>
</g>
<defs>
<filter id="filter0_f_890_32517" x="92.2773" y="133.867" width="65.4453" height="17.0977" filterUnits="userSpaceOnUse" color-interpolation-filters="sRGB">
<feFlood flood-opacity="0" result="BackgroundImageFix"/>
<feBlend mode="normal" in="SourceGraphic" in2="BackgroundImageFix" result="shape"/>
<feGaussianBlur stdDeviation="2" result="effect1_foregroundBlur_890_32517"/>
</filter>
<filter id="filter1_f_890_32517" x="95.8438" y="138.18" width="58.5156" height="7.60156" filterUnits="userSpaceOnUse" color-interpolation-filters="sRGB">
<feFlood flood-opacity="0" result="BackgroundImageFix"/>
<feBlend mode="normal" in="SourceGraphic" in2="BackgroundImageFix" result="shape"/>
<feGaussianBlur stdDeviation="1" result="effect1_foregroundBlur_890_32517"/>
</filter>
<filter id="filter2_f_890_32517" x="65.8242" y="126.965" width="118.352" height="34.9883" filterUnits="userSpaceOnUse" color-interpolation-filters="sRGB">
<feFlood flood-opacity="0" result="BackgroundImageFix"/>
<feBlend mode="normal" in="SourceGraphic" in2="BackgroundImageFix" result="shape"/>
<feGaussianBlur stdDeviation="5" result="effect1_foregroundBlur_890_32517"/>
</filter>
<linearGradient id="paint0_linear_890_32517" x1="125" y1="0.660156" x2="125" y2="172.66" gradientUnits="userSpaceOnUse">
<stop stop-color="#FFF3EF"/>
<stop offset="1" stop-color="white"/>
</linearGradient>
<clipPath id="clip0_890_32517">
<rect width="80.2393" height="120.596" fill="white" transform="translate(84.8804 21.3691)"/>
</clipPath>
<clipPath id="clip1_890_32517">
<rect width="8.60246" height="6.62083" fill="white" transform="translate(114.56 87.9668) rotate(-72.998)"/>
</clipPath>
<clipPath id="clip2_890_32517">
<rect width="8.60246" height="6.62083" fill="white" transform="translate(120.407 87.9668) rotate(-72.998)"/>
</clipPath>
<clipPath id="clip3_890_32517">
<rect width="8.60246" height="6.62083" fill="white" transform="translate(126.254 87.9668) rotate(-72.998)"/>
</clipPath>
</defs>
</svg>
