<svg width="250" height="173" viewBox="0 0 250 173" fill="none" xmlns="http://www.w3.org/2000/svg">
<rect y="0.660156" width="250" height="172" rx="4" fill="url(#paint0_linear_890_32591)" fill-opacity="0.4"/>
<path d="M159.954 39.9238L157.733 63.7756L153.923 104.643L150.577 140.561C150.501 141.355 149.836 141.963 149.035 141.963H101.36C100.339 141.963 99.4836 141.183 99.3901 140.165L96.0798 104.643L92.2698 63.7756L90.0449 39.9238H159.954Z" fill="#FFF8F6"/>
<path d="M164.612 39.9241H85.3862C85.034 39.9241 84.7895 39.5754 84.9118 39.2448L86.0224 36.1033L86.159 35.7188H163.789L163.933 36.1033L165.09 39.2448C165.209 39.5754 164.968 39.9241 164.616 39.9241H164.612Z" fill="#FA7545"/>
<path d="M163.788 33.9949V35.7166H86.1548V33.9949C86.1548 33.4019 86.6364 32.9238 87.2295 32.9238H162.714C163.307 32.9238 163.788 33.4019 163.788 33.9949Z" fill="#FA7545"/>
<path d="M159.954 32.9221H90.0449L90.2282 31.7755L91.2167 25.6939C91.2167 24.4683 92.2123 23.4727 93.4415 23.4727H156.561C157.787 23.4727 158.782 24.4683 158.782 25.6939L159.771 31.7755L159.954 32.9221Z" fill="#E6541F"/>
<path d="M152.903 23.4735H142.364V22.8373C142.364 22.0249 143.022 21.3672 143.834 21.3672H151.429C152.241 21.3672 152.899 22.0249 152.899 22.8373V23.4735H152.903Z" fill="#E6541F"/>
<path d="M163.928 36.103H86.021L86.154 35.7148H163.787L163.928 36.103Z" fill="#E6541F"/>
<path d="M163.785 35.332H86.1548V35.7166H163.785V35.332Z" fill="#E6541F"/>
<path d="M157.734 63.7773L153.924 104.645H96.0769L92.2705 63.7773H157.734Z" fill="#E6541F"/>
<g style="mix-blend-mode:multiply">
<path d="M153.284 39.9238C151.318 71.4567 149.316 104.618 145.15 132.563C144.657 135.856 141.976 138.386 138.658 138.67C125.5 139.795 114.548 139.554 99.2505 138.638L99.3943 140.194C99.4877 141.197 100.329 141.966 101.339 141.966H149.035C149.833 141.966 150.502 141.359 150.577 140.561C159.592 43.8165 155.81 84.4177 159.955 39.9274H153.284V39.9238Z" fill="#FFF1EC"/>
</g>
<path d="M137.185 96.3977C143.916 89.6671 143.916 78.7547 137.185 72.0242C130.455 65.2936 119.542 65.2936 112.812 72.0242C106.081 78.7547 106.081 89.6671 112.812 96.3977C119.542 103.128 130.455 103.128 137.185 96.3977Z" fill="#FEE3DA"/>
<g clip-path="url(#clip0_890_32591)">
<path d="M123.401 79.7993C121.689 79.1637 119.632 80.4519 118.806 82.6764C117.98 84.9009 118.698 87.2195 120.409 87.8551C122.121 88.4906 124.178 87.2025 125.004 84.978C125.83 82.7534 125.112 80.4349 123.401 79.7993Z" fill="#6B321F"/>
<path d="M123.14 79.7038L123.153 79.7078C123.348 79.7802 123.528 79.8802 123.691 80.0024C124.6 80.6755 125.026 82.0459 124.815 83.5459C124.809 83.597 124.802 83.6478 124.791 83.6991C124.777 83.7864 124.759 83.8758 124.742 83.9637C124.726 84.0311 124.71 84.0986 124.694 84.1675C124.659 84.3044 124.619 84.4449 124.573 84.585C124.554 84.6482 124.531 84.7104 124.507 84.7737C124.462 84.8964 124.412 85.0162 124.358 85.1361C123.487 87.1074 121.718 88.2678 120.247 87.7905C120.213 87.7802 120.179 87.7699 120.144 87.7576C120.14 87.7563 120.134 87.7545 120.129 87.7497C120.094 87.739 120.061 87.7242 120.029 87.7095C120.029 87.7095 120.025 87.7081 120.023 87.7062C119.927 87.6639 119.836 87.6152 119.749 87.5581C119.746 87.5572 119.745 87.5567 119.741 87.5539C119.692 87.523 119.644 87.4907 119.599 87.4559C119.587 87.4474 119.573 87.4366 119.561 87.4267C118.553 86.6317 118.169 84.9624 118.628 83.2346C118.644 83.1769 118.66 83.1192 118.677 83.0585C118.695 82.9997 118.712 82.9424 118.73 82.8837C118.751 82.8161 118.776 82.7513 118.799 82.6847C118.823 82.6228 118.845 82.5606 118.871 82.5026L118.881 82.4703C118.888 82.4565 118.895 82.4408 118.902 82.427C118.913 82.4029 118.923 82.3754 118.935 82.3518C118.955 82.3081 118.974 82.2609 118.995 82.2176C119.007 82.1955 119.017 82.1729 119.027 82.1503C119.045 82.1109 119.065 82.0721 119.086 82.0366C119.087 82.0321 119.088 82.0277 119.092 82.0223C119.113 81.979 119.137 81.9366 119.162 81.8928C119.478 81.3163 119.894 80.7996 120.43 80.361C120.946 79.9389 121.523 79.6509 122.199 79.5893C122.519 79.5604 122.833 79.6016 123.139 79.7033L123.14 79.7038Z" fill="#934E36"/>
<path d="M123.139 79.7025L123.152 79.7065C123.217 79.7312 123.214 79.7735 123.216 79.8274C123.254 80.6068 123.074 81.3373 122.728 82.0331C122.365 82.7638 121.829 83.3549 121.247 83.9157C120.638 84.5053 120.143 85.178 119.834 85.9783C119.67 86.4052 119.579 86.8482 119.574 87.306C119.573 87.3396 119.573 87.3717 119.571 87.4048C119.569 87.4106 119.566 87.4146 119.56 87.4255C118.552 86.6304 118.167 84.9612 118.627 83.2334C118.643 83.1756 118.659 83.1179 118.676 83.0572C118.694 82.9985 118.711 82.9412 118.729 82.8824C118.75 82.8148 118.774 82.7501 118.798 82.6834C118.822 82.6216 118.844 82.5593 118.87 82.5013L118.873 82.4896C118.883 82.4684 118.892 82.4454 118.901 82.4257C118.911 82.4016 118.921 82.3742 118.933 82.3506C118.953 82.3068 118.973 82.2597 118.994 82.2164C119.005 82.1942 119.016 82.1716 119.026 82.149C119.044 82.1097 119.064 82.0708 119.084 82.0353C119.086 82.0309 119.087 82.0265 119.09 82.0211C119.112 81.9778 119.136 81.9354 119.161 81.8915C119.477 81.3151 119.893 80.7983 120.429 80.3597C120.945 79.9377 121.522 79.6497 122.197 79.5881C122.518 79.5591 122.831 79.6004 123.138 79.702L123.139 79.7025Z" fill="#7A3923"/>
<path d="M123.689 79.9983C123.939 80.1728 124.133 80.3813 124.288 80.6233C124.852 81.4926 124.955 82.4561 124.827 83.4545C124.674 84.6318 124.208 85.678 123.424 86.5723C122.936 87.1282 122.357 87.5616 121.636 87.7784C121.138 87.9264 120.637 87.9385 120.143 87.7555C120.103 87.7399 120.057 87.6794 120.051 87.6358C119.988 87.0494 120.105 86.494 120.341 85.9589C120.664 85.2224 121.168 84.6184 121.746 84.069C122.33 83.515 122.825 82.8937 123.178 82.1648C123.488 81.5224 123.663 80.8465 123.68 80.1322C123.681 80.0923 123.687 80.0523 123.691 79.9973L123.689 79.9983Z" fill="#7A3923"/>
<g opacity="0.2">
<path d="M120.022 87.7066C119.926 87.6643 119.834 87.6155 119.747 87.5584C119.855 87.617 119.984 87.6837 120.022 87.7066Z" fill="white"/>
</g>
<g opacity="0.2">
<path d="M123.146 79.7076C121.66 79.7672 120.215 80.8563 119.45 82.9178C118.685 84.9778 118.855 86.1126 119.598 87.4561C118.561 86.6749 118.162 84.9865 118.626 83.2363C118.642 83.1785 118.658 83.1208 118.675 83.0601C118.693 83.0014 118.711 82.9441 118.729 82.8853C118.751 82.8167 118.776 82.7471 118.802 82.6779C118.828 82.6088 118.855 82.54 118.882 82.4728C119.748 80.3728 121.621 79.1418 123.145 79.7072L123.146 79.7076Z" fill="white"/>
</g>
</g>
<g clip-path="url(#clip1_890_32591)">
<path d="M129.247 79.7993C127.536 79.1637 125.479 80.4519 124.653 82.6764C123.827 84.9009 124.544 87.2195 126.256 87.8551C127.967 88.4906 130.025 87.2025 130.851 84.978C131.677 82.7534 130.959 80.4349 129.247 79.7993Z" fill="#6B321F"/>
<path d="M128.987 79.7038L129 79.7078C129.195 79.7802 129.375 79.8802 129.538 80.0024C130.447 80.6755 130.873 82.0459 130.662 83.5459C130.656 83.597 130.648 83.6478 130.637 83.6991C130.624 83.7864 130.606 83.8758 130.589 83.9637C130.573 84.0311 130.557 84.0986 130.541 84.1675C130.505 84.3044 130.466 84.4449 130.42 84.585C130.4 84.6482 130.378 84.7104 130.354 84.7737C130.308 84.8964 130.259 85.0162 130.204 85.1361C129.333 87.1074 127.565 88.2678 126.093 87.7905C126.06 87.7802 126.026 87.7699 125.991 87.7576C125.987 87.7563 125.981 87.7545 125.976 87.7497C125.94 87.739 125.908 87.7242 125.876 87.7095C125.876 87.7095 125.871 87.7081 125.87 87.7062C125.774 87.6639 125.683 87.6152 125.596 87.5581C125.593 87.5572 125.591 87.5567 125.587 87.5539C125.539 87.523 125.491 87.4907 125.446 87.4559C125.434 87.4474 125.419 87.4366 125.408 87.4267C124.4 86.6317 124.015 84.9624 124.474 83.2346C124.491 83.1769 124.507 83.1192 124.524 83.0585C124.542 82.9997 124.559 82.9424 124.577 82.8837C124.598 82.8161 124.622 82.7513 124.646 82.6847C124.67 82.6228 124.692 82.5606 124.718 82.5026L124.727 82.4703C124.735 82.4565 124.741 82.4408 124.749 82.427C124.759 82.4029 124.769 82.3754 124.781 82.3518C124.801 82.3081 124.82 82.2609 124.842 82.2176C124.853 82.1955 124.863 82.1729 124.874 82.1503C124.892 82.1109 124.912 82.0721 124.932 82.0366C124.934 82.0321 124.935 82.0277 124.938 82.0223C124.96 81.979 124.984 81.9366 125.008 81.8928C125.324 81.3163 125.741 80.7996 126.277 80.361C126.793 79.9389 127.369 79.6509 128.045 79.5893C128.366 79.5604 128.679 79.6016 128.985 79.7033L128.987 79.7038Z" fill="#934E36"/>
<path d="M128.986 79.7025L128.999 79.7065C129.064 79.7312 129.06 79.7735 129.063 79.8274C129.101 80.6068 128.921 81.3373 128.575 82.0331C128.212 82.7638 127.676 83.3549 127.093 83.9157C126.484 84.5053 125.989 85.178 125.68 85.9783C125.516 86.4052 125.426 86.8482 125.421 87.306C125.42 87.3396 125.42 87.3717 125.418 87.4048C125.416 87.4106 125.413 87.4146 125.407 87.4255C124.398 86.6304 124.014 84.9612 124.473 83.2334C124.489 83.1756 124.505 83.1179 124.522 83.0572C124.54 82.9985 124.558 82.9412 124.576 82.8824C124.596 82.8148 124.621 82.7501 124.645 82.6834C124.668 82.6216 124.691 82.5593 124.716 82.5013L124.72 82.4896C124.73 82.4684 124.738 82.4454 124.748 82.4257C124.758 82.4016 124.768 82.3742 124.78 82.3506C124.8 82.3068 124.819 82.2597 124.84 82.2164C124.852 82.1942 124.862 82.1716 124.872 82.149C124.891 82.1097 124.911 82.0708 124.931 82.0353C124.933 82.0309 124.934 82.0265 124.937 82.0211C124.958 81.9778 124.983 81.9354 125.007 81.8915C125.323 81.3151 125.74 80.7983 126.276 80.3597C126.792 79.9377 127.368 79.6497 128.044 79.5881C128.365 79.5591 128.678 79.6004 128.984 79.702L128.986 79.7025Z" fill="#7A3923"/>
<path d="M129.536 79.9983C129.786 80.1728 129.979 80.3813 130.135 80.6233C130.698 81.4926 130.802 82.4561 130.673 83.4545C130.521 84.6318 130.055 85.678 129.27 86.5723C128.782 87.1282 128.203 87.5616 127.483 87.7784C126.985 87.9264 126.483 87.9385 125.99 87.7555C125.95 87.7399 125.904 87.6794 125.898 87.6358C125.835 87.0494 125.951 86.494 126.187 85.9589C126.511 85.2224 127.015 84.6184 127.592 84.069C128.176 83.515 128.671 82.8937 129.025 82.1648C129.335 81.5224 129.51 80.8465 129.527 80.1322C129.528 80.0923 129.534 80.0523 129.538 79.9973L129.536 79.9983Z" fill="#7A3923"/>
<g opacity="0.2">
<path d="M125.869 87.7066C125.772 87.6643 125.681 87.6155 125.594 87.5584C125.702 87.617 125.831 87.6837 125.869 87.7066Z" fill="white"/>
</g>
<g opacity="0.2">
<path d="M128.993 79.7076C127.506 79.7672 126.062 80.8563 125.296 82.9178C124.532 84.9778 124.702 86.1126 125.444 87.4561C124.408 86.6749 124.008 84.9865 124.473 83.2363C124.489 83.1785 124.505 83.1208 124.522 83.0601C124.54 83.0014 124.557 82.9441 124.575 82.8853C124.598 82.8167 124.622 82.7471 124.648 82.6779C124.674 82.6088 124.702 82.54 124.729 82.4728C125.594 80.3728 127.468 79.1418 128.991 79.7072L128.993 79.7076Z" fill="white"/>
</g>
</g>
<path d="M124.999 101.624C115.395 101.624 107.584 93.8133 107.584 84.2093C107.584 74.6053 115.395 66.7949 124.999 66.7949C134.603 66.7949 142.413 74.6053 142.413 84.2093C142.413 93.8133 134.603 101.624 124.999 101.624ZM124.999 67.1544C115.596 67.1544 107.944 74.8066 107.944 84.2093C107.944 93.612 115.596 101.264 124.999 101.264C134.402 101.264 142.054 93.612 142.054 84.2093C142.054 74.8066 134.402 67.1544 124.999 67.1544Z" fill="#FFF8F6"/>
<g opacity="0.4">
<path d="M101.896 45.4629H97.6803C96.5445 45.4629 95.6531 46.4441 95.7573 47.5763C99.3984 86.6285 100.426 98.3639 103.848 135.112C103.942 136.104 104.775 136.866 105.771 136.866H109.987C111.123 136.866 112.014 135.885 111.91 134.753C108.859 101.965 107.601 87.7823 103.819 47.2169C103.726 46.2249 102.892 45.4629 101.896 45.4629Z" fill="#FFF1EC"/>
</g>
<g style="mix-blend-mode:multiply">
<path d="M159.785 41.7357H90.2139L90.0449 39.9277H159.954L159.785 41.7357Z" fill="#FED6C7"/>
</g>
<g style="mix-blend-mode:multiply">
<path d="M159.954 32.922H90.0449L90.2282 31.7754H159.767L159.954 32.922Z" fill="#FED6C7"/>
</g>
<g style="mix-blend-mode:multiply">
<path d="M165.088 39.2448L163.931 36.1034L163.787 35.7188V33.9971C163.787 33.404 163.305 32.926 162.712 32.926H159.952L159.768 31.7794L158.78 25.6978C158.78 24.4722 157.784 23.4766 156.559 23.4766H144.992C146.218 23.4766 147.213 24.4722 147.213 25.6978L148.202 31.7794L148.385 32.926H151.146C151.739 32.926 152.22 33.404 152.22 33.9971V35.7188L152.364 36.1034L153.521 39.2448C153.64 39.5755 153.399 39.9241 153.047 39.9241H164.614C164.966 39.9241 165.207 39.5755 165.088 39.2448Z" fill="#FED6C7"/>
</g>
<g opacity="0.2">
<path d="M91.8519 39.2448L92.9625 36.1034L93.0991 35.7188V33.9971C93.0991 33.404 93.5807 32.926 94.1738 32.926H96.9845L97.1678 31.7794L98.1563 25.6978C98.1563 24.4722 99.1519 23.4766 100.381 23.4766H93.4406C92.2113 23.4766 91.2157 24.4722 91.2157 25.6978L90.2272 31.7794L90.0439 32.926H87.2332C86.6401 32.926 86.1585 33.404 86.1585 33.9971V35.7188L86.0219 36.1034L84.9113 39.2448C84.7891 39.5755 85.0335 39.9241 85.3857 39.9241H92.3263C91.9741 39.9241 91.7297 39.5755 91.8519 39.2448Z" fill="#FDC8B5"/>
</g>
<g filter="url(#filter0_f_890_32591)">
<ellipse cx="125" cy="142.418" rx="28.7227" ry="4.54871" fill="#B03E18" fill-opacity="0.63"/>
</g>
<g filter="url(#filter1_f_890_32591)">
<ellipse cx="125.102" cy="141.982" rx="27.2578" ry="1.80066" fill="#421708"/>
</g>
<g filter="url(#filter2_f_890_32591)">
<ellipse cx="125" cy="144.461" rx="49.1758" ry="7.49377" fill="#B03E18" fill-opacity="0.23"/>
</g>
<defs>
<filter id="filter0_f_890_32591" x="92.2773" y="133.869" width="65.4453" height="17.0977" filterUnits="userSpaceOnUse" color-interpolation-filters="sRGB">
<feFlood flood-opacity="0" result="BackgroundImageFix"/>
<feBlend mode="normal" in="SourceGraphic" in2="BackgroundImageFix" result="shape"/>
<feGaussianBlur stdDeviation="2" result="effect1_foregroundBlur_890_32591"/>
</filter>
<filter id="filter1_f_890_32591" x="95.8438" y="138.182" width="58.5156" height="7.60156" filterUnits="userSpaceOnUse" color-interpolation-filters="sRGB">
<feFlood flood-opacity="0" result="BackgroundImageFix"/>
<feBlend mode="normal" in="SourceGraphic" in2="BackgroundImageFix" result="shape"/>
<feGaussianBlur stdDeviation="1" result="effect1_foregroundBlur_890_32591"/>
</filter>
<filter id="filter2_f_890_32591" x="65.8242" y="126.967" width="118.352" height="34.9883" filterUnits="userSpaceOnUse" color-interpolation-filters="sRGB">
<feFlood flood-opacity="0" result="BackgroundImageFix"/>
<feBlend mode="normal" in="SourceGraphic" in2="BackgroundImageFix" result="shape"/>
<feGaussianBlur stdDeviation="5" result="effect1_foregroundBlur_890_32591"/>
</filter>
<linearGradient id="paint0_linear_890_32591" x1="125" y1="0.660156" x2="125" y2="172.66" gradientUnits="userSpaceOnUse">
<stop stop-color="#FFF1EC"/>
<stop offset="1" stop-color="white"/>
</linearGradient>
<clipPath id="clip0_890_32591">
<rect width="8.60246" height="6.62083" fill="white" transform="translate(117.482 86.9648) rotate(-72.998)"/>
</clipPath>
<clipPath id="clip1_890_32591">
<rect width="8.60246" height="6.62083" fill="white" transform="translate(123.329 86.9648) rotate(-72.998)"/>
</clipPath>
</defs>
</svg>
