<svg width="32" height="33" viewBox="0 0 32 33" fill="none" xmlns="http://www.w3.org/2000/svg">
<path fill-rule="evenodd" clip-rule="evenodd" d="M6.84164 9.63873C6.57116 9.55084 6.2865 9.72687 6.24428 10.0081L5.73764 13.3829C5.66507 13.8663 5.95263 14.3314 6.41754 14.4824L23.6768 20.0903C24.4833 20.3523 25.3495 19.911 25.6115 19.1045C25.8839 18.2662 25.3961 17.3712 24.544 17.1457L19.2324 15.7403L17.9043 6.36717C17.8492 5.97827 17.5773 5.65471 17.2038 5.53333C16.5778 5.32994 15.9245 5.75875 15.8621 6.41398L15.102 14.3983L7.84583 12.4558L7.14252 9.95198C7.1009 9.80383 6.988 9.68628 6.84164 9.63873ZM25.6777 23.112H5.14771V24.6913H25.6777V23.112Z" fill="#141415"/>
</svg>
