<svg width="34" height="31" viewBox="0 0 34 31" fill="none" xmlns="http://www.w3.org/2000/svg">
<g clip-path="url(#clip0_545_77434)">
<path d="M1 1.66016H6.14256L9.99947 23.516H30.5697M9.99948 18.3735H30.0426C30.1913 18.3736 30.3354 18.3221 30.4504 18.2279C30.5654 18.1337 30.6442 18.0026 30.6734 17.8568L32.9875 6.28605C33.0062 6.19275 33.0039 6.09647 32.9809 6.00415C32.9578 5.91183 32.9145 5.82579 32.8542 5.75222C32.7938 5.67865 32.7179 5.6194 32.6319 5.57873C32.5459 5.53807 32.4519 5.51701 32.3567 5.51708H7.4282M12.5707 28.6585C12.5707 29.3686 11.9951 29.9442 11.2851 29.9442C10.5751 29.9442 9.99946 29.3686 9.99946 28.6585C9.99946 27.9485 10.5751 27.3729 11.2851 27.3729C11.9951 27.3729 12.5707 27.9485 12.5707 28.6585ZM30.5697 28.6585C30.5697 29.3686 29.9941 29.9442 29.284 29.9442C28.574 29.9442 27.9984 29.3686 27.9984 28.6585C27.9984 27.9485 28.574 27.3729 29.284 27.3729C29.9941 27.3729 30.5697 27.9485 30.5697 28.6585Z" stroke="#141415" stroke-linecap="round" stroke-linejoin="round"/>
</g>
<defs>
<clipPath id="clip0_545_77434">
<rect width="34" height="30.284" fill="white" transform="translate(0 0.660156)"/>
</clipPath>
</defs>
</svg>
