<svg width="73" height="72" viewBox="0 0 73 72" fill="none" xmlns="http://www.w3.org/2000/svg">
<rect x="0.833008" y="0.5" width="71" height="71" rx="3.5" fill="#FFF8F6"/>
<path d="M25.8587 19.5527V26.0992M46.8072 19.5527V26.0992M23.2401 52.4486V51.139C23.2401 47.5235 26.171 44.5929 29.7865 44.5929C33.402 44.5929 36.3329 47.5229 36.3329 51.1384V52.4486M36.3329 52.4486H52.0443C53.4905 52.4486 54.6629 51.2762 54.6629 49.83V28.8814C54.6629 27.4352 53.4905 26.2628 52.0443 26.2628H20.6215C19.1753 26.2628 18.0029 27.4352 18.0029 28.8814V49.83C18.0029 51.2763 19.1753 52.4486 20.6215 52.4486H36.3329ZM40.2608 39.8467H48.1165M40.2608 44.2656H48.1165M40.2608 35.2642H48.1165M33.4891 36.0809C33.3245 38.3004 31.6419 40.111 29.7948 40.111C27.9477 40.111 26.2621 38.3008 26.1005 36.0809C25.9326 33.772 27.5698 32.0508 29.7948 32.0508C32.0198 32.0508 33.657 33.814 33.4891 36.0809Z" stroke="#FF5D22" stroke-width="1.5" stroke-linecap="round" stroke-linejoin="round"/>
<rect x="0.833008" y="0.5" width="71" height="71" rx="3.5" stroke="#FF5D22"/>
</svg>
