<svg width="73" height="72" viewBox="0 0 73 72" fill="none" xmlns="http://www.w3.org/2000/svg">
<rect x="0.833008" y="0.5" width="71" height="71" rx="3.5" fill="#FFF8F6"/>
<rect x="0.833008" y="0.5" width="71" height="71" rx="3.5" stroke="#FF5D22"/>
<path d="M32.2249 52H14.333V44.0002H32.2249V52Z" stroke="#FF5D22" stroke-width="1.5"/>
<path d="M50.0262 52H32.2256V44.0002H50.0262V52Z" stroke="#FF5D22" stroke-width="1.5"/>
<path d="M40.4413 44.002H22.6406V36.0022H40.4413V44.002Z" stroke="#FF5D22" stroke-width="1.5"/>
<path d="M58.3333 44.002H40.4414V36.0022H58.3333V44.002Z" stroke="#FF5D22" stroke-width="1.5"/>
<path d="M32.2249 36H14.333V28.0002H32.2249V36Z" stroke="#FF5D22" stroke-width="1.5"/>
<path d="M50.0262 36H32.2256V28.0002H50.0262V36Z" stroke="#FF5D22" stroke-width="1.5"/>
<path d="M40.4413 28H22.6406V20.0002H40.4413V28Z" stroke="#FF5D22" stroke-width="1.5"/>
<path d="M58.3333 28H40.4414V20.0002H58.3333V28Z" stroke="#FF5D22" stroke-width="1.5"/>
</svg>
