<svg width="72" height="72" viewBox="0 0 72 72" fill="none" xmlns="http://www.w3.org/2000/svg">
<rect x="0.5" y="0.5" width="71" height="71" rx="3.5" fill="#FFF8F6"/>
<path d="M52.9691 38.8102V35.9801C52.9691 26.6035 45.3486 19 35.9501 19C33.3934 18.9969 30.8689 19.5705 28.5645 20.6781C26.2602 21.7857 24.2353 23.3988 22.6407 25.3973M18.9814 33.185V36.0152C18.9814 45.4022 26.5982 53 36.0005 53C38.5499 52.9963 41.0664 52.4239 43.3665 51.3244C45.6667 50.2249 47.6926 48.6261 49.2966 46.6445" stroke="#FF5D22" stroke-width="1.5" stroke-linecap="round" stroke-linejoin="round"/>
<path d="M14.7266 36.001L18.9053 31.8223L23.2741 36.001M57.2741 36.001L53.0953 40.1798L48.7266 36.001" stroke="#FF5D22" stroke-width="1.5" stroke-linecap="round" stroke-linejoin="round"/>
<path d="M30.6816 39.1902C30.6816 40.9526 32.1103 42.3813 33.8727 42.3813H38.1275C39.8898 42.3813 41.3185 40.9526 41.3185 39.1902C41.3185 37.4278 39.8898 35.9991 38.1275 35.9991H33.8727C32.1103 35.9991 30.6816 34.5704 30.6816 32.8081C30.6816 31.0457 32.1103 29.617 33.8727 29.617H38.1275C39.8898 29.617 41.3185 31.0457 41.3185 32.8081M36.0001 28.0215V29.617M36.0001 43.9768V42.3813" stroke="#FF5D22" stroke-width="1.5" stroke-linecap="round" stroke-linejoin="round"/>
<rect x="0.5" y="0.5" width="71" height="71" rx="3.5" stroke="#FF5D22"/>
</svg>
