<svg width="73" height="72" viewBox="0 0 73 72" fill="none" xmlns="http://www.w3.org/2000/svg">
<rect x="1.16699" y="0.5" width="71" height="71" rx="3.5" fill="#FFF8F6"/>
<path d="M14.7646 18.8516H21.0006L25.6776 45.3542H50.6213M25.6776 39.1183H49.9822C50.1624 39.1184 50.3372 39.0561 50.4766 38.9418C50.6161 38.8276 50.7117 38.6686 50.747 38.4918L53.5532 24.461C53.5758 24.3478 53.5731 24.2311 53.5451 24.1191C53.5172 24.0072 53.4647 23.9028 53.3915 23.8136C53.3184 23.7244 53.2263 23.6526 53.122 23.6033C53.0177 23.554 52.9037 23.5284 52.7883 23.5285H22.5596M28.7955 51.5901C28.7955 52.4511 28.0975 53.1491 27.2365 53.1491C26.3755 53.1491 25.6775 52.4511 25.6775 51.5901C25.6775 50.7291 26.3755 50.0311 27.2365 50.0311C28.0975 50.0311 28.7955 50.7291 28.7955 51.5901ZM50.6213 51.5901C50.6213 52.4511 49.9233 53.1491 49.0623 53.1491C48.2013 53.1491 47.5033 52.4511 47.5033 51.5901C47.5033 50.7291 48.2013 50.0311 49.0623 50.0311C49.9233 50.0311 50.6213 50.7291 50.6213 51.5901Z" stroke="#FF5D22" stroke-width="1.5" stroke-linecap="round" stroke-linejoin="round"/>
<rect x="1.16699" y="0.5" width="71" height="71" rx="3.5" stroke="#FF5D22"/>
</svg>
