<svg width="73" height="72" viewBox="0 0 73 72" fill="none" xmlns="http://www.w3.org/2000/svg">
<rect x="0.833008" y="0.5" width="71" height="71" rx="3.5" fill="#FFF8F6"/>
<path d="M36.3327 43.8586C40.6721 43.8586 44.1899 40.3409 44.1899 36.0016C44.1899 31.6623 40.6721 28.1445 36.3327 28.1445C31.9933 28.1445 28.4756 31.6623 28.4756 36.0016C28.4756 40.3409 31.9933 43.8586 36.3327 43.8586Z" stroke="#FF5D22" stroke-width="1.5" stroke-linecap="round" stroke-linejoin="round"/>
<path d="M58.333 31.2867C56.2492 31.2867 54.2507 30.4589 52.7772 28.9855C51.3037 27.512 50.4759 25.5135 50.4759 23.4297M14.333 31.2867C15.3648 31.2867 16.3865 31.0835 17.3398 30.6887C18.2931 30.2938 19.1592 29.7151 19.8888 28.9855C20.6184 28.2559 21.1972 27.3897 21.5921 26.4365C21.9869 25.4832 22.1901 24.4615 22.1901 23.4297M58.333 40.7152C56.2492 40.7152 54.2507 41.543 52.7772 43.0165C51.3037 44.49 50.4759 46.4884 50.4759 48.5723M14.333 40.7152C15.3648 40.7152 16.3865 40.9184 17.3398 41.3133C18.2931 41.7081 19.1592 42.2869 19.8888 43.0165C20.6184 43.7461 21.1972 44.6122 21.5921 45.5655C21.9869 46.5188 22.1901 47.5405 22.1901 48.5723" stroke="#FF5D22" stroke-width="1.5" stroke-linecap="round" stroke-linejoin="round"/>
<path d="M15.9045 48.5723H56.7616C57.6295 48.5723 58.333 47.8687 58.333 47.0009V25.0011C58.333 24.1332 57.6295 23.4297 56.7616 23.4297H15.9045C15.0366 23.4297 14.333 24.1332 14.333 25.0011V47.0009C14.333 47.8687 15.0366 48.5723 15.9045 48.5723Z" stroke="#FF5D22" stroke-width="1.5" stroke-linejoin="round"/>
<rect x="0.833008" y="0.5" width="71" height="71" rx="3.5" stroke="#FF5D22"/>
</svg>
