<svg width="72" height="72" viewBox="0 0 72 72" fill="none" xmlns="http://www.w3.org/2000/svg">
<rect x="0.5" y="0.5" width="71" height="71" rx="3.5" fill="#FFF8F6"/>
<path d="M42.7692 27.3846C42.4676 31.4515 39.3845 34.7692 35.9999 34.7692C32.6153 34.7692 29.5268 31.4523 29.2307 27.3846C28.923 23.1538 31.923 20 35.9999 20C40.0768 20 43.0768 23.2308 42.7692 27.3846Z" stroke="#FF5D22" stroke-width="1.5" stroke-linecap="round" stroke-linejoin="round"/>
<path d="M35.9999 39.6914C29.3076 39.6914 22.5153 43.3837 21.2583 50.353C21.1068 51.193 21.5822 51.9991 22.4614 51.9991H49.5384C50.4184 51.9991 50.8938 51.193 50.7422 50.353C49.4845 43.3837 42.6922 39.6914 35.9999 39.6914Z" stroke="#FF5D22" stroke-width="1.5" stroke-miterlimit="10"/>
<rect x="0.5" y="0.5" width="71" height="71" rx="3.5" stroke="#FF5D22"/>
</svg>
