<svg width="73" height="72" viewBox="0 0 73 72" fill="none" xmlns="http://www.w3.org/2000/svg">
<rect x="1.16699" y="0.5" width="71" height="71" rx="3.5" fill="#FFF8F6"/>
<path d="M24.2188 32.1981C24.2188 25.3232 29.792 19.75 36.6668 19.75C43.5417 19.75 49.1149 25.3232 49.1149 32.1981V52.25H45.0257C45.0006 52.25 44.9764 52.2404 44.9581 52.2232L42.4581 49.8729C42.1352 49.5692 41.6334 49.5641 41.3042 49.8609L41.8065 50.4179L41.3042 49.8609L38.9252 52.0062L39.4274 52.5632L38.9252 52.0062C38.7511 52.1631 38.5251 52.25 38.2908 52.25H35.0518C34.8155 52.25 34.5878 52.1617 34.4133 52.0025L33.9077 52.5565L34.4133 52.0024L32.0704 49.8646C31.7418 49.5647 31.2377 49.5682 30.9133 49.8727L31.4266 50.4196L30.9133 49.8727L28.6538 51.9934C28.4782 52.1582 28.2464 52.25 28.0055 52.25H24.2188V32.1981Z" stroke="#FF5D22" stroke-width="1.5"/>
<path d="M34.1166 31.7492C34.1166 33.1575 32.9749 34.2992 31.5666 34.2992C30.1583 34.2992 29.0166 33.1575 29.0166 31.7492C29.0166 30.3409 30.1583 29.1992 31.5666 29.1992C32.9749 29.1992 34.1166 30.3409 34.1166 31.7492Z" stroke="#FF5D22" stroke-width="1.5"/>
<path d="M44.3166 31.7492C44.3166 33.1575 43.1749 34.2992 41.7666 34.2992C40.3583 34.2992 39.2166 33.1575 39.2166 31.7492C39.2166 30.3409 40.3583 29.1992 41.7666 29.1992C43.1749 29.1992 44.3166 30.3409 44.3166 31.7492Z" stroke="#FF5D22" stroke-width="1.5"/>
<rect x="1.16699" y="0.5" width="71" height="71" rx="3.5" stroke="#FF5D22"/>
</svg>
