<svg width="72" height="72" viewBox="0 0 72 72" fill="none" xmlns="http://www.w3.org/2000/svg">
<rect x="0.5" y="0.5" width="71" height="71" rx="3.5" fill="#FFF8F6"/>
<path d="M37.9584 30.6631C37.9611 30.6821 37.9587 30.6928 37.9562 30.6999C37.9533 30.7086 37.9466 30.7219 37.9317 30.7374C37.9003 30.7701 37.842 30.8018 37.7646 30.8018H30.3828L23.001 30.8018C22.9236 30.8018 22.8653 30.7701 22.8339 30.7374C22.819 30.7219 22.8123 30.7086 22.8094 30.6999C22.8069 30.6928 22.8045 30.6821 22.8072 30.6631C23.033 29.0248 23.7888 27.4933 24.9749 26.3102C26.4088 24.8798 28.354 24.0758 30.3828 24.0758C32.4116 24.0758 34.3568 24.8798 35.7907 26.3102C36.9768 27.4933 37.7326 29.0248 37.9584 30.6631Z" stroke="#FF5D22" stroke-width="1.8" stroke-linecap="round" stroke-linejoin="round"/>
<path d="M29.6974 53.4538C32.3851 53.4538 35.0465 52.9257 37.5297 51.8996C40.0128 50.8736 42.269 49.3697 44.1695 47.4739C46.07 45.578 47.5776 43.3273 48.6061 40.8502C49.6347 38.3732 50.1641 35.7183 50.1641 33.0371" stroke="#FF5D22" stroke-width="1.8" stroke-linecap="round" stroke-linejoin="round"/>
<path d="M29.6953 18.5449C31.6032 18.5449 33.4924 18.9198 35.2551 19.6481C37.0177 20.3765 38.6193 21.444 39.9684 22.7898C41.3175 24.1356 42.3876 25.7332 43.1177 27.4916C43.8478 29.2499 44.2236 31.1345 44.2236 33.0378C44.2236 34.941 43.8478 36.8256 43.1177 38.5839C42.3876 40.3423 41.3175 41.94 39.9684 43.2857C38.6193 44.6315 37.0177 45.6991 35.2551 46.4274C33.4924 47.1557 31.6032 47.5306 29.6953 47.5306" stroke="#FF5D22" stroke-width="1.8" stroke-linecap="round" stroke-linejoin="round"/>
<rect x="0.5" y="0.5" width="71" height="71" rx="3.5" stroke="#FF5D22"/>
</svg>
