<svg xmlns="http://www.w3.org/2000/svg" width="18" height="17" viewBox="0 0 18 17" fill="none">
<path d="M8.57538 0.843094C8.77102 0.528437 9.22898 0.528436 9.42462 0.843094L11.908 4.83723C11.9768 4.94794 12.0862 5.02739 12.2127 5.05864L16.7788 6.18621C17.1385 6.27504 17.28 6.71058 17.0412 6.99388L14.01 10.59C13.9259 10.6896 13.8842 10.8182 13.8936 10.9482L14.2322 15.6392C14.2588 16.0088 13.8884 16.278 13.5451 16.1384L9.18834 14.3667C9.06758 14.3176 8.93242 14.3176 8.81166 14.3667L4.45488 16.1384C4.11165 16.278 3.74115 16.0088 3.76783 15.6392L4.10644 10.9482C4.11583 10.8182 4.07406 10.6896 3.99004 10.59L0.95879 6.99388C0.719989 6.71058 0.861505 6.27504 1.22122 6.18621L5.78727 5.05864C5.91383 5.02739 6.02318 4.94794 6.09202 4.83723L8.57538 0.843094Z" fill="#FF5D22"/>
</svg>