<?xml version="1.0" encoding="UTF-8" standalone="no"?>
<svg
   width="72"
   height="72"
   viewBox="0 0 72 72"
   fill="none"
   version="1.1"
   id="svg3"
   inkscape:version="1.3.2 (091e20e, 2023-11-25)"
   xmlns:inkscape="http://www.inkscape.org/namespaces/inkscape"
   xmlns:sodipodi="http://sodipodi.sourceforge.net/DTD/sodipodi-0.dtd"
   xmlns="http://www.w3.org/2000/svg"
   xmlns:svg="http://www.w3.org/2000/svg">
  <defs
     id="defs3">
    <linearGradient
       id="swatch10">
      <stop
         style="stop-color:#000000;stop-opacity:1;"
         offset="0"
         id="stop10" />
    </linearGradient>
    <linearGradient
       id="swatch4"
       inkscape:swatch="solid">
      <stop
         style="stop-color:#000000;stop-opacity:1;"
         offset="0"
         id="stop4" />
    </linearGradient>
  </defs>
  <sodipodi:namedview
     id="namedview3"
     pagecolor="#ffffff"
     bordercolor="#000000"
     borderopacity="0.25"
     inkscape:showpageshadow="2"
     inkscape:pageopacity="0.0"
     inkscape:pagecheckerboard="0"
     inkscape:deskcolor="#d1d1d1"
     inkscape:zoom="3.2777778"
     inkscape:cx="35.847458"
     inkscape:cy="34.016949"
     inkscape:window-width="1512"
     inkscape:window-height="916"
     inkscape:window-x="0"
     inkscape:window-y="98"
     inkscape:window-maximized="1"
     inkscape:current-layer="svg3" />
  <rect
     x="0.5"
     y="0.5"
     width="71"
     height="71"
     rx="3.5"
     fill="#FFF8F6"
     id="rect1" />
  <rect
     x="0.5"
     y="0.5"
     width="71"
     height="71"
     rx="3.5"
     stroke="#FF5D22"
     id="rect2" />
  <path
     fill="#141415"
     d="m 35.999979,53.80823 c -0.189451,0 -0.372424,-0.08978 -0.488373,-0.24342 L 27.09101,41.321997 c -2.309722,-3.353073 -3.53155,-7.279369 -3.53155,-11.352755 0,-2.417184 0.829771,-4.787049 2.337508,-6.671838 l 0.362637,-0.457289 c 2.362029,-2.956187 5.887016,-4.651525 9.668506,-4.651525 h 0.14537 c 3.784801,0 7.306562,1.695324 9.663705,4.65313 l 0.365845,0.455684 c 1.507695,1.886394 2.337509,4.256273 2.337509,6.673442 0,4.073372 -1.220194,7.998078 -3.53155,11.35274 l -8.412428,12.224901 c -0.102937,0.155215 -0.282599,0.256432 -0.478628,0.262923 h -0.01952 z m -0.336512,-0.844387 c 0,0 -0.0043,0.0087 -0.0087,0.01157 z m -8.60996,-29.491634 -0.361089,0.457289 c -1.365578,1.708365 -2.116946,3.852838 -2.116946,6.039744 0,3.865893 1.159747,7.59298 3.351887,10.776235 l 8.069352,11.733261 8.074298,-11.733261 c 2.193729,-3.183255 3.351843,-6.910342 3.351843,-10.776235 0,-2.186906 -0.751368,-4.331379 -2.115312,-6.038153 l -0.365947,-0.45729 c -2.164338,-2.714487 -5.396922,-4.270918 -8.869746,-4.270918 h -0.14537 c -3.471103,0 -6.705364,1.556431 -8.87297,4.269328 z"
     fill-rule="evenodd"
     id="path88"
     style="fill:#ff5d22;fill-opacity:1;stroke:#ff5d22;stroke-width:0.6;stroke-linecap:butt;stroke-linejoin:round;stroke-dasharray:none;stroke-opacity:1;paint-order:normal" />
  <path
     fill="#141415"
     d="m 35.999957,35.439998 c -2.905961,0 -5.271186,-2.363316 -5.271186,-5.270448 0,-2.907249 2.365225,-5.270564 5.271186,-5.270564 2.905962,0 5.271273,2.364935 5.271273,5.270564 0,2.905455 -2.363634,5.270448 -5.271273,5.270448 z m 0,-9.525116 c -2.345678,0 -4.25513,1.909294 -4.25513,4.254668 0,2.345244 1.909452,4.254567 4.25513,4.254567 2.345678,0 4.255218,-1.909323 4.255218,-4.254567 0,-2.345374 -1.90954,-4.254668 -4.255218,-4.254668 z"
     fill-rule="evenodd"
     id="path89"
     style="fill:#ff5d22;fill-opacity:1;stroke:#ff5d22;stroke-width:0.6;stroke-dasharray:none;stroke-opacity:1" />
</svg>
