<svg width="24" height="25" viewBox="0 0 24 25" fill="none" xmlns="http://www.w3.org/2000/svg">
<path d="M2.72272 10.3928L6.37251 14.0425" stroke="url(#paint0_linear_1354_46434)" stroke-miterlimit="10" stroke-linecap="round" stroke-linejoin="round"/>
<path d="M8.13297 12.2821L4.48318 8.63239C3.99708 8.14625 3.2089 8.14625 2.72276 8.63239C2.23662 9.11849 2.23662 9.90666 2.72276 10.3928L6.37251 14.0426L3.60297 11.273C3.11683 10.7869 2.32865 10.7869 1.84251 11.273C1.35645 11.7592 1.35645 12.5473 1.84251 13.0335L5.54463 16.7355C6.60634 17.7973 7.85156 18.6413 9.20994 19.2331C11.165 20.0849 13.3413 19.2458 14.8493 17.7378V17.7378C16.3482 16.239 17.0736 14.1335 16.8162 12.0295L16.3439 8.17002C16.3439 7.4826 15.7866 6.92533 15.0992 6.92533C14.4118 6.92533 13.8545 7.4826 13.8545 8.17002V10.962L8.05745 5.16492C7.57131 4.67878 6.78318 4.67878 6.29704 5.16492C5.81089 5.65102 5.81089 6.43923 6.29704 6.92533L9.89343 10.5217L5.41679 6.04513C4.93069 5.55899 4.14251 5.55899 3.65637 6.04513C3.17023 6.53127 3.17023 7.3194 3.65637 7.80554L5.36343 9.5126" stroke="#434344" stroke-linejoin="round"/>
<path d="M5.97926 22.6597C3.2293 22.6597 1.00001 20.4304 1.00001 17.6804" stroke="#434344" stroke-linejoin="round"/>
<path d="M5.97926 20.1701C4.60428 20.1701 3.48964 19.0554 3.48964 17.6804" stroke="#434344" stroke-linejoin="round"/>
<path d="M16.0208 2.65972C18.7707 2.65972 21 4.88902 21 7.63898" stroke="#434344" stroke-linejoin="round"/>
<path d="M16.0207 5.14935C17.3957 5.14935 18.5104 6.264 18.5104 7.63898" stroke="#434344" stroke-linejoin="round"/>
<defs>
<linearGradient id="paint0_linear_1354_46434" x1="7.40306" y1="15.3472" x2="0.897032" y2="13.3921" gradientUnits="userSpaceOnUse">
<stop offset="0.140625" stop-color="#434344"/>
<stop offset="0.635417" stop-color="#535353"/>
<stop offset="0.895833" stop-color="#5B5B5B"/>
</linearGradient>
</defs>
</svg>
