<svg fill="none" xmlns="http://www.w3.org/2000/svg" viewBox="0 0 21 21">
    <path
        d="M10.753.518C5.114.518.542 5.108.542 10.772c0 4.529 2.926 8.371 6.985 9.728.51.095.697-.222.697-.494 0-.244-.009-.888-.014-1.744-2.84.62-3.44-1.374-3.44-1.374-.464-1.185-1.134-1.5-1.134-1.5-.928-.636.07-.623.07-.623 1.024.072 1.563 1.057 1.563 1.057.911 1.566 2.39 1.114 2.973.851.092-.662.356-1.114.649-1.37-2.268-.26-4.652-1.14-4.652-5.068 0-1.12.398-2.035 1.052-2.752-.106-.26-.456-1.302.1-2.713 0 0 .857-.275 2.808 1.051a9.744 9.744 0 0 1 2.557-.345 9.767 9.767 0 0 1 2.557.346c1.949-1.326 2.806-1.05 2.806-1.05.556 1.412.206 2.453.102 2.712.654.718 1.049 1.633 1.049 2.753 0 3.938-2.387 4.805-4.662 5.059.366.316.693.942.693 1.898 0 1.371-.013 2.477-.013 2.812 0 .275.184.594.703.493a10.254 10.254 0 0 0 6.976-9.727c0-5.663-4.573-10.254-10.214-10.254Z"
        fill="#434344" />
</svg>