<svg fill="none" xmlns="http://www.w3.org/2000/svg" viewBox="0 0 22 21">
    <path
        d="M5.717 20.518V7.024H1.232v13.494h4.485ZM3.475 5.181c1.564 0 2.537-1.037 2.537-2.331C5.983 1.525 5.04.518 3.504.518 1.97.518.967 1.526.967 2.85c0 1.294.973 2.33 2.478 2.33h.03Zm4.724 15.337h4.485v-7.536c0-.403.03-.806.148-1.094.324-.806 1.062-1.64 2.301-1.64 1.623 0 2.272 1.237 2.272 3.051v7.219h4.485v-7.737c0-4.145-2.213-6.074-5.163-6.074-2.42 0-3.482 1.353-4.073 2.274h.03V7.024H8.2c.06 1.266 0 13.494 0 13.494Z"
        fill="#434344" />
</svg>