<?xml version="1.0" encoding="UTF-8" standalone="no"?>
<svg
   fill="none"
   viewBox="0 0 30 30"
   version="1.1"
   id="svg2"
   sodipodi:docname="fingerprintLogoLowOpacitySquareBordered.svg"
   width="30"
   height="30"
   inkscape:version="1.3.2 (091e20e, 2023-11-25)"
   xmlns:inkscape="http://www.inkscape.org/namespaces/inkscape"
   xmlns:sodipodi="http://sodipodi.sourceforge.net/DTD/sodipodi-0.dtd"
   xmlns="http://www.w3.org/2000/svg"
   xmlns:svg="http://www.w3.org/2000/svg">
  <defs
     id="defs2" />
  <sodipodi:namedview
     id="namedview2"
     pagecolor="#ffffff"
     bordercolor="#000000"
     borderopacity="0.25"
     inkscape:showpageshadow="2"
     inkscape:pageopacity="0.0"
     inkscape:pagecheckerboard="0"
     inkscape:deskcolor="#d1d1d1"
     inkscape:zoom="4.8023256"
     inkscape:cx="74.755448"
     inkscape:cy="6.3510896"
     inkscape:window-width="1512"
     inkscape:window-height="916"
     inkscape:window-x="0"
     inkscape:window-y="98"
     inkscape:window-maximized="1"
     inkscape:current-layer="svg2" />
  <path
     fill-rule="evenodd"
     clip-rule="evenodd"
     d="m 8.5410858,6.5795099 a 14.290197,14.290197 0 0 1 12.7614792,0 0.66466035,0.66466035 0 0 1 -0.598194,1.129923 12.960877,12.960877 0 0 0 -11.5650912,0 0.66466035,0.66466035 0 0 1 -0.598194,-1.129923 z m 1.129923,1.993981 a 13.160275,13.160275 0 0 1 10.5016332,0 c 1.728117,0.797593 3.19037,1.9939801 4.18736,3.3233011 a 0.66466035,0.66466035 0 0 1 -1.063456,0.797592 9.4381769,9.4381769 0 0 0 -3.655632,-2.9909701 11.631556,11.631556 0 0 0 -9.371711,0 C 8.7404838,10.368073 7.4111628,11.564462 6.6135708,12.694384 a 0.66466035,0.66466035 0 0 1 -1.063457,-0.731126 c 0.930525,-1.329321 2.459244,-2.6586401 4.120895,-3.3897671 z m 5.1843502,1.129923 c 3.323302,0 6.247808,1.6616501 7.71006,4.1208941 0.797593,1.32932 1.063457,2.658641 1.063457,3.722098 0,1.861049 -1.728117,3.057437 -3.323302,3.057437 -0.731126,0 -1.528718,-0.199398 -2.193379,-0.66466 -0.66466,-0.531728 -1.129922,-1.329321 -1.129922,-2.392777 0,-0.598195 -0.332331,-0.996991 -0.664661,-1.329321 -0.465262,-0.265864 -0.996991,-0.398796 -1.462253,-0.398796 -1.196389,0 -1.993981,0.864058 -1.993981,1.728117 0,0.66466 0.199398,1.661651 0.465262,2.326311 0.33233,0.66466 0.864059,1.462253 1.329321,1.927515 0.864059,0.797592 1.993981,1.528719 3.456234,1.861049 a 0.66466035,0.66466035 0 0 1 -0.265864,1.262855 8.3747204,8.3747204 0 0 1 -5.649613,-4.519691 c -0.398797,-0.797592 -0.664661,-1.993981 -0.664661,-2.858039 0,-1.661651 1.595185,-2.990972 3.323302,-2.990972 0.664661,0 1.462253,0.199399 2.126914,0.66466 0.66466,0.465263 1.196388,1.262855 1.262854,2.326312 0,0.66466 0.265864,1.063456 0.664661,1.32932 0.33233,0.265865 0.864058,0.465263 1.462252,0.465263 0.996991,0 1.993981,-0.797593 1.993981,-1.794583 0,-0.864059 -0.265864,-1.993981 -0.930524,-3.057438 a 7.577128,7.577128 0 0 0 -6.580138,-3.456234 c -2.459243,0 -5.1178842,1.196388 -6.5136712,3.456234 a 5.9819431,5.9819431 0 0 0 -0.797593,3.256836 c 0,1.595185 0.265865,2.259845 0.664661,3.323302 a 0.66466035,0.66466035 0 1 1 -1.196389,0.531728 c -0.465262,-1.196389 -0.66466,-1.993981 -0.797592,-3.85503 a 7.2447978,7.2447978 0 0 1 1.063456,-3.921496 C 8.8734158,11.0992 11.99732,9.7698799 14.855359,9.7034139 Z M 8.8734158,17.413474 c 0,-2.924506 2.9245052,-5.317284 5.9819432,-5.317284 3.123904,0 6.114876,2.126914 6.114876,5.516682 a 0.6646605,0.6646605 0 1 1 -1.329321,0 c 0,-2.459244 -2.193379,-4.18736 -4.785555,-4.18736 -2.525709,0 -4.652622,1.927515 -4.652622,3.987962 0,1.196388 0.132932,2.326311 0.797592,3.522699 a 8.7735166,8.7735166 0 0 0 1.993981,2.658642 0.66466035,0.66466035 0 1 1 -0.797592,0.99699 10.102837,10.102837 0 0 1 -2.3927772,-3.057437 C 9.1392798,20.138581 8.8734158,18.80926 8.9398818,17.413474 Z m 5.9819432,-0.531729 c 0.398796,0 0.664661,0.332331 0.664661,0.664661 a 3.9214961,3.9214961 0 0 0 1.993981,3.389767 c 0.930524,0.531729 1.528719,0.664661 2.459243,0.664661 a 7.8429921,7.8429921 0 0 0 1.196389,-0.06647 0.66466035,0.66466035 0 1 1 0.199398,1.262854 l -1.329321,0.132933 c -1.196388,0 -2.060447,-0.265865 -3.19037,-0.864059 a 5.1843507,5.1843507 0 0 1 -2.658641,-4.51969 c 0,-0.33233 0.33233,-0.664661 0.66466,-0.664661 z"
     fill="#f04405"
     id="path1"
     style="stroke-width:0.66466;opacity:0.51598174" />
</svg>
