<svg width="17" height="22" viewBox="0 0 17 22" fill="none" xmlns="http://www.w3.org/2000/svg">
<g id="Group 2608384">
<path id="Vector" d="M5.62998 18.0366C5.62998 16.4981 4.96368 15.0347 3.80295 14.0248C2.19557 12.6837 1.18555 10.6626 1.18555 8.40737C1.18555 4.31926 4.50481 1 8.59292 1C12.6811 1 16.0003 4.31926 16.0003 8.40737C16.0003 10.6626 14.9903 12.6836 13.3984 14.0425C12.2432 15.0485 11.5328 16.5048 11.5328 18.0366" stroke="#FF5D22" stroke-miterlimit="10" stroke-linecap="round" stroke-linejoin="round"/>
<path id="Vector_2" d="M11.5568 18.0371H5.63086V19.5186C5.63086 20.3367 6.29421 21.0001 7.11235 21.0001C8.01716 21.0001 9.17049 21.0001 10.0753 21.0001C10.8934 21.0001 11.5568 20.3368 11.5568 19.5186C11.5568 18.7778 11.5568 18.0371 11.5568 18.0371Z" stroke="#FF5D22" stroke-miterlimit="10" stroke-linecap="round" stroke-linejoin="round"/>
<path id="Vector_3" d="M4.14648 8.40732C4.14648 5.95436 6.13795 3.96289 8.59092 3.96289" stroke="#FF5D22" stroke-miterlimit="10" stroke-linecap="round" stroke-linejoin="round"/>
</g>
</svg>
