<svg xmlns="http://www.w3.org/2000/svg" width="21" height="21" viewBox="0 0 21 21" fill="none">
  <path d="M10.5767 14.8907C10.5767 14.2177 10.8651 14.1215 11.5382 14.5061C12.692 15.1792 13.8458 15.7561 13.8458 15.7561C13.8458 15.3715 14.2304 15.083 14.9035 15.2753C15.5765 15.4676 16.2496 15.5638 16.2496 15.5638C16.2496 15.5638 15.865 14.6984 15.6727 14.3138C15.3842 13.6407 15.6727 13.2561 15.9612 13.16C15.9612 13.16 15.5765 12.8715 15.2881 12.6792C14.7112 12.2946 14.8073 11.8139 15.3842 11.6215C16.1535 11.2369 17.2111 10.8523 17.2111 10.8523C16.9227 10.66 16.5381 10.1793 16.9227 9.50619C17.3073 8.92927 17.9803 8.0639 17.9803 8.0639C17.9803 8.0639 16.9227 8.0639 16.1535 8.0639C15.4804 8.0639 15.2881 7.48699 15.2881 7.10238C15.2881 7.10238 14.2304 7.8716 13.4612 8.35236C12.7882 8.83312 12.2112 8.35236 12.3074 7.58314C12.4997 6.42931 12.5958 5.08317 12.5958 5.08317C12.2112 5.46778 11.5382 5.37163 11.1536 4.79472C10.6728 3.83319 10.1921 2.67936 10.1921 2.67936C10.1921 2.67936 9.7113 3.83319 9.23055 4.79472C8.94209 5.37163 8.26903 5.46778 7.88442 5.17933C7.88442 5.17933 7.98058 6.52546 8.17288 7.67929C8.26903 8.35236 7.69212 8.83312 7.01906 8.35236C6.24985 7.8716 5.09603 7.10238 5.09603 7.10238C5.09603 7.48699 4.90373 7.96775 4.23067 8.0639C3.46145 8.0639 2.40379 8.0639 2.40379 8.0639C2.40379 8.0639 3.07685 8.92927 3.46145 9.50619C3.84606 10.0831 3.46145 10.66 3.173 10.8523C3.173 10.8523 4.13452 11.3331 4.99988 11.6215C5.57679 11.91 5.76909 12.2946 5.09603 12.6792C4.90373 12.8715 4.42297 13.16 4.42297 13.16C4.80758 13.2561 5.09603 13.6407 4.80758 14.3138C4.61527 14.6984 4.23067 15.5638 4.23067 15.5638C4.23067 15.5638 4.90373 15.3715 5.57679 15.2753C6.24985 15.083 6.5383 15.4676 6.63445 15.7561C6.63445 15.7561 7.78827 15.083 8.94209 14.5061C9.519 14.1215 9.90361 14.3138 9.90361 14.8907V16.5253C9.90361 17.4869 9.7113 18.4484 9.42285 19.0253C5.09603 18.5445 1.44227 15.083 1.44227 10.4677C1.44227 5.75624 5.38448 1.91014 10.2882 1.91014C15.1919 1.91014 19.1342 5.75624 19.1342 10.4677C19.1342 14.8907 15.6727 18.5445 11.2497 19.0253V20.1791C16.4419 19.6984 20.4803 15.5638 20.4803 10.4677C20.4803 4.98702 15.865 0.660156 10.1921 0.660156C4.61527 0.660156 0 4.98702 0 10.3716C0 15.083 3.55761 19.0253 8.26903 19.8907C9.03824 20.083 9.519 20.1791 9.99976 20.6599C10.4805 19.6984 10.5767 17.7753 10.5767 16.7176V14.8907Z" fill="#F01428"/>
</svg>