<svg width="32" height="33" viewBox="0 0 32 33" fill="none" xmlns="http://www.w3.org/2000/svg">
<path fill-rule="evenodd" clip-rule="evenodd" d="M4.29285 16.4756C4.02797 16.5792 3.91945 16.8958 4.06513 17.14L5.81319 20.0709C6.06359 20.4908 6.58081 20.668 7.0361 20.4901L23.9381 13.8831C24.7279 13.5744 25.1179 12.6839 24.8092 11.8941C24.4883 11.0732 23.5436 10.6903 22.7417 11.0563L17.7432 13.3374L10.773 6.93141C10.4838 6.66562 10.0685 6.58776 9.70266 6.73076C9.08963 6.97039 8.85636 7.7162 9.22358 8.26243L13.6983 14.9185L6.85554 18.0173L4.72413 16.5271C4.59802 16.4389 4.43618 16.4196 4.29285 16.4756ZM25.6776 23.6122H5.14764V25.1915H25.6776V23.6122Z" fill="#141415"/>
</svg>
