<svg width="125" height="38" viewBox="0 0 125 38" fill="none" xmlns="http://www.w3.org/2000/svg">
<rect x="0.876953" width="123.878" height="38" rx="6" fill="black"/>
<path d="M28.2646 19.042C28.2758 18.1741 28.5063 17.323 28.9348 16.5681C29.3633 15.8132 29.9757 15.1789 30.7152 14.7243C30.2454 14.0534 29.6257 13.5013 28.9052 13.1118C28.1848 12.7223 27.3834 12.5062 26.5648 12.4806C24.8186 12.2973 23.1257 13.5255 22.2358 13.5255C21.3287 13.5255 19.9587 12.4988 18.4833 12.5291C17.529 12.5599 16.599 12.8374 15.7839 13.3346C14.9687 13.8317 14.2962 14.5315 13.832 15.3658C11.8209 18.8478 13.321 23.9652 15.2475 26.7798C16.2114 28.158 17.3378 29.6976 18.8119 29.643C20.2543 29.5831 20.793 28.7232 22.534 28.7232C24.259 28.7232 24.7644 29.643 26.2683 29.6083C27.8161 29.5831 28.7912 28.2239 29.7213 26.8326C30.4139 25.8506 30.9468 24.7652 31.3003 23.6167C30.4011 23.2364 29.6337 22.5998 29.0939 21.7863C28.5541 20.9728 28.2657 20.0184 28.2646 19.042Z" fill="white"/>
<path d="M25.4249 10.6299C26.2688 9.61682 26.6846 8.31468 26.5839 7C25.2946 7.13541 24.1037 7.75161 23.2483 8.72582C22.8302 9.20174 22.5099 9.75542 22.3058 10.3552C22.1017 10.955 22.0179 11.5891 22.059 12.2213C22.7039 12.228 23.3419 12.0882 23.9249 11.8125C24.5079 11.5369 25.0208 11.1325 25.4249 10.6299Z" fill="white"/>
<path d="M45.5703 26.293H40.8369L39.7002 29.6494H37.6953L42.1787 17.2314H44.2617L48.7451 29.6494H46.7061L45.5703 26.293ZM41.3272 24.7442H45.0792L43.2295 19.2969H43.1777L41.3272 24.7442Z" fill="white"/>
<path d="M58.4268 25.1228C58.4268 27.9363 56.9209 29.7439 54.6485 29.7439C54.0728 29.774 53.5003 29.6414 52.9965 29.3612C52.4927 29.0811 52.078 28.6647 51.7998 28.1599H51.7568V32.6442H49.8984V20.5954H51.6973V22.1013H51.7314C52.0224 21.5988 52.4441 21.1846 52.9518 20.9028C53.4594 20.6209 54.0339 20.482 54.6143 20.5007C56.9121 20.5007 58.4268 22.3171 58.4268 25.1228ZM56.5166 25.1228C56.5166 23.2898 55.5694 22.0847 54.124 22.0847C52.7041 22.0847 51.749 23.3152 51.749 25.1228C51.749 26.947 52.7041 28.1687 54.124 28.1687C55.5694 28.1687 56.5166 26.9724 56.5166 25.1228Z" fill="white"/>
<path d="M68.3921 25.1228C68.3921 27.9363 66.8858 29.7439 64.6133 29.7439C64.0377 29.774 63.4652 29.6414 62.9614 29.3612C62.4576 29.0811 62.0428 28.6647 61.7647 28.1599H61.7217V32.6442H59.8633V20.5954H61.6621V22.1013H61.6963C61.9872 21.5988 62.409 21.1846 62.9166 20.9028C63.4242 20.6209 63.9988 20.482 64.5791 20.5007C66.877 20.5007 68.3921 22.3171 68.3921 25.1228ZM66.4815 25.1228C66.4815 23.2898 65.5342 22.0847 64.0889 22.0847C62.669 22.0847 61.7139 23.3152 61.7139 25.1228C61.7139 26.947 62.669 28.1687 64.0889 28.1687C65.5342 28.1687 66.4815 26.9724 66.4815 25.1228Z" fill="white"/>
<path d="M74.9786 26.1895C75.1163 27.421 76.3126 28.2295 77.9473 28.2295C79.5137 28.2295 80.6407 27.4209 80.6407 26.3106C80.6407 25.3467 79.961 24.7696 78.3516 24.374L76.7422 23.9863C74.462 23.4356 73.4034 22.3691 73.4034 20.6387C73.4034 18.4961 75.2706 17.0244 77.921 17.0244C80.546 17.0244 82.3448 18.4961 82.4053 20.6387H80.5293C80.417 19.3994 79.3926 18.6514 77.8955 18.6514C76.3985 18.6514 75.3741 19.4082 75.3741 20.5098C75.3741 21.3877 76.0284 21.9043 77.6289 22.2998L78.9971 22.6357C81.545 23.2383 82.6026 24.2617 82.6026 26.0781C82.6026 28.4013 80.753 29.8564 77.8096 29.8564C75.0557 29.8564 73.1963 28.4355 73.0762 26.1894L74.9786 26.1895Z" fill="white"/>
<path d="M86.6152 18.4531V20.5957H88.3369V22.0674H86.6152V27.0586C86.6152 27.834 86.96 28.1953 87.7168 28.1953C87.9212 28.1918 88.1252 28.1774 88.3281 28.1523V29.6152C87.9878 29.6788 87.642 29.7076 87.2959 29.7011C85.4629 29.7011 84.748 29.0127 84.748 27.2568V22.0674H83.4316V20.5957H84.748V18.4531H86.6152Z" fill="white"/>
<path d="M89.332 25.123C89.332 22.2744 91.0098 20.4844 93.626 20.4844C96.251 20.4844 97.9209 22.2744 97.9209 25.123C97.9209 27.9795 96.2598 29.7617 93.626 29.7617C90.9931 29.7617 89.332 27.9795 89.332 25.123ZM96.0273 25.123C96.0273 23.1689 95.1318 22.0156 93.626 22.0156C92.1201 22.0156 91.2246 23.1777 91.2246 25.123C91.2246 27.085 92.1201 28.2295 93.626 28.2295C95.1318 28.2295 96.0273 27.085 96.0273 25.123Z" fill="white"/>
<path d="M99.4531 20.5953H101.226V22.1363H101.269C101.389 21.6551 101.67 21.2297 102.067 20.9318C102.464 20.6339 102.951 20.4817 103.446 20.5006C103.66 20.4998 103.874 20.5231 104.083 20.5699V22.3082C103.813 22.2256 103.531 22.1877 103.248 22.1959C102.978 22.185 102.709 22.2326 102.459 22.3355C102.209 22.4383 101.985 22.5941 101.801 22.792C101.617 22.9899 101.478 23.2252 101.393 23.4819C101.309 23.7386 101.281 24.0105 101.312 24.2789V29.649H99.4531L99.4531 20.5953Z" fill="white"/>
<path d="M112.651 26.9902C112.401 28.6338 110.801 29.7617 108.753 29.7617C106.119 29.7617 104.484 27.9971 104.484 25.166C104.484 22.3262 106.128 20.4844 108.675 20.4844C111.18 20.4844 112.755 22.2051 112.755 24.9502V25.5869H106.36V25.6992C106.331 26.0324 106.373 26.3681 106.483 26.6839C106.593 26.9998 106.769 27.2885 106.999 27.5311C107.23 27.7736 107.509 27.9644 107.819 28.0907C108.129 28.217 108.462 28.276 108.796 28.2637C109.235 28.3048 109.676 28.2031 110.052 27.9737C110.429 27.7442 110.722 27.3993 110.887 26.9902L112.651 26.9902ZM106.369 24.2881H110.896C110.912 23.9885 110.867 23.6887 110.762 23.4075C110.657 23.1263 110.496 22.8697 110.287 22.654C110.079 22.4382 109.828 22.2679 109.55 22.1536C109.273 22.0394 108.975 21.9838 108.675 21.9902C108.372 21.9884 108.072 22.0466 107.792 22.1613C107.512 22.2761 107.258 22.4451 107.043 22.6588C106.829 22.8724 106.659 23.1264 106.543 23.406C106.428 23.6857 106.368 23.9854 106.369 24.2881Z" fill="white"/>
<path d="M41.0947 7.88372C41.4843 7.85576 41.8753 7.91462 42.2394 8.05606C42.6035 8.19749 42.9317 8.41797 43.2003 8.7016C43.4689 8.98522 43.6712 9.32492 43.7926 9.69619C43.914 10.0675 43.9515 10.461 43.9023 10.8486C43.9023 12.7548 42.8721 13.8506 41.0947 13.8506H38.9395V7.88372H41.0947ZM39.8662 13.0067H40.9912C41.2696 13.0234 41.5482 12.9777 41.8068 12.8731C42.0653 12.7685 42.2973 12.6075 42.4858 12.402C42.6742 12.1964 42.8145 11.9514 42.8964 11.6848C42.9783 11.4182 42.9996 11.1366 42.959 10.8607C42.9967 10.5859 42.9731 10.3061 42.89 10.0415C42.8069 9.77679 42.6663 9.53379 42.4782 9.32986C42.2901 9.12593 42.0593 8.96612 41.8022 8.86188C41.5451 8.75765 41.2682 8.71156 40.9912 8.72693H39.8662V13.0067Z" fill="white"/>
<path d="M44.9495 11.5971C44.9212 11.3012 44.955 11.0026 45.0489 10.7206C45.1427 10.4385 45.2945 10.1792 45.4944 9.95917C45.6944 9.73919 45.9381 9.56342 46.2099 9.44315C46.4818 9.32287 46.7758 9.26074 47.073 9.26074C47.3703 9.26074 47.6643 9.32287 47.9361 9.44315C48.208 9.56342 48.4517 9.73919 48.6516 9.95917C48.8516 10.1792 49.0033 10.4385 49.0972 10.7206C49.191 11.0026 49.2249 11.3012 49.1966 11.5971C49.2254 11.8933 49.192 12.1923 49.0984 12.4748C49.0048 12.7574 48.8531 13.0172 48.6531 13.2376C48.4531 13.458 48.2092 13.6342 47.9371 13.7547C47.665 13.8752 47.3707 13.9375 47.073 13.9375C46.7754 13.9375 46.4811 13.8752 46.209 13.7547C45.9368 13.6342 45.6929 13.458 45.4929 13.2376C45.293 13.0172 45.1413 12.7574 45.0477 12.4748C44.9541 12.1923 44.9207 11.8933 44.9495 11.5971ZM48.2825 11.5971C48.2825 10.6211 47.844 10.0503 47.0745 10.0503C46.302 10.0503 45.8675 10.6211 45.8675 11.5971C45.8675 12.581 46.3021 13.1474 47.0745 13.1474C47.844 13.1474 48.2825 12.5771 48.2825 11.5971Z" fill="white"/>
<path d="M54.8418 13.8506H53.9199L52.9893 10.5342H52.919L51.9922 13.8506H51.0791L49.8379 9.34766H50.7393L51.5459 12.7837H51.6123L52.5381 9.34766H53.3906L54.3164 12.7837H54.3867L55.1895 9.34766H56.0781L54.8418 13.8506Z" fill="white"/>
<path d="M57.1211 9.34721H57.9766V10.0625H58.043C58.1556 9.80562 58.3456 9.59025 58.5865 9.44644C58.8274 9.30264 59.1071 9.23756 59.3867 9.26029C59.6058 9.24382 59.8258 9.27685 60.0304 9.35695C60.235 9.43705 60.419 9.56215 60.5687 9.72299C60.7183 9.88384 60.8299 10.0763 60.8951 10.2861C60.9603 10.4959 60.9775 10.7177 60.9453 10.9351V13.8501H60.0566V11.1583C60.0566 10.4346 59.7422 10.0748 59.085 10.0748C58.9362 10.0678 58.7877 10.0931 58.6497 10.149C58.5116 10.2048 58.3872 10.2898 58.2851 10.3982C58.183 10.5066 58.1055 10.6358 58.058 10.7769C58.0105 10.918 57.994 11.0678 58.0098 11.2159V13.8501H57.1211L57.1211 9.34721Z" fill="white"/>
<path d="M62.3613 7.58984H63.25V13.8506H62.3613V7.58984Z" fill="white"/>
<path d="M64.4866 11.5972C64.4583 11.3013 64.4922 11.0027 64.586 10.7206C64.6799 10.4385 64.8317 10.1792 65.0316 9.95918C65.2316 9.7392 65.4753 9.56343 65.7472 9.44315C66.0191 9.32287 66.3131 9.26074 66.6104 9.26074C66.9077 9.26074 67.2017 9.32287 67.4735 9.44315C67.7454 9.56343 67.9891 9.7392 68.1891 9.95918C68.3891 10.1792 68.5408 10.4385 68.6347 10.7206C68.7286 11.0027 68.7624 11.3013 68.7341 11.5972C68.763 11.8934 68.7295 12.1924 68.6359 12.4749C68.5422 12.7575 68.3905 13.0173 68.1905 13.2377C67.9905 13.4581 67.7466 13.6342 67.4745 13.7548C67.2023 13.8753 66.908 13.9375 66.6104 13.9375C66.3127 13.9375 66.0184 13.8753 65.7463 13.7548C65.4741 13.6342 65.2302 13.4581 65.0302 13.2377C64.8302 13.0173 64.6785 12.7575 64.5849 12.4749C64.4913 12.1924 64.4578 11.8934 64.4866 11.5972ZM67.8196 11.5972C67.8196 10.6211 67.3811 10.0503 66.6116 10.0503C65.8391 10.0503 65.4046 10.6211 65.4046 11.5972C65.4046 12.5811 65.8392 13.1475 66.6116 13.1475C67.3811 13.1475 67.8196 12.5772 67.8196 11.5972Z" fill="white"/>
<path d="M69.6699 12.5771C69.6699 11.7666 70.2734 11.2993 71.3447 11.2329L72.5645 11.1626V10.7739C72.5645 10.2983 72.25 10.0298 71.6426 10.0298C71.1465 10.0298 70.8027 10.2119 70.7041 10.5303H69.8438C69.9346 9.75683 70.6621 9.26074 71.6836 9.26074C72.8125 9.26074 73.4492 9.82274 73.4492 10.7739V13.8506H72.5938V13.2178H72.5234C72.3807 13.4448 72.1803 13.6298 71.9427 13.754C71.7051 13.8782 71.4387 13.9372 71.1709 13.9248C70.9819 13.9444 70.7908 13.9243 70.61 13.8656C70.4293 13.8069 70.2628 13.7109 70.1214 13.584C69.98 13.457 69.8668 13.3018 69.789 13.1284C69.7112 12.955 69.6707 12.7672 69.6699 12.5771ZM72.5645 12.1924V11.8159L71.4648 11.8862C70.8447 11.9277 70.5635 12.1387 70.5635 12.5356C70.5635 12.9409 70.915 13.1767 71.3985 13.1767C71.5401 13.1911 71.6832 13.1768 71.8192 13.1347C71.9552 13.0926 72.0814 13.0236 72.1901 12.9317C72.2989 12.8399 72.3881 12.7271 72.4524 12.6001C72.5167 12.4731 72.5548 12.3344 72.5645 12.1924Z" fill="white"/>
<path d="M74.6172 11.5972C74.6172 10.1743 75.3486 9.27296 76.4863 9.27296C76.7677 9.26 77.047 9.3274 77.2916 9.46729C77.5361 9.60719 77.7357 9.8138 77.8672 10.063H77.9336V7.58984H78.8223V13.8506H77.9707V13.1392H77.9004C77.7588 13.3866 77.5522 13.5907 77.3029 13.7292C77.0537 13.8676 76.7713 13.9353 76.4863 13.9248C75.3408 13.9248 74.6172 13.0235 74.6172 11.5972ZM75.5352 11.5972C75.5352 12.5523 75.9854 13.127 76.7383 13.127C77.4873 13.127 77.9502 12.544 77.9502 11.6011C77.9502 10.6626 77.4825 10.0713 76.7383 10.0713C75.9902 10.0713 75.5352 10.6499 75.5352 11.5972Z" fill="white"/>
<path d="M82.4983 11.5971C82.47 11.3012 82.5039 11.0026 82.5977 10.7206C82.6915 10.4385 82.8433 10.1792 83.0432 9.95917C83.2432 9.73919 83.4869 9.56342 83.7587 9.44315C84.0306 9.32287 84.3246 9.26074 84.6219 9.26074C84.9191 9.26074 85.2131 9.32287 85.485 9.44315C85.7568 9.56342 86.0005 9.73919 86.2005 9.95917C86.4004 10.1792 86.5522 10.4385 86.646 10.7206C86.7398 11.0026 86.7737 11.3012 86.7454 11.5971C86.7742 11.8933 86.7408 12.1923 86.6472 12.4748C86.5536 12.7574 86.4019 13.0172 86.2019 13.2376C86.002 13.458 85.7581 13.6342 85.4859 13.7547C85.2138 13.8752 84.9195 13.9375 84.6219 13.9375C84.3242 13.9375 84.0299 13.8752 83.7578 13.7547C83.4857 13.6342 83.2418 13.458 83.0418 13.2376C82.8418 13.0172 82.6901 12.7574 82.5965 12.4748C82.5029 12.1923 82.4695 11.8933 82.4983 11.5971ZM85.8313 11.5971C85.8313 10.6211 85.3928 10.0503 84.6233 10.0503C83.8509 10.0503 83.4163 10.6211 83.4163 11.5971C83.4163 12.581 83.8509 13.1474 84.6233 13.1474C85.3929 13.1474 85.8313 12.5771 85.8313 11.5971Z" fill="white"/>
<path d="M87.9375 9.34721H88.793V10.0625H88.8594C88.972 9.80562 89.162 9.59025 89.4029 9.44644C89.6438 9.30264 89.9235 9.23756 90.2031 9.26029C90.4222 9.24382 90.6422 9.27685 90.8468 9.35695C91.0514 9.43705 91.2354 9.56215 91.3851 9.72299C91.5347 9.88384 91.6463 10.0763 91.7115 10.2861C91.7767 10.4959 91.7939 10.7177 91.7617 10.9351V13.8501H90.8731V11.1583C90.8731 10.4346 90.5586 10.0748 89.9014 10.0748C89.7526 10.0678 89.6041 10.0931 89.4661 10.149C89.328 10.2048 89.2036 10.2898 89.1015 10.3982C88.9994 10.5066 88.9219 10.6358 88.8744 10.7769C88.8269 10.918 88.8104 11.0678 88.8262 11.2159V13.8501H87.9375V9.34721Z" fill="white"/>
<path d="M96.7842 8.22656V9.36816H97.7598V10.1167H96.7842V12.4321C96.7842 12.9038 96.9785 13.1104 97.4209 13.1104C97.5342 13.11 97.6473 13.1031 97.7598 13.0898V13.8301C97.6002 13.8586 97.4385 13.8738 97.2764 13.8755C96.2881 13.8755 95.8945 13.5278 95.8945 12.6597V10.1167H95.1797V9.36812H95.8945V8.22656H96.7842Z" fill="white"/>
<path d="M98.9727 7.58984H99.8535V10.0713H99.9238C100.042 9.81197 100.237 9.59538 100.483 9.45103C100.729 9.30669 101.013 9.2416 101.297 9.26465C101.515 9.25279 101.733 9.28918 101.935 9.37122C102.137 9.45327 102.319 9.57894 102.467 9.73928C102.615 9.89961 102.726 10.0907 102.792 10.2988C102.858 10.5069 102.877 10.727 102.848 10.9434V13.8506H101.958V11.1626C101.958 10.4434 101.623 10.0791 100.995 10.0791C100.842 10.0666 100.689 10.0876 100.545 10.1406C100.401 10.1937 100.271 10.2775 100.163 10.3862C100.055 10.495 99.9719 10.626 99.9198 10.7701C99.8677 10.9143 99.8478 11.068 99.8614 11.2207V13.8506H98.9727L98.9727 7.58984Z" fill="white"/>
<path d="M108.029 12.6348C107.908 13.0464 107.647 13.4024 107.29 13.6405C106.933 13.8787 106.504 13.9838 106.078 13.9376C105.781 13.9454 105.486 13.8886 105.214 13.771C104.941 13.6535 104.698 13.4781 104.5 13.257C104.302 13.0358 104.154 12.7743 104.068 12.4904C103.981 12.2066 103.957 11.9073 103.998 11.6134C103.958 11.3185 103.983 11.0185 104.069 10.7339C104.155 10.4492 104.302 10.1864 104.499 9.96335C104.696 9.74028 104.938 9.56211 105.21 9.4409C105.482 9.31969 105.776 9.25828 106.074 9.26082C107.327 9.26082 108.083 10.1168 108.083 11.5308V11.8409H104.903V11.8907C104.889 12.056 104.91 12.2223 104.964 12.379C105.018 12.5358 105.104 12.6795 105.217 12.8009C105.33 12.9224 105.467 13.0189 105.62 13.0843C105.772 13.1497 105.936 13.1825 106.102 13.1807C106.315 13.2062 106.53 13.1679 106.721 13.0707C106.912 12.9735 107.069 12.8218 107.173 12.6348L108.029 12.6348ZM104.903 11.1837H107.177C107.189 11.0325 107.168 10.8807 107.117 10.738C107.066 10.5953 106.986 10.4648 106.881 10.355C106.777 10.2451 106.651 10.1583 106.511 10.1001C106.371 10.042 106.22 10.0137 106.069 10.0172C105.915 10.0152 105.763 10.0441 105.62 10.102C105.478 10.16 105.349 10.2458 105.24 10.3546C105.131 10.4633 105.046 10.5926 104.988 10.735C104.93 10.8774 104.901 11.03 104.903 11.1837Z" fill="white"/>
</svg>
