<svg width="132" height="38" viewBox="0 0 132 38" fill="none" xmlns="http://www.w3.org/2000/svg">
<rect x="0.908203" width="130.97" height="38" rx="6" fill="black"/>
<path d="M47.4884 10.2018C47.4884 10.9998 47.2576 11.6364 46.796 12.1019C46.2791 12.6625 45.5959 12.9475 44.7651 12.9475C43.9342 12.9475 43.288 12.6625 42.7249 12.0924C42.1617 11.5224 41.8848 10.8098 41.8848 9.97376C41.8848 9.13768 42.1617 8.42512 42.7249 7.85507C43.288 7.28502 43.9619 7 44.7651 7C45.162 7 45.5405 7.07601 45.9006 7.23752C46.2606 7.39903 46.5468 7.60805 46.7683 7.87408L46.2791 8.37762C45.9098 7.93108 45.4113 7.70306 44.7651 7.70306C44.1835 7.70306 43.6757 7.91208 43.2511 8.33962C42.8264 8.75765 42.6141 9.3087 42.6141 9.98326C42.6141 10.6578 42.8264 11.2089 43.2511 11.6269C43.6757 12.0449 44.1835 12.2635 44.7651 12.2635C45.3836 12.2635 45.9006 12.0544 46.316 11.6269C46.5837 11.3514 46.7407 10.9618 46.7776 10.4678H44.7651V9.78374H47.4515C47.4792 9.93575 47.4884 10.0783 47.4884 10.2113V10.2018Z" fill="white"/>
<path d="M51.7409 7.82708H49.2206V9.63224H51.4916V10.3163H49.2206V12.1215H51.7409V12.8245H48.5098V7.12402H51.7409V7.82708Z" fill="white"/>
<path d="M54.7403 12.8245H54.0294V7.82708H52.4785V7.12402H56.282V7.82708H54.731V12.8245H54.7403Z" fill="white"/>
<path d="M59.0488 12.8245V7.12402H59.7597V12.8245H59.0488Z" fill="white"/>
<path d="M62.9122 12.8245H62.2013V7.82708H60.6504V7.12402H64.4539V7.82708H62.9029V12.8245H62.9122Z" fill="white"/>
<path d="M71.6654 12.0829C71.1207 12.6625 70.4468 12.9475 69.6344 12.9475C68.822 12.9475 68.1481 12.6625 67.6034 12.0829C67.0587 11.5034 66.791 10.8003 66.791 9.97376C66.791 9.14719 67.0587 8.43462 67.6034 7.86457C68.1481 7.28502 68.822 7 69.6344 7C70.4468 7 71.1115 7.28502 71.6654 7.86457C72.21 8.44413 72.487 9.14719 72.487 9.97376C72.487 10.8003 72.21 11.5129 71.6746 12.0829H71.6654ZM68.1296 11.6079C68.5358 12.0354 69.0436 12.2445 69.6344 12.2445C70.2252 12.2445 70.733 12.0354 71.1392 11.6079C71.5453 11.1804 71.7577 10.6388 71.7577 9.97376C71.7577 9.3087 71.5546 8.76715 71.1392 8.33962C70.733 7.91208 70.2252 7.70306 69.6344 7.70306C69.0436 7.70306 68.5358 7.91208 68.1296 8.33962C67.7234 8.76715 67.5111 9.3087 67.5111 9.97376C67.5111 10.6388 67.7142 11.1804 68.1296 11.6079Z" fill="white"/>
<path d="M73.4863 12.8245V7.12402H74.3541L77.0498 11.5609H77.0775L77.0498 10.4588V7.12402H77.7606V12.8245H77.0221L74.2064 8.17862H74.1787L74.2064 9.28071V12.834H73.4956L73.4863 12.8245Z" fill="white"/>
<path d="M66.6201 21.136C64.4506 21.136 62.6781 22.8367 62.6781 25.1739C62.6781 27.5111 64.4506 29.2117 66.6201 29.2117C68.7895 29.2117 70.562 27.5016 70.562 25.1739C70.562 22.8462 68.7895 21.136 66.6201 21.136ZM66.6201 27.6251C65.4292 27.6251 64.4044 26.618 64.4044 25.1739C64.4044 23.7297 65.4292 22.7227 66.6201 22.7227C67.8109 22.7227 68.8357 23.7202 68.8357 25.1739C68.8357 26.6275 67.8109 27.6251 66.6201 27.6251ZM58.0253 21.136C55.8559 21.136 54.0834 22.8367 54.0834 25.1739C54.0834 27.5111 55.8559 29.2117 58.0253 29.2117C60.1948 29.2117 61.9673 27.5016 61.9673 25.1739C61.9673 22.8462 60.1948 21.136 58.0253 21.136ZM58.0253 27.6251C56.8344 27.6251 55.8097 26.618 55.8097 25.1739C55.8097 23.7297 56.8344 22.7227 58.0253 22.7227C59.2162 22.7227 60.2409 23.7202 60.2409 25.1739C60.2409 26.6275 59.2162 27.6251 58.0253 27.6251ZM47.7966 22.3711V24.0813H51.7847C51.6647 25.0504 51.3508 25.7534 50.88 26.238C50.2984 26.8365 49.3937 27.4921 47.8058 27.4921C45.3502 27.4921 43.43 25.4589 43.43 22.9317C43.43 20.4045 45.3502 18.3713 47.8058 18.3713C49.1259 18.3713 50.0953 18.9033 50.8061 19.5969L51.9785 18.3903C50.9815 17.4117 49.6614 16.6611 47.7966 16.6611C44.4362 16.6611 41.6113 19.4734 41.6113 22.9412C41.6113 26.409 44.4362 29.2212 47.7966 29.2212C49.6152 29.2212 50.9815 28.6132 52.0524 27.4636C53.151 26.333 53.4925 24.7368 53.4925 23.4542C53.4925 23.0552 53.4649 22.6847 53.4002 22.3806H47.7966V22.3711ZM89.6255 23.7012C89.3024 22.7987 88.3054 21.1265 86.2651 21.1265C84.2249 21.1265 82.5632 22.7607 82.5632 25.1644C82.5632 27.4256 84.2249 29.2022 86.459 29.2022C88.2592 29.2022 89.3024 28.0716 89.727 27.4161L88.3884 26.4945C87.9453 27.169 87.336 27.6156 86.459 27.6156C85.582 27.6156 84.9542 27.1975 84.5573 26.39L89.8101 24.1573L89.6347 23.7012H89.6255ZM84.2711 25.0504C84.2249 23.4922 85.4435 22.6942 86.3205 22.6942C87.0037 22.6942 87.5853 23.0457 87.7792 23.5492L84.2711 25.0504ZM80.006 28.9647H81.7324V17.0887H80.006V28.9647ZM77.1811 22.0291H77.1257C76.738 21.5541 75.9995 21.1265 75.0578 21.1265C73.0915 21.1265 71.2913 22.9032 71.2913 25.1834C71.2913 27.4636 73.0915 29.2117 75.0578 29.2117C75.9995 29.2117 76.738 28.7842 77.1257 28.2901H77.1811V28.8697C77.1811 30.4183 76.378 31.2449 75.0855 31.2449C74.0331 31.2449 73.3777 30.4658 73.1099 29.8103L71.6052 30.4563C72.0391 31.5299 73.1838 32.841 75.0855 32.841C77.1073 32.841 78.8152 31.6154 78.8152 28.6322V21.3735H77.1811V22.0291ZM75.2056 27.6156C74.0147 27.6156 73.0176 26.5895 73.0176 25.1834C73.0176 23.7772 74.0147 22.7227 75.2056 22.7227C76.3964 22.7227 77.3012 23.7677 77.3012 25.1834C77.3012 26.599 76.378 27.6156 75.2056 27.6156ZM97.7125 17.0887H93.5859V28.9647H95.3122V24.4613H97.7217C99.6327 24.4613 101.507 23.0362 101.507 20.775C101.507 18.5138 99.6327 17.0887 97.7217 17.0887H97.7125ZM97.7586 22.8177H95.3122V18.7418H97.7586C99.0511 18.7418 99.7804 19.8439 99.7804 20.775C99.7804 21.7061 99.0511 22.8082 97.7586 22.8082V22.8177ZM108.403 21.1075C107.157 21.1075 105.864 21.6776 105.329 22.9222L106.861 23.5777C107.184 22.9222 107.794 22.7037 108.431 22.7037C109.317 22.7037 110.231 23.2547 110.24 24.2333V24.3568C109.926 24.1763 109.261 23.9008 108.44 23.9008C106.787 23.9008 105.116 24.8318 105.116 26.5705C105.116 28.1571 106.464 29.1832 107.978 29.1832C109.132 29.1832 109.778 28.6512 110.175 28.0241H110.231V28.9457H111.892V24.3948C111.892 22.2856 110.36 21.1075 108.384 21.1075H108.403ZM108.19 27.6156C107.627 27.6156 106.843 27.3211 106.843 26.6085C106.843 25.6964 107.821 25.3449 108.671 25.3449C109.428 25.3449 109.788 25.5159 110.24 25.7439C110.111 26.846 109.188 27.6251 108.19 27.6251V27.6156ZM117.958 21.364L115.982 26.5135H115.927L113.877 21.364H112.022L115.096 28.5657L113.342 32.5655H115.142L119.878 21.364H117.967H117.958ZM102.439 28.9647H104.165V17.0887H102.439V28.9647Z" fill="white"/>
<path d="M13.4597 31.5634C13.092 31.3745 12.9082 30.9021 12.9082 30.4296C12.9082 30.3351 12.9082 30.1462 12.9082 30.0517C12.9082 23.0599 12.9082 16.068 12.9082 9.17065C12.9082 8.7927 13.0001 8.50929 13.092 8.13134C13.184 7.94234 13.3678 7.7534 13.5516 7.56445C17.504 11.6273 21.3645 15.6901 25.2249 19.7529C21.2726 23.5322 17.4121 27.5006 13.4597 31.5634Z" fill="white"/>
<path d="M29.0794 15.5961C27.9764 16.7299 26.7815 17.8637 25.6785 19.092C22.0018 15.2182 18.2333 11.3443 14.5566 7.47045C14.5566 7.47045 14.5566 7.37598 14.6485 7.37598C19.4282 10.116 24.2078 12.8561 29.0794 15.5961Z" fill="white"/>
<path d="M14.5566 31.5637C18.2333 27.7843 22.0018 24.005 25.6785 20.2256C26.6896 21.2649 27.7926 22.3042 28.9875 23.438C24.2078 26.1781 19.4282 28.9181 14.6485 31.5637H14.5566Z" fill="white"/>
<path d="M29.6354 23.0599C28.4405 21.9262 27.3375 20.7923 26.1426 19.6585C27.3375 18.4302 28.5324 17.2019 29.7273 15.9736C30.0949 16.1626 30.4626 16.3516 30.8303 16.635C31.7494 17.2019 32.7605 17.6744 33.6797 18.2412C33.9555 18.3357 34.1393 18.5247 34.3231 18.8081C34.6907 19.2805 34.6907 19.753 34.3231 20.2254C34.1393 20.4144 33.9555 20.6034 33.6797 20.6978C32.3929 21.5482 31.0141 22.3041 29.6354 23.0599Z" fill="white"/>
</svg>
