<svg width="94" height="95" viewBox="0 0 94 95" fill="none" xmlns="http://www.w3.org/2000/svg">
<rect x="0.5" y="1.16016" width="93" height="93" rx="2.62965" fill="white"/>
<g clip-path="url(#clip0_552_67810)">
<path d="M15.4013 57.0734C15.4013 57.0734 14.4439 61.8789 15.81 64.1558C15.81 64.1558 36.1129 63.4462 41.1209 63.9015C46.1275 64.3569 58.8744 64.3569 66.385 63.2191C73.8957 62.0813 78.9672 59.3762 78.9672 59.3762C78.9672 59.3762 78.9036 53.7352 75.2618 53.0527C75.2618 53.0527 66.158 55.4802 61.6054 56.1639C57.0529 56.8463 39.0723 56.1639 33.1549 56.1639C27.2375 56.1639 15.4013 57.0734 15.4013 57.0734Z" fill="#404445"/>
<path d="M37.7056 29.9888L35.43 25.8164C35.43 25.8164 30.6504 29.7618 30.6504 31.8104C30.6504 33.859 37.7056 29.9901 37.7056 29.9901V29.9888Z" fill="#EF4F2B"/>
<path d="M75.2597 52.1413C75.2597 52.1413 69.4941 50.5481 65.2451 51.4589L68.8869 53.8863L75.2597 52.1413Z" fill="#DBDCDD"/>
<path d="M17.905 30.2181C17.905 30.2181 19.2711 36.818 18.5874 40.2327C17.905 43.6462 16.0834 49.3365 15.628 51.6122C15.1727 53.8878 15.401 56.1647 15.401 56.1647C15.401 56.1647 29.9668 55.4823 35.8856 55.4823C41.8043 55.4823 51.3764 56.1245 57.0668 55.8962C62.7572 55.6691 68.8887 53.8891 68.8887 53.8891C68.8887 53.8891 66.3847 50.7027 62.7429 50.4757C59.1011 50.2486 52.7283 48.2 47.9487 43.8758C43.1691 39.5516 39.5273 32.041 39.072 31.3573C38.6166 30.6748 38.1612 29.0816 35.8856 29.7641C33.6099 30.4465 31.333 32.0397 25.6439 31.3573C19.9536 30.6748 17.905 30.2194 17.905 30.2194V30.2181Z" fill="#EF4F2B"/>
<path d="M15.4011 56.1639C15.4011 56.1639 14.7186 61.6259 16.0835 63.9028C16.0835 63.9028 36.1127 62.5367 41.1193 62.992C46.126 63.4474 58.8729 63.4474 66.3835 62.3096C73.8941 61.1718 79.1291 58.8962 79.1291 58.8962C79.1291 58.8962 78.9021 52.827 75.2603 52.1445C75.2603 52.1445 66.1564 54.572 61.6039 55.2557C57.0513 55.9381 39.0707 55.2557 33.1533 55.2557C27.2359 55.2557 15.4011 56.1639 15.4011 56.1639Z" fill="#C8CBCE"/>
<path d="M37.5537 35.4903C36.8635 35.4903 36.3018 34.9285 36.3018 34.2383C36.3018 33.5481 36.8635 32.9863 37.5537 32.9863C38.244 32.9863 38.8057 33.5481 38.8057 34.2383C38.8057 34.9285 38.244 35.4903 37.5537 35.4903ZM37.5537 33.6701C37.2398 33.6701 36.9842 33.9256 36.9842 34.2396C36.9842 34.5536 37.2398 34.8092 37.5537 34.8092C37.8677 34.8092 38.1233 34.5536 38.1233 34.2396C38.1233 33.9256 37.8677 33.6701 37.5537 33.6701Z" fill="#F2F2F4"/>
<path d="M39.9063 39.5098C39.2161 39.5098 38.6543 38.9481 38.6543 38.2578C38.6543 37.5676 39.2161 37.0059 39.9063 37.0059C40.5965 37.0059 41.1583 37.5676 41.1583 38.2578C41.1583 38.9481 40.5965 39.5098 39.9063 39.5098ZM39.9063 37.6896C39.5923 37.6896 39.3367 37.9452 39.3367 38.2591C39.3367 38.5731 39.5923 38.8287 39.9063 38.8287C40.2203 38.8287 40.4758 38.5731 40.4758 38.2591C40.4758 37.9452 40.2203 37.6896 39.9063 37.6896Z" fill="#F2F2F4"/>
<path d="M42.4854 43.2266C41.7952 43.2266 41.2334 42.6649 41.2334 41.9746C41.2334 41.2844 41.7952 40.7227 42.4854 40.7227C43.1756 40.7227 43.7374 41.2844 43.7374 41.9746C43.7374 42.6649 43.1756 43.2266 42.4854 43.2266ZM42.4854 41.4064C42.1714 41.4064 41.9158 41.662 41.9158 41.9759C41.9158 42.2899 42.1714 42.5455 42.4854 42.5455C42.7994 42.5455 43.0549 42.2899 43.0549 41.9759C43.0549 41.662 42.7994 41.4064 42.4854 41.4064Z" fill="#F2F2F4"/>
<path d="M45.7481 46.4903C45.0579 46.4903 44.4961 45.9285 44.4961 45.2383C44.4961 44.5481 45.0579 43.9863 45.7481 43.9863C46.4383 43.9863 47.0001 44.5481 47.0001 45.2383C47.0001 45.9285 46.4383 46.4903 45.7481 46.4903ZM45.7481 44.6701C45.4341 44.6701 45.1785 44.9256 45.1785 45.2396C45.1785 45.5536 45.4341 45.8092 45.7481 45.8092C46.062 45.8092 46.3176 45.5536 46.3176 45.2396C46.3176 44.9256 46.062 44.6701 45.7481 44.6701Z" fill="#F2F2F4"/>
<path d="M49.7686 49.1465C49.0784 49.1465 48.5166 48.5848 48.5166 47.8946C48.5166 47.2043 49.0784 46.6426 49.7686 46.6426C50.4588 46.6426 51.0206 47.2043 51.0206 47.8946C51.0206 48.5848 50.4588 49.1465 49.7686 49.1465ZM49.7686 47.3263C49.4546 47.3263 49.199 47.5819 49.199 47.8959C49.199 48.2098 49.4546 48.4654 49.7686 48.4654C50.0826 48.4654 50.3381 48.2098 50.3381 47.8959C50.3381 47.5819 50.0826 47.3263 49.7686 47.3263Z" fill="#F2F2F4"/>
<path d="M53.8459 50.943C53.7668 50.943 53.6851 50.9365 53.6033 50.9209C53.2919 50.8651 53.0156 50.7107 52.8249 50.4837C52.6225 50.2437 52.5369 49.9414 52.5875 49.6533C52.6913 49.0721 53.314 48.6946 53.9783 48.8126C54.2896 48.8684 54.566 49.0228 54.7567 49.2499C54.9591 49.4899 55.0447 49.7922 54.9941 50.0802C54.9033 50.5901 54.4129 50.9417 53.8472 50.9417L53.8459 50.943ZM53.7344 49.4159C53.4671 49.4159 53.2362 49.5586 53.1998 49.7636C53.1739 49.9076 53.2517 50.0257 53.2997 50.0828C53.3957 50.1969 53.5449 50.2787 53.711 50.3085C54.0315 50.3656 54.3364 50.2112 54.3792 49.9725C54.4051 49.8285 54.3273 49.7104 54.2793 49.6533C54.1833 49.5392 54.0341 49.4574 53.868 49.4276C53.8226 49.4198 53.7785 49.4159 53.7344 49.4159Z" fill="#F2F2F4"/>
<path d="M58.0961 52.384C58.0144 52.384 57.9326 52.3762 57.8509 52.3619C57.1879 52.2439 56.7312 51.6756 56.835 51.0944C56.9375 50.5131 57.5629 50.1369 58.2258 50.2537C58.5372 50.3095 58.8135 50.4638 59.0043 50.6909C59.2067 50.9309 59.2923 51.2332 59.2417 51.5212C59.1911 51.8092 59.0056 52.0635 58.7331 52.2192C58.5437 52.3269 58.3231 52.384 58.0974 52.384H58.0961ZM57.4474 51.2034C57.4046 51.4421 57.6394 51.6912 57.9586 51.7483C58.1246 51.7781 58.2933 51.7522 58.4217 51.6782C58.4866 51.6406 58.6008 51.5575 58.6254 51.4122C58.6514 51.2682 58.5735 51.1502 58.5255 51.0931C58.4295 50.9789 58.2803 50.8972 58.1143 50.8673C57.7951 50.8102 57.4889 50.9646 57.4461 51.2034H57.4474Z" fill="#F2F2F4"/>
<path d="M62.7219 52.9901C62.6428 52.9901 62.561 52.9836 62.4793 52.9681C62.1679 52.9123 61.8916 52.7579 61.7009 52.5308C61.4985 52.2908 61.4128 51.9885 61.4634 51.7005C61.514 51.4125 61.6996 51.1582 61.972 51.0025C62.2289 50.8559 62.5429 50.804 62.8542 50.8598C63.5172 50.9779 63.9739 51.5461 63.8701 52.1274C63.7793 52.6372 63.2889 52.9888 62.7232 52.9888L62.7219 52.9901ZM62.609 51.4631C62.4897 51.4631 62.3742 51.4916 62.2808 51.5448C62.2159 51.5824 62.1018 51.6655 62.0771 51.8108C62.0512 51.9548 62.129 52.0729 62.177 52.1299C62.273 52.2441 62.4222 52.3259 62.5883 52.3557C62.9087 52.4128 63.2136 52.2584 63.2564 52.0197C63.2993 51.7809 63.0644 51.5318 62.7453 51.4748C62.6999 51.467 62.6557 51.4631 62.6103 51.4631H62.609Z" fill="#F2F2F4"/>
<path d="M37.2514 33.5557C37.2514 33.5557 36.6442 34.4665 37.4032 34.7701C38.1622 35.0737 40.8932 34.6183 41.1203 34.8453C41.3473 35.0724 41.6509 35.6795 41.6509 35.6795C41.6509 35.6795 41.9545 33.9346 41.1955 33.631C40.4365 33.3274 37.8573 33.1756 37.2501 33.5557H37.2514Z" fill="#DFE3E8"/>
<path d="M39.375 37.6527C39.375 37.6527 39.5268 38.7153 40.0574 38.7905C40.5881 38.8658 42.2578 37.8798 42.4849 37.2726C42.7119 36.6654 42.4096 35.224 41.8024 34.6934C41.8024 34.6934 41.8777 35.7559 41.0434 36.4384C40.2092 37.1208 39.375 37.6527 39.375 37.6527Z" fill="#DFE3E8"/>
<path d="M42.0314 41.6719C41.8044 41.2165 42.4103 40.0787 42.9422 39.6233C43.4728 39.1679 43.321 38.3337 43.321 38.3337L42.7904 37.3477C42.7904 37.3477 43.7012 37.4229 44.2318 38.4102C44.7625 39.3962 44.839 40.307 44.1566 40.8376C43.4741 41.3683 43.3976 42.1273 43.0188 42.3556C42.6399 42.5826 42.0327 41.6732 42.0327 41.6732L42.0314 41.6719Z" fill="#DFE3E8"/>
<path d="M45.2925 45.0098C45.1407 44.4026 45.8997 43.0378 45.8997 42.2788C45.8997 41.5198 45.3691 41.0645 45.3691 41.0645C45.3691 41.0645 46.7352 41.368 47.0375 42.2788C47.3411 43.1896 46.9623 44.2509 46.7339 44.9346C46.5069 45.617 46.1268 45.9206 45.8232 45.7688C45.5196 45.617 45.2925 45.0098 45.2925 45.0098Z" fill="#DFE3E8"/>
<path d="M48.708 44.4039C48.708 44.4039 49.2386 45.2382 49.1634 46.1489C49.0881 47.0597 48.7846 47.8174 49.2386 48.121C49.694 48.4246 50.3012 48.4246 50.3765 47.8939C50.4517 47.3633 50.8318 46.1489 50.3012 45.2382C49.7706 44.3274 48.708 44.4039 48.708 44.4039Z" fill="#DFE3E8"/>
<path d="M52.4248 47.0584C52.4248 47.0584 52.8036 47.2102 52.9554 47.7408C53.1072 48.2714 52.8802 49.4092 53.259 49.9412C53.6379 50.4718 54.6719 50.4108 54.6862 50.0242C54.7004 49.6376 54.8522 48.0444 54.245 47.5137C53.6379 46.9831 52.4248 47.0584 52.4248 47.0584Z" fill="#DFE3E8"/>
<path d="M56.5967 49.0315C56.5967 49.0315 57.1273 49.4869 57.2791 50.0176C57.4309 50.5482 57.2039 51.459 57.5827 51.6108C57.9615 51.7626 59.1474 52.2322 58.9346 51.4668C58.7205 50.7013 58.4935 49.1833 57.8863 48.8797C57.2791 48.5762 56.5967 49.0315 56.5967 49.0315Z" fill="#DFE3E8"/>
<path d="M61.377 50.1705C61.377 50.1705 62.1359 50.5493 62.1359 50.9295C62.1359 51.3096 62.0607 52.0673 62.4395 52.1438C62.8184 52.2191 63.5773 52.3709 63.5021 51.4614C63.4268 50.5506 63.3503 49.793 62.6679 49.793C61.9854 49.793 61.3783 50.1718 61.3783 50.1718L61.377 50.1705Z" fill="#DFE3E8"/>
<path d="M15.0386 61.2826L15.0049 60.6002C15.1722 60.5924 31.7452 59.7647 35.5751 59.6894C36.9205 59.6635 39.3012 59.7712 42.0569 59.8957C47.1297 60.1254 53.4415 60.4121 55.5329 59.9256L55.6873 60.5911C53.5038 61.0984 47.406 60.8221 42.0257 60.5782C39.2817 60.4536 36.9114 60.3459 35.588 60.3719C31.7685 60.4471 15.2047 61.2736 15.0386 61.2813V61.2826Z" fill="#111518"/>
<path d="M15.6291 62.9156L16.9187 62.6886L16.6151 58.668L14.8701 58.7432C14.8701 58.7432 14.8701 62.1567 15.6291 62.9156Z" fill="#12151C"/>
</g>
<g filter="url(#filter0_f_552_67810)">
<ellipse cx="47.0003" cy="64.4237" rx="15.2923" ry="2.42178" fill="#B03E18" fill-opacity="0.2"/>
</g>
<g filter="url(#filter1_f_552_67810)">
<ellipse cx="47.0544" cy="64.195" rx="14.5124" ry="0.958691" fill="#7A3923"/>
</g>
<g filter="url(#filter2_f_552_67810)">
<ellipse cx="47.0001" cy="65.5132" rx="26.1817" ry="3.98977" fill="#B03E18" fill-opacity="0.25"/>
</g>
<defs>
<filter id="filter0_f_552_67810" x="29.5784" y="59.8723" width="34.8443" height="9.10304" filterUnits="userSpaceOnUse" color-interpolation-filters="sRGB">
<feFlood flood-opacity="0" result="BackgroundImageFix"/>
<feBlend mode="normal" in="SourceGraphic" in2="BackgroundImageFix" result="shape"/>
<feGaussianBlur stdDeviation="1.06482" result="effect1_foregroundBlur_552_67810"/>
</filter>
<filter id="filter1_f_552_67810" x="31.4772" y="62.1715" width="31.1541" height="4.04761" filterUnits="userSpaceOnUse" color-interpolation-filters="sRGB">
<feFlood flood-opacity="0" result="BackgroundImageFix"/>
<feBlend mode="normal" in="SourceGraphic" in2="BackgroundImageFix" result="shape"/>
<feGaussianBlur stdDeviation="0.532411" result="effect1_foregroundBlur_552_67810"/>
</filter>
<filter id="filter2_f_552_67810" x="15.4942" y="56.1993" width="63.0115" height="18.6287" filterUnits="userSpaceOnUse" color-interpolation-filters="sRGB">
<feFlood flood-opacity="0" result="BackgroundImageFix"/>
<feBlend mode="normal" in="SourceGraphic" in2="BackgroundImageFix" result="shape"/>
<feGaussianBlur stdDeviation="2.66206" result="effect1_foregroundBlur_552_67810"/>
</filter>
<clipPath id="clip0_552_67810">
<rect width="64.2599" height="38.3691" fill="white" transform="translate(14.8701 25.8164)"/>
</clipPath>
</defs>
</svg>
