<svg width="287" height="300" viewBox="0 0 287 300" fill="none" xmlns="http://www.w3.org/2000/svg">
<path fill-rule="evenodd" clip-rule="evenodd" d="M47.1828 23.1336C74.2733 9.42311 107.632 0 143.497 0C177.531 0 212.061 8.99509 239.228 22.744C243.465 24.8886 245.162 30.0624 243.017 34.3C240.873 38.5376 235.699 40.2342 231.461 38.0896C206.602 25.5082 174.722 17.199 143.497 17.199C110.6 17.199 79.8847 25.8594 54.9492 38.4792C50.7116 40.6238 45.5379 38.9272 43.3932 34.6896C41.2486 30.452 42.9453 25.2782 47.1828 23.1336ZM64.1812 53.0129C87.6434 42.0608 117.834 36.2323 143.385 36.2323C168.971 36.2323 198.406 42.0742 221.84 53.0129C247.962 65.2066 269.816 82.9052 284.789 103.701C287.564 107.555 286.689 112.929 282.835 115.704C278.981 118.479 273.607 117.604 270.832 113.75C257.754 95.5862 238.311 79.6823 214.565 68.5975C193.651 58.8351 166.739 53.4313 143.385 53.4313C119.995 53.4313 92.3408 58.8485 71.456 68.5975C48.7149 79.2131 28.3302 96.2898 15.5976 114.114C12.8369 117.978 7.46605 118.873 3.60147 116.112C-0.263114 113.352 -1.15799 107.981 1.6027 104.116C16.1418 83.7637 38.8918 64.818 64.1812 53.0129ZM142.149 71.6859C192.182 71.2048 235.801 96.9711 257.917 133.918C269.521 153.303 273.553 172.78 273.553 189.372C273.553 217.133 248.168 234.593 225.215 234.593C213.675 234.593 201.48 231.504 191.853 224.163C181.961 216.621 175.399 205.03 174.933 189.632C174.634 179.782 170.098 173.205 163.907 168.831C157.431 164.255 149.099 162.128 142.231 162.128C123.583 162.128 110.313 175.872 110.313 189.372C110.313 200.159 113.683 215.219 118.14 225.221C122.648 235.34 130.725 247.119 138.651 254.291L138.733 254.365L138.813 254.441C151.673 266.693 167.791 277.634 191.411 283.014C196.041 284.069 198.94 288.678 197.886 293.308C196.831 297.939 192.222 300.838 187.591 299.783C160.355 293.58 141.588 280.821 127.027 266.968C117.081 257.937 107.733 244.124 102.429 232.22C97.0588 220.166 93.1139 202.731 93.1139 189.372C93.1139 164.691 115.858 144.929 142.231 144.929C152.116 144.929 164.043 147.868 173.832 154.785C183.907 161.903 191.643 173.248 192.124 189.111C192.436 199.427 196.588 206.146 202.281 210.487C208.238 215.029 216.497 217.394 225.215 217.394C241.248 217.394 256.354 205.245 256.354 189.372C256.354 175.575 253.011 159.209 243.16 142.751C224.267 111.189 186.411 88.46 142.314 88.8841C104.089 89.2516 63.342 107.299 42.4821 142.344C33.5841 157.292 29.1217 174.375 29.6627 192.228C30.4032 216.664 33.9835 226.981 40.41 243.993C42.0884 248.436 39.8474 253.398 35.4045 255.076C30.9616 256.755 25.9993 254.514 24.3209 250.071C17.5012 232.019 13.2896 219.74 12.4717 192.749C11.8321 171.642 17.1214 151.324 27.7031 133.547C52.296 92.2306 99.3383 72.0975 142.149 71.6859ZM52.9857 187.733C53.0372 143.381 95.8012 108.307 142.231 108.307C188.433 108.307 233.035 140.087 233.035 190.54C233.035 195.29 229.185 199.14 224.436 199.14C219.686 199.14 215.836 195.29 215.836 190.54C215.836 152.167 181.74 125.506 142.231 125.506C102.978 125.506 70.1846 155.064 70.1846 187.813V187.892L70.1831 187.971C69.854 205.957 72.7211 223.164 82.103 241.568C91.6506 260.295 103.134 273.025 113.629 282.264C117.194 285.402 117.54 290.836 114.402 294.4C111.264 297.965 105.83 298.311 102.265 295.173C90.4634 284.785 77.4918 270.39 66.7804 249.379C55.9172 228.071 52.6239 208.004 52.9857 187.733ZM142.231 180.772C146.981 180.772 150.831 184.622 150.831 189.372C150.831 200.179 153.798 210.405 159.418 220.134C164.854 229.545 171.934 236.325 181.583 242.17C195.566 249.801 205.258 252.446 219.931 252.071L219.99 252.069L220.049 252.069C225.787 252.001 232.536 251.527 237.892 250.593C242.57 249.777 247.025 252.909 247.841 257.587C248.657 262.266 245.525 266.72 240.846 267.536C234.329 268.673 226.632 269.188 220.31 269.266C202.141 269.721 189.468 266.09 173.167 257.171L173.009 257.084L172.854 256.991C161.022 249.855 151.652 241.076 144.525 228.736C137.552 216.664 133.632 203.498 133.632 189.372C133.632 184.622 137.482 180.772 142.231 180.772Z" fill="#F04405"/>
</svg>
