<svg width="66" height="66" viewBox="0 0 66 66" fill="none" xmlns="http://www.w3.org/2000/svg">
<rect x="1.3335" y="1" width="64" height="64" rx="12" fill="white"/>
<rect x="1.3335" y="1" width="64" height="64" rx="12" fill="url(#paint0_linear_2116_39562)" fill-opacity="0.02"/>
<rect x="1.3335" y="1" width="64" height="64" rx="12" stroke="#F0F0ED" stroke-linecap="round"/>
<path d="M22.2627 43.8575C22.2625 42.1325 22.6807 40.4331 23.4815 38.9051C24.2822 37.3771 25.4416 36.0662 26.8602 35.0846C28.2789 34.1031 29.9144 33.4803 31.6265 33.2696C33.3387 33.0589 35.0764 33.2666 36.6907 33.8749" stroke="#F35B22" stroke-width="2.2" stroke-linecap="round" stroke-linejoin="round"/>
<path d="M32.9294 33.1905C36.6113 33.1905 39.596 30.2057 39.596 26.5238C39.596 22.8419 36.6113 19.8571 32.9294 19.8571C29.2475 19.8571 26.2627 22.8419 26.2627 26.5238C26.2627 30.2057 29.2475 33.1905 32.9294 33.1905Z" stroke="#F35B22" stroke-width="2.2" stroke-linecap="round" stroke-linejoin="round"/>
<path d="M39.8877 44.1884L46.6877 37.3884" stroke="#F35B22" stroke-width="2.2" stroke-linecap="round" stroke-linejoin="round"/>
<path d="M39.8877 37.3884H46.6877V44.1884" stroke="#F35B22" stroke-width="2.2" stroke-linecap="round" stroke-linejoin="round"/>
<defs>
<linearGradient id="paint0_linear_2116_39562" x1="52.917" y1="69.3016" x2="9.51087" y2="43.0222" gradientUnits="userSpaceOnUse">
<stop stop-color="#484946"/>
<stop offset="1" stop-color="#6E6F6C"/>
</linearGradient>
</defs>
</svg>
