<svg width="42" height="42" viewBox="0 0 42 42" fill="none" xmlns="http://www.w3.org/2000/svg">
<rect x="1" y="1" width="40" height="40" rx="7.5" fill="white"/>
<rect x="1" y="1" width="40" height="40" rx="7.5" fill="url(#paint0_linear_2219_39281)" fill-opacity="0.02"/>
<rect x="1" y="1" width="40" height="40" rx="7.5" stroke="#F0F0ED" stroke-width="1.2" stroke-linecap="round"/>
<path d="M13.6665 28.4999C13.6664 27.2169 14.0366 25.961 14.7326 24.8832C15.4286 23.8053 16.4209 22.9511 17.5903 22.4233C18.7598 21.8954 20.0567 21.7162 21.3255 21.9072C22.5942 22.0981 23.7809 22.6512 24.7432 23.4999" stroke="#F35B22" stroke-width="1.4" stroke-linecap="round" stroke-linejoin="round"/>
<path d="M20.3332 21.8333C22.6344 21.8333 24.4998 19.9679 24.4998 17.6667C24.4998 15.3655 22.6344 13.5 20.3332 13.5C18.032 13.5 16.1665 15.3655 16.1665 17.6667C16.1665 19.9679 18.032 21.8333 20.3332 21.8333Z" stroke="#F35B22" stroke-width="1.4" stroke-linecap="round" stroke-linejoin="round"/>
<path d="M27.8335 24.3334V29.3334" stroke="#F35B22" stroke-width="1.4" stroke-linecap="round" stroke-linejoin="round"/>
<path d="M30.3335 26.8334H25.3335" stroke="#F35B22" stroke-width="1.4" stroke-linecap="round" stroke-linejoin="round"/>
<defs>
<linearGradient id="paint0_linear_2219_39281" x1="33.2397" y1="43.6885" x2="6.11086" y2="27.2638" gradientUnits="userSpaceOnUse">
<stop stop-color="#484946"/>
<stop offset="1" stop-color="#6E6F6C"/>
</linearGradient>
</defs>
</svg>
