<svg width="66" height="66" viewBox="0 0 66 66" fill="none" xmlns="http://www.w3.org/2000/svg">
<rect x="0.666504" y="1" width="64" height="64" rx="12" fill="white"/>
<rect x="0.666504" y="1" width="64" height="64" rx="12" fill="url(#paint0_linear_2116_39812)" fill-opacity="0.02"/>
<rect x="0.666504" y="1" width="64" height="64" rx="12" stroke="#F0F0ED" stroke-linecap="round"/>
<path d="M37.1865 22.8533C37.3541 23.0211 37.5634 23.1412 37.7929 23.2011C38.0223 23.261 38.2636 23.2586 38.4918 23.1943C38.7201 23.1299 38.927 23.0058 39.0913 22.8347C39.2556 22.6637 39.3713 22.452 39.4265 22.2213C39.5649 21.6452 39.8544 21.1164 40.2651 20.6893C40.6758 20.2623 41.193 19.9524 41.7633 19.7916C42.3336 19.6309 42.9365 19.6251 43.5098 19.7748C44.0831 19.9245 44.6061 20.2243 45.025 20.6433C45.4439 21.0624 45.7436 21.5855 45.8931 22.1589C46.0426 22.7322 46.0366 23.3351 45.8756 23.9053C45.7147 24.4756 45.4047 24.9926 44.9775 25.4032C44.5503 25.8138 44.0213 26.1031 43.4452 26.2413C43.2145 26.2965 43.0028 26.4123 42.8318 26.5765C42.6607 26.7408 42.5366 26.9478 42.4722 27.176C42.4079 27.4042 42.4055 27.6455 42.4654 27.875C42.5253 28.1044 42.6454 28.3137 42.8132 28.4814L45.0572 30.724C45.356 31.0229 45.5932 31.3777 45.7549 31.7682C45.9167 32.1588 45.9999 32.5773 45.9999 33C45.9999 33.4227 45.9167 33.8413 45.7549 34.2318C45.5932 34.6223 45.356 34.9771 45.0572 35.276L42.8132 37.52C42.6455 37.6878 42.4362 37.8078 42.2068 37.8677C41.9773 37.9277 41.736 37.9253 41.5078 37.8609C41.2796 37.7965 41.0726 37.6724 40.9083 37.5014C40.7441 37.3304 40.6283 37.1187 40.5732 36.888C40.4347 36.3119 40.1453 35.7831 39.7345 35.356C39.3238 34.9289 38.8066 34.6191 38.2363 34.4583C37.666 34.2976 37.0632 34.2917 36.4899 34.4414C35.9166 34.5911 35.3935 34.891 34.9746 35.31C34.5557 35.7291 34.2561 36.2522 34.1066 36.8256C33.957 37.3989 33.9631 38.0018 34.124 38.572C34.2849 39.1423 34.595 39.6593 35.0222 40.0699C35.4494 40.4805 35.9783 40.7698 36.5545 40.908C36.7851 40.9632 36.9969 41.0789 37.1679 41.2432C37.3389 41.4075 37.463 41.6144 37.5274 41.8427C37.5918 42.0709 37.5941 42.3122 37.5342 42.5416C37.4743 42.7711 37.3543 42.9804 37.1865 43.148L34.9425 45.3907C34.6436 45.6896 34.2888 45.9267 33.8983 46.0884C33.5077 46.2502 33.0892 46.3335 32.6665 46.3335C32.2438 46.3335 31.8252 46.2502 31.4347 46.0884C31.0442 45.9267 30.6894 45.6896 30.3905 45.3907L28.1465 43.1467C27.9789 42.9789 27.7696 42.8589 27.5401 42.799C27.3107 42.739 27.0694 42.7414 26.8411 42.8058C26.6129 42.8702 26.406 42.9943 26.2417 43.1653C26.0774 43.3363 25.9617 43.548 25.9065 43.7787C25.7681 44.3548 25.4786 44.8836 25.0679 45.3107C24.6571 45.7378 24.14 46.0476 23.5697 46.2084C22.9994 46.3691 22.3965 46.375 21.8232 46.2253C21.2499 46.0756 20.7269 45.7757 20.308 45.3567C19.889 44.9376 19.5894 44.4145 19.4399 43.8411C19.2904 43.2678 19.2964 42.6649 19.4573 42.0947C19.6183 41.5244 19.9283 41.0074 20.3555 40.5968C20.7827 40.1862 21.3116 39.8969 21.8878 39.7587C22.1185 39.7035 22.3302 39.5878 22.5012 39.4235C22.6722 39.2592 22.7963 39.0523 22.8607 38.824C22.9251 38.5958 22.9275 38.3545 22.8675 38.1251C22.8076 37.8956 22.6876 37.6863 22.5198 37.5187L20.2758 35.276C19.9769 34.9771 19.7398 34.6223 19.5781 34.2318C19.4163 33.8413 19.333 33.4227 19.333 33C19.333 32.5773 19.4163 32.1588 19.5781 31.7682C19.7398 31.3777 19.9769 31.0229 20.2758 30.724L22.5198 28.48C22.6874 28.3122 22.8967 28.1922 23.1262 28.1323C23.3556 28.0724 23.5969 28.0747 23.8252 28.1391C24.0534 28.2035 24.2603 28.3276 24.4246 28.4986C24.5889 28.6696 24.7046 28.8814 24.7598 29.112C24.8982 29.6882 25.1877 30.217 25.5984 30.644C26.0092 31.0711 26.5263 31.381 27.0966 31.5417C27.6669 31.7025 28.2698 31.7083 28.8431 31.5586C29.4164 31.4089 29.9394 31.1091 30.3584 30.69C30.7773 30.271 31.0769 29.7478 31.2264 29.1745C31.3759 28.6011 31.3699 27.9983 31.209 27.428C31.048 26.8578 30.738 26.3407 30.3108 25.9301C29.8836 25.5195 29.3547 25.2302 28.7785 25.092C28.5479 25.0368 28.3361 24.9211 28.1651 24.7568C27.9941 24.5925 27.87 24.3856 27.8056 24.1574C27.7412 23.9291 27.7388 23.6878 27.7988 23.4584C27.8587 23.2289 27.9787 23.0196 28.1465 22.852L30.3905 20.6093C30.6894 20.3105 31.0442 20.0734 31.4347 19.9116C31.8252 19.7498 32.2438 19.6666 32.6665 19.6666C33.0892 19.6666 33.5077 19.7498 33.8983 19.9116C34.2888 20.0734 34.6436 20.3105 34.9425 20.6093L37.1865 22.8533Z" stroke="#F35B22" stroke-width="2.2" stroke-linecap="round" stroke-linejoin="round"/>
<defs>
<linearGradient id="paint0_linear_2116_39812" x1="52.25" y1="69.3016" x2="8.84388" y2="43.0222" gradientUnits="userSpaceOnUse">
<stop stop-color="#484946"/>
<stop offset="1" stop-color="#6E6F6C"/>
</linearGradient>
</defs>
</svg>
