<svg width="66" height="66" viewBox="0 0 66 66" fill="none" xmlns="http://www.w3.org/2000/svg">
<rect x="1.3335" y="1" width="64" height="64" rx="12" fill="white"/>
<rect x="1.3335" y="1" width="64" height="64" rx="12" fill="url(#paint0_linear_2116_39786)" fill-opacity="0.02"/>
<rect x="1.3335" y="1" width="64" height="64" rx="12" stroke="#F0F0ED" stroke-linecap="round"/>
<path d="M38.667 30.3333H41.3337" stroke="#F35B22" stroke-width="2.2" stroke-linecap="round" stroke-linejoin="round"/>
<path d="M38.667 35.6667H41.3337" stroke="#F35B22" stroke-width="2.2" stroke-linecap="round" stroke-linejoin="round"/>
<path d="M25.5601 37C25.8349 36.2187 26.3455 35.542 27.0214 35.0632C27.6973 34.5845 28.5051 34.3274 29.3334 34.3274C30.1616 34.3274 30.9695 34.5845 31.6454 35.0632C32.3213 35.542 32.8319 36.2187 33.1067 37" stroke="#F35B22" stroke-width="2.2" stroke-linecap="round" stroke-linejoin="round"/>
<path d="M29.3337 34.3333C30.8064 34.3333 32.0003 33.1394 32.0003 31.6667C32.0003 30.1939 30.8064 29 29.3337 29C27.8609 29 26.667 30.1939 26.667 31.6667C26.667 33.1394 27.8609 34.3333 29.3337 34.3333Z" stroke="#F35B22" stroke-width="2.2" stroke-linecap="round" stroke-linejoin="round"/>
<path d="M44 23.6667H22.6667C21.1939 23.6667 20 24.8606 20 26.3334V39.6667C20 41.1394 21.1939 42.3334 22.6667 42.3334H44C45.4728 42.3334 46.6667 41.1394 46.6667 39.6667V26.3334C46.6667 24.8606 45.4728 23.6667 44 23.6667Z" stroke="#F35B22" stroke-width="2.2" stroke-linecap="round" stroke-linejoin="round"/>
<defs>
<linearGradient id="paint0_linear_2116_39786" x1="52.917" y1="69.3016" x2="9.51087" y2="43.0222" gradientUnits="userSpaceOnUse">
<stop stop-color="#484946"/>
<stop offset="1" stop-color="#6E6F6C"/>
</linearGradient>
</defs>
</svg>
