<svg width="66" height="66" viewBox="0 0 66 66" fill="none" xmlns="http://www.w3.org/2000/svg">
<rect x="1" y="1" width="64" height="64" rx="12" fill="white"/>
<rect x="1" y="1" width="64" height="64" rx="12" fill="url(#paint0_linear_2116_39731)" fill-opacity="0.02"/>
<rect x="1" y="1" width="64" height="64" rx="12" stroke="#F0F0ED" stroke-linecap="round"/>
<path d="M31.6667 38.5H34.3333C35.0406 38.5 35.7189 38.2191 36.219 37.719C36.719 37.2189 37 36.5406 37 35.8333C37 35.1261 36.719 34.4478 36.219 33.9477C35.7189 33.4476 35.0406 33.1667 34.3333 33.1667H30.3333C29.5333 33.1667 28.8667 33.4333 28.4667 33.9667L21 41.1667" stroke="#F35B22" stroke-width="2.2" stroke-linecap="round" stroke-linejoin="round"/>
<path d="M26.3335 46.5L28.4668 44.6333C28.8668 44.1 29.5335 43.8333 30.3335 43.8333H35.6668C37.1335 43.8333 38.4668 43.3 39.4002 42.2333L45.5335 36.3667C46.048 35.8804 46.3483 35.2097 46.3683 34.5021C46.3883 33.7945 46.1264 33.1078 45.6402 32.5933C45.1539 32.0788 44.4832 31.7785 43.7756 31.7585C43.0679 31.7385 42.3813 32.0004 41.8668 32.4867L36.2668 37.6867" stroke="#F35B22" stroke-width="2.2" stroke-linecap="round" stroke-linejoin="round"/>
<path d="M19.6665 39.8333L27.6665 47.8333" stroke="#F35B22" stroke-width="2.2" stroke-linecap="round" stroke-linejoin="round"/>
<path d="M38.3335 34.3667C40.469 34.3667 42.2001 32.6355 42.2001 30.5C42.2001 28.3645 40.469 26.6333 38.3335 26.6333C36.198 26.6333 34.4668 28.3645 34.4668 30.5C34.4668 32.6355 36.198 34.3667 38.3335 34.3667Z" stroke="#F35B22" stroke-width="2.2" stroke-linecap="round" stroke-linejoin="round"/>
<path d="M25 29.1667C27.2091 29.1667 29 27.3758 29 25.1667C29 22.9575 27.2091 21.1667 25 21.1667C22.7909 21.1667 21 22.9575 21 25.1667C21 27.3758 22.7909 29.1667 25 29.1667Z" stroke="#F35B22" stroke-width="2.2" stroke-linecap="round" stroke-linejoin="round"/>
<defs>
<linearGradient id="paint0_linear_2116_39731" x1="52.5835" y1="69.3016" x2="9.17737" y2="43.0222" gradientUnits="userSpaceOnUse">
<stop stop-color="#484946"/>
<stop offset="1" stop-color="#6E6F6C"/>
</linearGradient>
</defs>
</svg>
