<svg width="66" height="66" viewBox="0 0 66 66" fill="none" xmlns="http://www.w3.org/2000/svg">
<rect x="1" y="1" width="64" height="64" rx="12" fill="white"/>
<rect x="1" y="1" width="64" height="64" rx="12" fill="url(#paint0_linear_2116_39627)" fill-opacity="0.02"/>
<rect x="1" y="1" width="64" height="64" rx="12" stroke="#F0F0ED" stroke-linecap="round"/>
<path d="M33.0002 23C33.9206 23 34.6668 22.2538 34.6668 21.3333C34.6668 20.4128 33.9206 19.6667 33.0002 19.6667C32.0797 19.6667 31.3335 20.4128 31.3335 21.3333C31.3335 22.2538 32.0797 23 33.0002 23Z" stroke="#F35B22" stroke-width="2.2" stroke-linecap="round" stroke-linejoin="round"/>
<path d="M28 46.3333L33 36.3333L38 46.3333" stroke="#F35B22" stroke-width="2.2" stroke-linecap="round" stroke-linejoin="round"/>
<path d="M23 26.3333L33 29.6667L43 26.3333" stroke="#F35B22" stroke-width="2.2" stroke-linecap="round" stroke-linejoin="round"/>
<path d="M33 29.6667V36.3333" stroke="#F35B22" stroke-width="2.2" stroke-linecap="round" stroke-linejoin="round"/>
<defs>
<linearGradient id="paint0_linear_2116_39627" x1="52.5835" y1="69.3016" x2="9.17737" y2="43.0222" gradientUnits="userSpaceOnUse">
<stop stop-color="#484946"/>
<stop offset="1" stop-color="#6E6F6C"/>
</linearGradient>
</defs>
</svg>
