<svg width="66" height="66" viewBox="0 0 66 66" fill="none" xmlns="http://www.w3.org/2000/svg">
<rect x="0.666504" y="1" width="64" height="64" rx="12" fill="white"/>
<rect x="0.666504" y="1" width="64" height="64" rx="12" fill="url(#paint0_linear_2116_39573)" fill-opacity="0.02"/>
<rect x="0.666504" y="1" width="64" height="64" rx="12" stroke="#F0F0ED" stroke-linecap="round"/>
<path d="M20.2487 37.8602L22.7929 36.3914C22.9307 36.3119 23.0925 36.2842 23.2489 36.3135L28.2549 37.2504C28.6663 37.3274 29.046 37.0107 29.0442 36.5921L29.0247 32.206C29.0242 32.0868 29.0556 31.9697 29.1157 31.8667L31.642 27.5416C31.7735 27.3165 31.7617 27.0355 31.6118 26.8222L27.3582 20.7676M42 23.4788C34.6666 27.0001 38.6664 31.6667 40 32.3334C42.5027 33.5846 45.9832 33.6667 45.9832 33.6667C45.9941 33.4458 45.9997 33.2236 45.9997 33C45.9997 25.6362 40.0301 19.6667 32.6663 19.6667C25.3025 19.6667 19.333 25.6362 19.333 33C19.333 40.3638 25.3025 46.3334 32.6663 46.3334C32.8899 46.3334 33.1122 46.3278 33.333 46.317M39.0101 46.2531L34.7877 35.1214L45.9194 39.3437L40.9832 41.3169L39.0101 46.2531Z" stroke="#F35B22" stroke-width="2.2" stroke-linecap="round" stroke-linejoin="round"/>
<defs>
<linearGradient id="paint0_linear_2116_39573" x1="52.25" y1="69.3016" x2="8.84388" y2="43.0222" gradientUnits="userSpaceOnUse">
<stop stop-color="#484946"/>
<stop offset="1" stop-color="#6E6F6C"/>
</linearGradient>
</defs>
</svg>
