<svg width="94" height="95" viewBox="0 0 94 95" fill="none" xmlns="http://www.w3.org/2000/svg">
<rect x="0.5" y="1.16016" width="93" height="93" rx="2.62965" fill="white"/>
<g clip-path="url(#clip0_552_67774)">
<path d="M16.3423 40.5322C16.3423 40.5322 15.1702 46.1588 14.935 49.9103C14.7011 53.6618 14.935 56.9443 14.935 56.9443C14.935 56.9443 36.2707 57.4134 41.6635 57.8825C47.0562 58.3516 61.358 58.8207 67.9228 58.3516C74.4877 57.8825 79.6452 56.2413 79.6452 56.2413C79.6452 56.2413 78.4731 52.9589 76.8319 52.0206C75.1907 51.0824 67.6876 50.6133 64.1713 49.2073L60.655 47.8C60.655 47.8 44.9459 39.594 43.7738 37.4836C42.6017 35.3733 40.7253 30.6849 40.7253 29.5115C40.7253 28.338 40.0236 26.4656 39.0854 26.2304C38.1472 25.9952 36.2721 27.1686 36.2721 27.1686C36.2721 27.1686 33.9279 25.9965 32.0514 26.9347C30.175 27.8729 29.2381 28.8098 26.8939 29.045C24.5497 29.2789 19.86 29.2789 19.157 29.9832C18.454 30.6876 17.7497 35.6099 17.7497 35.6099C17.7497 35.6099 15.8746 38.6584 17.2805 40.5335H16.3423V40.5322Z" fill="#D2CCC7"/>
<path d="M14.9363 56.9438C14.9363 56.9438 13.998 56.4747 13.998 58.3512C13.998 60.2276 14.4672 63.7439 14.4672 63.7439C14.4672 63.7439 58.0768 63.9778 64.4078 63.51C70.7387 63.0409 78.2405 61.6349 79.4126 60.6967C80.5847 59.7585 79.6465 56.2422 79.6465 56.2422L14.9363 56.9438Z" fill="#FF5D22"/>
<path d="M64.7138 62.2831C71.1303 61.8073 78.7296 60.3853 79.9685 59.4311C80.1316 58.0611 79.6465 56.2422 79.6465 56.2422L42.7192 52.373L14.9363 56.9452C14.9363 56.9452 13.998 56.4761 13.998 58.3525C13.998 59.5219 14.1798 61.3275 14.3175 62.5237C18.8655 62.5464 58.6422 62.7322 64.7138 62.2831Z" fill="#D2CCC7"/>
<path d="M16.499 40.5322C16.499 40.5322 25.7208 44.2837 27.8311 44.0485C29.9414 43.8146 36.2711 40.9999 36.2711 40.9999C36.2711 40.9999 36.0372 42.172 38.8505 42.875C41.6638 43.578 44.008 43.3441 44.9462 44.5162C45.8844 45.6883 47.0565 47.0957 49.1669 48.0326C51.2772 48.9708 52.2154 48.9708 52.2154 48.9708C52.2154 48.9708 50.8081 52.4871 49.4021 54.5974C48.2353 56.3469 47.233 57.7702 46.9229 58.2073C53.5399 58.5213 62.9501 58.7044 67.9245 58.3489C74.4893 57.8798 79.6469 56.2386 79.6469 56.2386C79.6469 56.2386 78.4908 53.0043 76.8683 52.0407C75.767 52.447 73.9334 52.9562 71.6747 52.9562C67.9232 52.9562 65.3437 52.018 63.9378 53.1901C62.5304 54.3622 60.6553 55.0652 59.9523 53.8931C59.2493 52.721 61.5882 51.4526 62.0627 50.6106C63.1171 48.7355 60.6553 47.7973 60.6553 47.7973C60.6553 47.7973 44.9462 39.5913 43.7741 37.481C42.602 35.3706 40.7256 30.6822 40.7256 29.5088C40.7256 28.3354 40.0239 26.4656 39.0857 26.2304C38.1475 25.9952 36.2724 27.1686 36.2724 27.1686C36.2724 27.1686 33.9282 25.9965 32.0518 26.9347C30.1753 27.8729 29.2384 28.8098 26.8942 29.045C24.55 29.2789 19.8603 29.2789 19.1573 29.9832C18.4543 30.6876 17.75 35.6099 17.75 35.6099L16.499 40.5335V40.5322Z" fill="#201E1C"/>
<path d="M74.7233 52.9593C76.3645 52.7254 76.8684 52.0438 76.8684 52.0438C76.8564 52.0371 76.8443 52.0291 76.8337 52.0224C75.1924 51.0842 67.6894 50.6151 64.1731 49.2091C61.337 48.0745 60.7877 47.8553 60.6822 47.8125C60.9655 47.9274 63.1493 49.1784 61.5937 50.7327C59.9524 52.3739 58.9822 53.6396 60.4216 54.8358C61.5763 55.7954 63.8416 52.9954 65.0137 52.9954C66.1858 52.9954 73.0821 53.1945 74.7233 52.9607V52.9593Z" fill="#FF5D22"/>
<path d="M28.5357 48.973C27.8942 47.9024 17.483 44.6842 15.6747 44.1309C15.3673 45.9485 15.0479 48.139 14.937 49.9112C14.7031 53.6627 14.937 56.9451 14.937 56.9451C14.937 56.9451 24.0091 57.1443 31.8182 57.4129C31.8128 57.3969 29.2387 50.1437 28.5357 48.973Z" fill="#FF5D22"/>
<path d="M38.7338 41.0016C38.0308 39.9471 42.1339 34.3192 43.1884 35.2574C44.2428 36.1956 39.8551 41.8623 38.9169 41.1593L38.7325 41.0016H38.7338Z" fill="#D2CCC7"/>
<path d="M44.1263 41.5895C43.1694 41.27 44.3602 37.3688 45.5337 37.8379C46.7071 38.307 45.1822 41.9409 44.1263 41.5895Z" fill="#D2CCC7"/>
<path d="M47.2914 43.3483C46.2101 43.3483 47.2914 39.9483 48.2296 40.1835C49.1678 40.4188 48.4635 43.3483 47.2914 43.3483Z" fill="#D2CCC7"/>
<path d="M50.3401 45.4555C49.1212 45.5664 50.1062 41.8216 51.0431 42.0554C51.98 42.2893 51.6298 45.3379 50.3401 45.4555Z" fill="#D2CCC7"/>
<path d="M53.9741 46.9817C53.1495 47.1648 53.8565 43.8169 54.6771 44.0508C55.4977 44.2847 55.0286 46.7465 53.9741 46.9817Z" fill="#D2CCC7"/>
<path d="M56.4363 48.387C55.7172 48.5675 55.9672 44.7531 57.023 45.3385C58.0775 45.9252 57.3745 48.1518 56.4363 48.387Z" fill="#D2CCC7"/>
<path d="M59.2491 49.4432C58.3657 49.3175 58.3109 46.2783 59.483 46.6298C60.6551 46.9813 60.0697 49.5608 59.2491 49.4432Z" fill="#D2CCC7"/>
<path d="M27.5717 44.6203C27.5717 44.6203 27.5971 42.6423 29.4722 41.2363C31.3473 39.829 39.3195 35.8435 39.7886 34.4376C40.2577 33.0302 38.1741 28.0398 36.9752 28.8109C33.6928 30.9213 17.7498 35.6097 17.7498 35.6097C17.7498 35.6097 15.9376 39.1407 16.5149 40.9677L27.5717 44.6216V44.6203Z" fill="#FF5D22"/>
<path d="M35.9209 30.9201C35.9209 32.0989 41.7827 31.154 41.5475 30.2171C41.3136 29.2789 35.9209 29.5141 35.9209 30.9201Z" fill="#D2CCC7"/>
<path d="M36.9748 33.7347C37.0563 34.9562 42.6014 32.914 42.1323 31.9758C41.6632 31.0376 36.8572 31.9758 36.9748 33.7347Z" fill="#D2CCC7"/>
<path d="M50.6468 58.3952C50.6468 58.3952 50.6414 58.3952 50.6374 58.3952C50.5906 58.3939 45.8795 58.2015 41.6575 58.0999C37.4329 57.9983 15.1509 57.1697 14.9264 57.1617C14.8074 57.1577 14.7139 57.0574 14.7179 56.9371C14.7219 56.8182 14.8235 56.7246 14.9424 56.7286C15.167 56.7367 37.4463 57.5653 41.6682 57.6669C45.8929 57.7684 50.608 57.9595 50.6548 57.9622C50.7737 57.9676 50.8673 58.0678 50.8619 58.1868C50.8566 58.303 50.7617 58.3939 50.6454 58.3939L50.6468 58.3952Z" fill="#201E1C"/>
</g>
<g filter="url(#filter0_f_552_67774)">
<ellipse cx="47.0003" cy="64.0409" rx="15.2923" ry="2.42178" fill="#B03E18" fill-opacity="0.2"/>
</g>
<g filter="url(#filter1_f_552_67774)">
<ellipse cx="47.0544" cy="63.8122" rx="14.5124" ry="0.958691" fill="#7A3923"/>
</g>
<g filter="url(#filter2_f_552_67774)">
<ellipse cx="47.0001" cy="65.1304" rx="26.1817" ry="3.98977" fill="#B03E18" fill-opacity="0.25"/>
</g>
<defs>
<filter id="filter0_f_552_67774" x="29.5784" y="59.4895" width="34.8443" height="9.10304" filterUnits="userSpaceOnUse" color-interpolation-filters="sRGB">
<feFlood flood-opacity="0" result="BackgroundImageFix"/>
<feBlend mode="normal" in="SourceGraphic" in2="BackgroundImageFix" result="shape"/>
<feGaussianBlur stdDeviation="1.06482" result="effect1_foregroundBlur_552_67774"/>
</filter>
<filter id="filter1_f_552_67774" x="31.4772" y="61.7887" width="31.1541" height="4.04761" filterUnits="userSpaceOnUse" color-interpolation-filters="sRGB">
<feFlood flood-opacity="0" result="BackgroundImageFix"/>
<feBlend mode="normal" in="SourceGraphic" in2="BackgroundImageFix" result="shape"/>
<feGaussianBlur stdDeviation="0.532411" result="effect1_foregroundBlur_552_67774"/>
</filter>
<filter id="filter2_f_552_67774" x="15.4942" y="55.8165" width="63.0115" height="18.6287" filterUnits="userSpaceOnUse" color-interpolation-filters="sRGB">
<feFlood flood-opacity="0" result="BackgroundImageFix"/>
<feBlend mode="normal" in="SourceGraphic" in2="BackgroundImageFix" result="shape"/>
<feGaussianBlur stdDeviation="2.66206" result="effect1_foregroundBlur_552_67774"/>
</filter>
<clipPath id="clip0_552_67774">
<rect width="66.0039" height="37.6035" fill="white" transform="translate(13.998 26.1992)"/>
</clipPath>
</defs>
</svg>
