<svg width="24" height="24" viewBox="0 0 24 24" fill="none" xmlns="http://www.w3.org/2000/svg">
<path d="M3.50049 12C3.50049 16.6944 7.30607 20.5 12.0005 20.5C16.6949 20.5 20.5005 16.6944 20.5005 12C20.5005 7.30558 16.6949 3.5 12.0005 3.5C7.30607 3.5 3.50049 7.30558 3.50049 12Z" stroke="#901414" stroke-width="0.971429" stroke-linecap="round" stroke-linejoin="round"/>
<path d="M11.7594 8.24009L12.0005 13.363L12.2411 8.24219C12.2426 8.20946 12.2374 8.17676 12.2258 8.1461C12.2142 8.11545 12.1965 8.08747 12.1737 8.06389C12.151 8.04031 12.1237 8.02162 12.0934 8.00896C12.0632 7.99629 12.0307 7.98993 11.9979 7.99025C11.9658 7.99056 11.9339 7.99732 11.9044 8.01013C11.8749 8.02294 11.8482 8.04154 11.826 8.06483C11.8037 8.08812 11.7864 8.11563 11.775 8.14573C11.7635 8.17583 11.7583 8.20792 11.7594 8.24009Z" fill="#901414" stroke="#901414" stroke-width="0.485714" stroke-linecap="round" stroke-linejoin="round"/>
<path fill-rule="evenodd" clip-rule="evenodd" d="M11.9967 7.85744C12.0475 7.85694 12.0979 7.86682 12.1448 7.88646C12.1916 7.9061 12.234 7.93509 12.2693 7.97167C12.3046 8.00824 12.3321 8.05163 12.35 8.09918C12.368 8.14673 12.3761 8.19744 12.3738 8.24821L12.1331 13.3692C12.1298 13.4401 12.0714 13.4958 12.0005 13.4958C11.9295 13.4958 11.8711 13.4401 11.8678 13.3692L11.6268 8.24633L11.7594 8.24009L11.6267 8.24496C11.6249 8.19505 11.6331 8.14529 11.6508 8.0986C11.6685 8.05191 11.6954 8.00925 11.7299 7.97312C11.7644 7.937 11.8057 7.90815 11.8516 7.88829C11.8974 7.86842 11.9467 7.85793 11.9967 7.85744ZM11.9992 8.12305C11.9848 8.12319 11.9705 8.12623 11.9572 8.13198C11.944 8.13773 11.932 8.14608 11.922 8.15654C11.912 8.16699 11.9043 8.17934 11.8991 8.19286C11.8941 8.2062 11.8917 8.22042 11.8921 8.23467L11.8922 8.23523L12.0004 10.5352L12.1084 8.23617C12.1091 8.2215 12.1067 8.20677 12.1015 8.19303C12.0963 8.17926 12.0884 8.1667 12.0782 8.15612C12.0679 8.14553 12.0557 8.13714 12.0421 8.13145C12.0285 8.12577 12.014 8.12291 11.9992 8.12305Z" fill="#901414"/>
<path d="M11.9967 7.85744C12.0475 7.85694 12.0979 7.86682 12.1448 7.88646C12.1916 7.9061 12.234 7.93509 12.2693 7.97167C12.3046 8.00824 12.3321 8.05163 12.35 8.09918C12.368 8.14673 12.3761 8.19744 12.3738 8.24821L12.1331 13.3692C12.1298 13.4401 12.0714 13.4958 12.0005 13.4958C11.9295 13.4958 11.8711 13.4401 11.8678 13.3692L11.6268 8.24633L11.7594 8.24009L11.6267 8.24496C11.6249 8.19505 11.6331 8.14529 11.6508 8.0986C11.6685 8.05191 11.6954 8.00925 11.7299 7.97312C11.7644 7.937 11.8057 7.90815 11.8516 7.88829C11.8974 7.86842 11.9467 7.85793 11.9967 7.85744ZM11.9967 7.85744L11.998 7.99043M11.9572 8.13198C11.9705 8.12623 11.9848 8.12319 11.9992 8.12305C12.014 8.12291 12.0285 8.12577 12.0421 8.13145C12.0557 8.13714 12.0679 8.14553 12.0782 8.15612C12.0884 8.1667 12.0963 8.17926 12.1015 8.19303C12.1067 8.20677 12.1091 8.2215 12.1084 8.23617L12.0004 10.5352L11.8922 8.23523L11.8921 8.23467C11.8917 8.22042 11.8941 8.2062 11.8991 8.19286C11.9043 8.17934 11.912 8.16699 11.922 8.15654C11.932 8.14608 11.944 8.13773 11.9572 8.13198Z" stroke="#901414" stroke-width="0.485714" stroke-linecap="round" stroke-linejoin="round"/>
<path d="M12.0008 15.482C11.9272 15.482 11.8553 15.4602 11.7942 15.4194C11.733 15.3785 11.6854 15.3204 11.6572 15.2525C11.6291 15.1845 11.6217 15.1097 11.6361 15.0376C11.6504 14.9655 11.6858 14.8992 11.7378 14.8472C11.7898 14.7952 11.8561 14.7598 11.9282 14.7454C12.0004 14.7311 12.0751 14.7384 12.1431 14.7666C12.211 14.7947 12.2691 14.8424 12.31 14.9036C12.3508 14.9647 12.3727 15.0366 12.3727 15.1102C12.3727 15.2088 12.3335 15.3034 12.2637 15.3731C12.194 15.4429 12.0994 15.482 12.0008 15.482Z" fill="#901414" stroke="#901414" stroke-width="0.485714"/>
</svg>
