<svg width="24" height="24" viewBox="0 0 24 24" fill="none" xmlns="http://www.w3.org/2000/svg">
<path d="M5.72888 18.25H18.2696C18.4733 18.25 18.6735 18.1971 18.8506 18.0965C19.0278 17.996 19.1758 17.8512 19.2802 17.6763C19.3847 17.5014 19.4419 17.3024 19.4465 17.0988C19.451 16.8951 19.4026 16.6938 19.3061 16.5144L13.036 4.86924C12.5912 4.04359 11.4073 4.04359 10.9625 4.86924L4.69246 16.5144C4.5959 16.6938 4.54752 16.8951 4.55205 17.0988C4.55658 17.3024 4.61386 17.5014 4.71829 17.6763C4.82272 17.8512 4.97074 17.996 5.14787 18.0965C5.325 18.1971 5.52519 18.25 5.72888 18.25V18.25Z" stroke="#5D3E0F" stroke-linecap="round" stroke-linejoin="round"/>
<path d="M11.7594 8.75767L12.0005 13.8806L12.2411 8.75977C12.2426 8.72703 12.2374 8.69434 12.2258 8.66368C12.2142 8.63302 12.1965 8.60505 12.1737 8.58147C12.151 8.55789 12.1237 8.5392 12.0934 8.52653C12.0632 8.51387 12.0307 8.5075 11.9979 8.50782C11.9658 8.50814 11.9339 8.5149 11.9044 8.52771C11.8749 8.54052 11.8482 8.55912 11.826 8.58241C11.8037 8.6057 11.7864 8.63321 11.775 8.66331C11.7635 8.69341 11.7583 8.72549 11.7594 8.75767Z" fill="#5D3E0F" stroke="#5D3E0F" stroke-width="0.485714" stroke-linecap="round" stroke-linejoin="round"/>
<path fill-rule="evenodd" clip-rule="evenodd" d="M11.9967 8.37502C12.0475 8.37452 12.0979 8.3844 12.1448 8.40404C12.1916 8.42368 12.234 8.45267 12.2693 8.48925C12.3046 8.52582 12.3321 8.56921 12.35 8.61676C12.368 8.6643 12.3761 8.71502 12.3738 8.76579L12.1331 13.8868C12.1298 13.9577 12.0714 14.0134 12.0005 14.0134C11.9295 14.0134 11.8711 13.9577 11.8678 13.8868L11.6268 8.76391L11.7594 8.75767L11.6267 8.76254C11.6249 8.71263 11.6331 8.66286 11.6508 8.61618C11.6685 8.56949 11.6954 8.52682 11.7299 8.4907C11.7644 8.45458 11.8057 8.42573 11.8516 8.40586C11.8974 8.38599 11.9467 8.37551 11.9967 8.37502ZM11.9992 8.64063C11.9848 8.64077 11.9705 8.64381 11.9572 8.64956C11.944 8.65531 11.932 8.66366 11.922 8.67412C11.912 8.68457 11.9043 8.69692 11.8991 8.71044C11.8941 8.72378 11.8917 8.73799 11.8921 8.75225L11.8922 8.7528L12.0004 11.0527L12.1084 8.75375C12.1091 8.73908 12.1067 8.72434 12.1015 8.71061C12.0963 8.69684 12.0884 8.68428 12.0782 8.6737C12.0679 8.66311 12.0557 8.65471 12.0421 8.64903C12.0285 8.64335 12.014 8.64049 11.9992 8.64063Z" fill="#5D3E0F"/>
<path d="M11.9967 8.37502C12.0475 8.37452 12.0979 8.3844 12.1448 8.40404C12.1916 8.42368 12.234 8.45267 12.2693 8.48925C12.3046 8.52582 12.3321 8.56921 12.35 8.61676C12.368 8.6643 12.3761 8.71502 12.3738 8.76579L12.1331 13.8868C12.1298 13.9577 12.0714 14.0134 12.0005 14.0134C11.9295 14.0134 11.8711 13.9577 11.8678 13.8868L11.6268 8.76391L11.7594 8.75767L11.6267 8.76254C11.6249 8.71263 11.6331 8.66286 11.6508 8.61618C11.6685 8.56949 11.6954 8.52682 11.7299 8.4907C11.7644 8.45458 11.8057 8.42573 11.8516 8.40586C11.8974 8.38599 11.9467 8.37551 11.9967 8.37502ZM11.9967 8.37502L11.998 8.50801M11.9572 8.64956C11.9705 8.64381 11.9848 8.64077 11.9992 8.64063C12.014 8.64049 12.0285 8.64335 12.0421 8.64903C12.0557 8.65471 12.0679 8.66311 12.0782 8.6737C12.0884 8.68428 12.0963 8.69684 12.1015 8.71061C12.1067 8.72434 12.1091 8.73908 12.1084 8.75375L12.0004 11.0527L11.8922 8.7528L11.8921 8.75225C11.8917 8.73799 11.8941 8.72378 11.8991 8.71044C11.9043 8.69692 11.912 8.68457 11.922 8.67412C11.932 8.66366 11.944 8.65531 11.9572 8.64956Z" stroke="#5D3E0F" stroke-width="0.485714" stroke-linecap="round" stroke-linejoin="round"/>
<path d="M12.0008 15.9996C11.9272 15.9996 11.8553 15.9778 11.7942 15.9369C11.733 15.8961 11.6854 15.838 11.6572 15.77C11.6291 15.7021 11.6217 15.6273 11.6361 15.5552C11.6504 15.483 11.6858 15.4168 11.7378 15.3648C11.7898 15.3128 11.8561 15.2774 11.9282 15.263C12.0004 15.2487 12.0751 15.256 12.1431 15.2842C12.211 15.3123 12.2691 15.36 12.31 15.4211C12.3508 15.4823 12.3727 15.5542 12.3727 15.6277C12.3727 15.7264 12.3335 15.821 12.2637 15.8907C12.194 15.9604 12.0994 15.9996 12.0008 15.9996Z" fill="#5D3E0F" stroke="#5D3E0F" stroke-width="0.485714"/>
</svg>
