<svg xmlns="http://www.w3.org/2000/svg" fill="none" viewBox="0 0 172 30">
    <path fill="#FA7545" fill-rule="evenodd"
        d="M4.78 2.3C7.48.95 10.8 0 14.38 0c3.4 0 6.85.9 9.56 2.27A.97.97 0 0 1 23.06 4a19.84 19.84 0 0 0-8.67-2.06c-3.25 0-6.28.86-8.73 2.1a.97.97 0 0 1-.88-1.73Zm1.69 2.97a19.42 19.42 0 0 1 15.74 0c2.6 1.22 4.8 2.99 6.29 5.07a.97.97 0 0 1-1.58 1.13 14.2 14.2 0 0 0-5.53-4.44 17.49 17.49 0 0 0-14.1 0 14.5 14.5 0 0 0-5.5 4.48.97.97 0 0 1-1.58-1.13 16.44 16.44 0 0 1 6.26-5.1Zm7.78 1.84c5-.05 9.37 2.53 11.59 6.23a10.8 10.8 0 0 1 1.57 5.57c0 2.83-2.6 4.6-4.92 4.6a5.6 5.6 0 0 1-3.38-1.06 4.43 4.43 0 0 1-1.72-3.51 2.38 2.38 0 0 0-1.05-1.98 3.76 3.76 0 0 0-2.08-.64c-1.8 0-3.05 1.32-3.05 2.59 0 1.05.33 2.53.77 3.5.44 1 1.23 2.15 2 2.85H14l.01.02a10.63 10.63 0 0 0 5.17 2.8.97.97 0 0 1-.44 1.9c-2.72-.63-4.6-1.9-6.06-3.29-1-.9-1.93-2.3-2.47-3.48a11.73 11.73 0 0 1-.93-4.3c0-2.53 2.32-4.53 5-4.53 1 0 2.2.3 3.2 1a4.32 4.32 0 0 1 1.86 3.5c.03.98.42 1.62.96 2.03.57.43 1.36.66 2.2.66 1.55 0 2.97-1.17 2.97-2.66 0-1.35-.32-2.96-1.29-4.57a11.39 11.39 0 0 0-9.9-5.28c-3.76.03-7.76 1.8-9.8 5.24A8.96 8.96 0 0 0 3.2 19.2c.07 2.4.43 3.41 1.06 5.1a.97.97 0 1 1-1.82.68c-.68-1.8-1.1-3.03-1.18-5.73a10.9 10.9 0 0 1 1.53-5.93c2.46-4.15 7.17-6.16 11.45-6.2ZM5.3 18.74c0-4.48 4.32-8 8.97-8 4.63 0 9.13 3.2 9.13 8.28a.97.97 0 0 1-1.95 0c0-3.72-3.3-6.33-7.18-6.33-3.84 0-7.03 2.9-7.03 6.06v.01c-.03 1.78.25 3.46 1.17 5.27.94 1.84 2.07 3.1 3.1 4a.97.97 0 1 1-1.28 1.46 15.17 15.17 0 0 1-3.55-4.58 12.6 12.6 0 0 1-1.38-6.17Zm8.97-.8c.54 0 .97.43.97.97 0 1.05.29 2.04.84 2.99a5.86 5.86 0 0 0 2.15 2.14c1.37.75 2.32 1 3.75.97h.01c.57 0 1.23-.06 1.75-.15a.97.97 0 0 1 .34 1.92c-.66.11-1.43.16-2.06.17a8.5 8.5 0 0 1-4.74-1.21l-.01-.01-.02-.01a7.8 7.8 0 0 1-2.85-2.85 7.84 7.84 0 0 1-1.1-3.96c0-.54.43-.98.97-.98Z"
        clip-rule="evenodd" />
    <path fill="#F2F2F7"
        d="M38.44 14.13h5.88v1.99h-5.88v6.64h-2.62V7.17h9.58l-.27 1.99h-6.69v4.97ZM52.38 4.98c.48 0 .87.16 1.17.47.32.3.48.68.48 1.13 0 .46-.16.83-.48 1.13-.3.3-.7.46-1.17.46-.5 0-.9-.15-1.2-.46-.3-.3-.45-.67-.45-1.13 0-.46.15-.85.45-1.15.31-.3.71-.45 1.2-.45Zm1.74 15.93h3.25v1.85h-9.33v-1.85h3.55v-8.23h-3.44v-1.85h5.97v10.08ZM60.25 10.83h2.2l.17 1.56a5.08 5.08 0 0 1 3.87-1.87c1.1 0 1.93.3 2.48.92.56.62.84 1.5.84 2.62v8.7h-2.53v-7.43c0-.74-.05-1.3-.14-1.7-.07-.4-.23-.7-.47-.88-.24-.2-.6-.3-1.09-.3-.54 0-1.06.17-1.55.5-.49.34-.9.75-1.25 1.25v8.56h-2.53V10.83ZM83.6 11.42c-.43.15-.93.26-1.49.32-.54.04-1.2.06-1.96.06.72.33 1.26.75 1.62 1.25.37.5.55 1.1.55 1.8a3.86 3.86 0 0 1-2.21 3.5c-.71.35-1.55.52-2.51.52-.68 0-1.22-.06-1.63-.2-.17.12-.3.27-.39.45-.09.17-.13.35-.13.55 0 .6.49.9 1.47.9H79c.84 0 1.6.14 2.26.43.66.28 1.17.68 1.53 1.2.38.5.57 1.06.57 1.7 0 1.18-.52 2.1-1.54 2.75-1.02.66-2.5 1-4.43 1-1.34 0-2.4-.15-3.18-.44A3.01 3.01 0 0 1 72.56 26a3.96 3.96 0 0 1-.48-2.05h2.26c0 .45.08.8.25 1.06.18.27.49.46.93.59.43.13 1.07.2 1.9.2 1.2 0 2.07-.15 2.6-.45.52-.29.78-.72.78-1.3 0-.47-.2-.85-.63-1.12-.4-.26-.96-.38-1.67-.38h-2.06a3.9 3.9 0 0 1-2.44-.66 2.03 2.03 0 0 1-.81-1.65c0-.4.11-.8.34-1.17a3 3 0 0 1 .97-.98 4 4 0 0 1-1.56-1.35 3.89 3.89 0 0 1-.47-1.99c0-.83.2-1.56.63-2.2.42-.64 1-1.14 1.76-1.48a5.88 5.88 0 0 1 2.58-.54c1.3.01 2.32-.08 3.07-.28.77-.2 1.58-.5 2.44-.92l.66 2.1Zm-6.14.86c-.8 0-1.4.22-1.8.68-.41.43-.62 1.03-.62 1.78 0 .77.2 1.38.61 1.83.42.44 1.03.66 1.83.66.76 0 1.33-.22 1.72-.66.4-.44.59-1.06.59-1.87 0-1.62-.78-2.42-2.33-2.42ZM87.64 17.61c.08 1.16.4 2.03 1 2.62.6.57 1.35.86 2.25.86.56 0 1.09-.08 1.59-.25a7.25 7.25 0 0 0 1.55-.79l1.09 1.54c-.56.46-1.21.82-1.97 1.08-.75.26-1.54.38-2.37.38a5.4 5.4 0 0 1-4.25-1.69 6.65 6.65 0 0 1-1.51-4.56c0-1.2.22-2.26.65-3.21a5.19 5.19 0 0 1 1.9-2.26c.83-.54 1.8-.81 2.9-.81 1.58 0 2.83.53 3.75 1.6.93 1.05 1.4 2.5 1.4 4.36 0 .45-.03.83-.07 1.13h-7.91Zm2.85-5.22c-.82 0-1.48.3-2 .88-.5.59-.8 1.46-.87 2.62h5.53c-.03-1.13-.27-2-.72-2.6-.45-.6-1.1-.9-1.94-.9ZM106.63 10.54c.62 0 1.22.1 1.81.3l-.43 4.4h-1.8V12.8c-.83.01-1.56.34-2.18 1a6.99 6.99 0 0 0-1.44 2.73v4.42h2.4v1.81h-6.7v-1.8h1.77v-8.32H98.3v-1.8h3.68l.45 2.75a5.76 5.76 0 0 1 1.7-2.28 4.04 4.04 0 0 1 2.5-.77ZM116.66 10.52c2.89 0 4.33 2.08 4.33 6.25 0 1.89-.4 3.4-1.2 4.57a3.91 3.91 0 0 1-3.4 1.71 3.84 3.84 0 0 1-3.03-1.3v5.6l-2.53.3V10.82h2.19l.16 1.54a4.8 4.8 0 0 1 1.55-1.38c.6-.32 1.25-.47 1.92-.47Zm-.7 1.94c-.53 0-1.01.16-1.45.47-.44.32-.82.73-1.15 1.25v5.58a2.7 2.7 0 0 0 2.35 1.33c.87 0 1.53-.35 1.96-1.04.44-.7.66-1.78.66-3.25 0-1.52-.2-2.62-.59-3.3-.4-.7-.99-1.04-1.78-1.04ZM131.92 10.54c.62 0 1.22.1 1.8.3l-.42 4.4h-1.81V12.8c-.83.01-1.55.34-2.17 1a6.99 6.99 0 0 0-1.44 2.73v4.42h2.39v1.81h-6.69v-1.8h1.77v-8.32h-1.77v-1.8h3.69l.45 2.75a5.76 5.76 0 0 1 1.7-2.28 4.04 4.04 0 0 1 2.5-.77ZM140.88 4.98c.48 0 .87.16 1.18.47.31.3.47.68.47 1.13a1.59 1.59 0 0 1-1.65 1.58c-.5 0-.9-.14-1.2-.45-.3-.3-.45-.67-.45-1.13 0-.46.15-.85.45-1.15.32-.3.72-.45 1.2-.45Zm1.74 15.93h3.25v1.85h-9.33v-1.85h3.55v-8.23h-3.43v-1.85h5.96v10.08ZM148.76 10.83h2.19l.18 1.56a5.08 5.08 0 0 1 3.86-1.87c1.1 0 1.93.3 2.49.92.56.62.83 1.5.83 2.62v8.7h-2.53v-7.43c0-.74-.04-1.3-.13-1.7-.08-.4-.24-.7-.48-.88-.24-.2-.6-.3-1.08-.3-.54 0-1.06.17-1.56.5-.48.34-.9.75-1.24 1.25v8.56h-2.53V10.83ZM171.36 22.13c-.45.28-.98.51-1.58.68-.6.16-1.23.24-1.9.24-1.35 0-2.4-.34-3.14-1.03a3.79 3.79 0 0 1-1.1-2.87v-6.47h-2.65v-1.85h2.65V8.17l2.53-.3v2.96h4.04l-.3 1.85h-3.74v6.44c0 .65.16 1.13.5 1.45.33.3.85.45 1.58.45.8 0 1.53-.19 2.21-.56l.9 1.67Z" />
</svg>