<svg fill="none" xmlns="http://www.w3.org/2000/svg" viewBox="0 0 172 30">
  <path fill-rule="evenodd" clip-rule="evenodd" d="M4.7 2.3a21.5 21.5 0 0 1 19.2 0A1 1 0 0 1 23 4 19.5 19.5 0 0 0 5.6 4a1 1 0 0 1-.9-1.7Zm1.7 3a19.8 19.8 0 0 1 15.8 0c2.6 1.2 4.8 3 6.3 5a1 1 0 0 1-1.6 1.2A14.2 14.2 0 0 0 21.4 7 17.5 17.5 0 0 0 7.3 7C5 8 3 9.8 1.8 11.5a1 1 0 0 1-1.6-1.1c1.4-2 3.7-4 6.2-5.1ZM14.2 7c5 0 9.4 2.5 11.6 6.2 1.2 2 1.6 4 1.6 5.6 0 2.8-2.6 4.6-5 4.6-1.1 0-2.3-.3-3.3-1-1-.8-1.7-2-1.7-3.6 0-.9-.5-1.5-1-2-.7-.4-1.5-.6-2.2-.6-1.8 0-3 1.3-3 2.6 0 1 .3 2.5.7 3.5.5 1 1.3 2.2 2 2.9 1.3 1.2 3 2.3 5.2 2.8a1 1 0 0 1-.4 1.9 12.6 12.6 0 0 1-8.5-6.8c-.6-1.2-1-3-1-4.3 0-2.5 2.4-4.5 5-4.5 1 0 2.2.3 3.2 1s1.8 1.9 1.9 3.5c0 1 .4 1.6 1 2 .5.4 1.3.7 2.2.7 1.5 0 3-1.2 3-2.7 0-1.3-.4-3-1.4-4.6a11.4 11.4 0 0 0-9.9-5.2c-3.7 0-7.7 1.8-9.8 5.2a9 9 0 0 0-1.2 4.9c0 2.4.4 3.4 1 5a1 1 0 1 1-1.8.8c-.7-1.8-1-3-1.2-5.8a10.9 10.9 0 0 1 1.6-5.9c2.4-4.1 7.1-6.1 11.4-6.2Zm-9 11.6c0-4.4 4.4-8 9-8 4.7 0 9.2 3.2 9.2 8.3a1 1 0 1 1-2 0c0-3.7-3.3-6.3-7.2-6.3-3.8 0-7 2.9-7 6 0 1.8.2 3.5 1.2 5.3a13.2 13.2 0 0 0 3 4 1 1 0 1 1-1.2 1.5 15.2 15.2 0 0 1-3.6-4.6c-1-2.1-1.4-4.1-1.3-6.2Zm9-.8c.6 0 1 .5 1 1a5.9 5.9 0 0 0 3 5.1c1.4.8 2.3 1 3.7 1a11.8 11.8 0 0 0 1.8-.1 1 1 0 1 1 .3 1.9l-2 .2c-1.8 0-3.1-.4-4.8-1.3a7.8 7.8 0 0 1-4-6.8c0-.5.5-1 1-1Z" fill="#F04405"/>
  <path d="M38.4 14.1h5.9v2h-5.9v6.7h-2.6V7.2h9.6l-.3 2h-6.7v5Zm14-9.1c.4 0 .8.1 1.1.5.3.3.5.6.5 1 0 .5-.2 1-.5 1.2-.3.3-.7.5-1.2.5s-.9-.2-1.2-.5c-.3-.3-.4-.7-.4-1.1 0-.5.1-.9.4-1.2.4-.3.8-.4 1.2-.4ZM54 21h3.2v1.8H48v-1.9h3.6v-8.2H48v-1.9h6V21Zm6.1-10.2h2.2l.2 1.6a5 5 0 0 1 1.7-1.4 4.8 4.8 0 0 1 2.2-.5c1 0 1.9.3 2.4 1 .6.6.9 1.4.9 2.6v8.7h-2.6v-7.5a8 8 0 0 0 0-1.7c-.2-.4-.3-.7-.6-.8-.2-.2-.6-.3-1-.3-.6 0-1.1.1-1.6.5a4.9 4.9 0 0 0-1.2 1.2v8.6h-2.6v-12Zm23.4.6-1.5.3-2 .1a4 4 0 0 1 1.6 1.2c.4.5.6 1.1.6 1.9a3.9 3.9 0 0 1-2.2 3.5c-.7.3-1.6.5-2.5.5-.7 0-1.3 0-1.7-.2a1.2 1.2 0 0 0-.5 1c0 .6.5.9 1.5.9h2c1 0 1.7.1 2.3.4.7.3 1.2.7 1.6 1.2.3.5.5 1 .5 1.7a3 3 0 0 1-1.5 2.7c-1 .7-2.5 1-4.4 1-1.4 0-2.4-.1-3.2-.4a3 3 0 0 1-1.7-1.2 4 4 0 0 1-.4-2h2.2c0 .4 0 .7.3 1 .1.3.4.5.9.6l1.9.2c1.2 0 2-.2 2.6-.5.5-.2.8-.7.8-1.3 0-.4-.2-.8-.7-1-.4-.3-1-.5-1.6-.5h-2c-1.2 0-2-.2-2.5-.6a2 2 0 0 1-.8-1.7c0-.4 0-.8.3-1.1a3 3 0 0 1 1-1 4 4 0 0 1-1.6-1.4c-.3-.5-.5-1.2-.5-2s.2-1.5.7-2.2a4 4 0 0 1 1.7-1.4c.8-.4 1.6-.6 2.6-.6 1.3 0 2.3 0 3-.3a12.7 12.7 0 0 0 2.5-.9l.7 2.1Zm-6.2.9c-.8 0-1.4.2-1.8.7-.4.4-.6 1-.6 1.7 0 .8.2 1.4.6 1.9.4.4 1 .6 1.8.6s1.4-.2 1.8-.6c.4-.5.6-1 .6-2 0-1.5-.8-2.3-2.4-2.3Zm10.2 5.3c0 1.2.4 2 1 2.6.6.6 1.4.9 2.3.9.5 0 1 0 1.5-.3A7.2 7.2 0 0 0 94 20l1 1.6a6 6 0 0 1-1.9 1 7.3 7.3 0 0 1-2.4.5c-1.8 0-3.2-.6-4.2-1.7a6.7 6.7 0 0 1-1.5-4.6c0-1.2.2-2.3.6-3.2.5-1 1.1-1.7 2-2.3.8-.5 1.7-.8 2.8-.8 1.6 0 2.9.6 3.8 1.6 1 1 1.4 2.5 1.4 4.4v1.1h-8Zm2.9-5.2c-.9 0-1.5.3-2 .9-.5.6-.8 1.4-1 2.6h5.6c0-1.1-.2-2-.7-2.6-.5-.6-1.1-1-2-1Zm16.1-1.9 1.8.3-.4 4.4h-1.8v-2.4a3 3 0 0 0-2.2 1 7 7 0 0 0-1.4 2.7V21h2.4v1.8h-6.7V21h1.7v-8.4h-1.7v-1.8h3.6l.5 2.8c.5-1 1-1.8 1.7-2.3a4 4 0 0 1 2.5-.8Zm10 0c3 0 4.4 2.1 4.4 6.3 0 1.9-.4 3.4-1.2 4.5a4 4 0 0 1-3.4 1.8c-1.3 0-2.3-.5-3-1.4v5.6l-2.6.3V10.8h2.2l.1 1.6c.5-.6 1-1 1.6-1.4a4 4 0 0 1 2-.5Zm-.7 2a2.4 2.4 0 0 0-1.4.4c-.5.3-.8.8-1.2 1.3v5.6c.6.8 1.4 1.3 2.4 1.3.8 0 1.5-.4 2-1 .4-.7.6-1.8.6-3.3a7 7 0 0 0-.6-3.3 2 2 0 0 0-1.8-1Zm16-2 1.8.3-.4 4.4h-1.8v-2.4a3 3 0 0 0-2.2 1 7 7 0 0 0-1.5 2.7V21h2.4v1.8h-6.6V21h1.7v-8.4h-1.7v-1.8h3.6l.5 2.8c.5-1 1-1.8 1.7-2.3a4 4 0 0 1 2.5-.8Zm9-5.5c.4 0 .8.1 1.1.5.3.3.5.6.5 1 0 .5-.2 1-.5 1.2-.3.3-.7.5-1.2.5-.4 0-.8-.2-1.1-.5a1.5 1.5 0 0 1-.5-1.1c0-.5.1-.9.5-1.2.3-.3.7-.4 1.1-.4Zm1.7 16h3.2v1.8h-9.3v-1.9h3.6v-8.2h-3.5v-1.9h6V21Zm6.1-10.2h2.2l.2 1.6a5 5 0 0 1 1.7-1.4 4.8 4.8 0 0 1 2.2-.5c1 0 1.9.3 2.4 1 .6.6.9 1.4.9 2.6v8.7h-2.5v-7.5a8 8 0 0 0-.2-1.7c0-.4-.2-.7-.5-.8-.2-.2-.6-.3-1-.3-.6 0-1.1.1-1.6.5a4.9 4.9 0 0 0-1.2 1.2v8.6h-2.6v-12Zm22.6 11.3a5.8 5.8 0 0 1-1.6.7 7.1 7.1 0 0 1-1.8.3c-1.4 0-2.4-.4-3.2-1a3.8 3.8 0 0 1-1-3v-6.4H161v-1.9h2.6V8.2l2.5-.3v3h4l-.2 1.8H166V19c0 .7.2 1.2.5 1.5.4.3.9.4 1.6.4.8 0 1.6-.2 2.2-.5l1 1.6Z" fill="#141415"/>
</svg>