<svg xmlns="http://www.w3.org/2000/svg" fill="none" viewBox="0 0 13 12">
    <path fill="#89898A"
        d="M6.11958 1.07512c.11974-.36853.6411-.36853.76084 0l1.10137 3.38966c.05355.16481.20713.2764.38043.2764h3.56408c.3875 0 .5486.49584.2351.7236L9.27801 7.55971c-.14019.10186-.19886.28241-.14531.44722l1.1014 3.38967c.1197.3685-.30208.675-.61556.4472L6.73511 9.74888c-.14019-.10186-.33003-.10186-.47022 0L3.38146 11.8438c-.31348.2278-.73528-.0787-.61553-.4472L3.8673 8.00693c.05355-.16481-.00512-.34536-.14531-.44722L.83856 5.46478c-.31348-.22776-.15237-.7236.23512-.7236h3.5641c.1733 0 .32688-.11159.38043-.2764l1.10137-3.38966Z" />
</svg>