<svg width="266" height="165" viewBox="0 0 266 165" fill="none" xmlns="http://www.w3.org/2000/svg">
<rect y="0.660156" width="266" height="164.001" rx="1.91908" fill="#FFF8F6"/>
<path d="M147.929 69.6853C147.929 94.8119 127.56 115.181 102.433 115.181C77.3067 115.181 56.9375 94.8119 56.9375 69.6853C56.9375 44.5586 77.3067 24.1895 102.433 24.1895C127.56 24.1895 147.929 44.5586 147.929 69.6853Z" fill="url(#paint0_linear_556_69313)" fill-opacity="0.02"/>
<path d="M147.929 69.6853C147.929 94.8119 127.56 115.181 102.433 115.181C77.3067 115.181 56.9375 94.8119 56.9375 69.6853C56.9375 44.5586 77.3067 24.1895 102.433 24.1895C127.56 24.1895 147.929 44.5586 147.929 69.6853Z" fill="white" fill-opacity="0.6"/>
<path d="M147.929 69.6853C147.929 94.8119 127.56 115.181 102.433 115.181C77.3067 115.181 56.9375 94.8119 56.9375 69.6853C56.9375 44.5586 77.3067 24.1895 102.433 24.1895C127.56 24.1895 147.929 44.5586 147.929 69.6853Z" stroke="url(#paint1_linear_556_69313)"/>
<path d="M134.742 71.7682C134.742 68.8016 136.212 66.0278 138.667 64.3622L167.602 44.7298C170.197 42.9689 173.604 42.9689 176.199 44.7298L205.134 64.3622C207.589 66.0278 209.059 68.8016 209.059 71.7682V78.4932C209.059 102.087 197.268 124.12 177.637 137.207C174.163 139.523 169.638 139.523 166.165 137.207C146.534 124.12 134.742 102.087 134.742 78.4932V71.7682Z" fill="white"/>
<path d="M134.742 71.7682C134.742 68.8016 136.212 66.0278 138.667 64.3622L167.602 44.7298C170.197 42.9689 173.604 42.9689 176.199 44.7298L205.134 64.3622C207.589 66.0278 209.059 68.8016 209.059 71.7682V78.4932C209.059 102.087 197.268 124.12 177.637 137.207C174.163 139.523 169.638 139.523 166.165 137.207C146.534 124.12 134.742 102.087 134.742 78.4932V71.7682Z" fill="#FFFCFB"/>
<path d="M134.742 71.7682C134.742 68.8016 136.212 66.0278 138.667 64.3622L167.602 44.7298C170.197 42.9689 173.604 42.9689 176.199 44.7298L205.134 64.3622C207.589 66.0278 209.059 68.8016 209.059 71.7682V78.4932C209.059 102.087 197.268 124.12 177.637 137.207C174.163 139.523 169.638 139.523 166.165 137.207C146.534 124.12 134.742 102.087 134.742 78.4932V71.7682Z" stroke="url(#paint2_linear_556_69313)"/>
<defs>
<linearGradient id="paint0_linear_556_69313" x1="56.4375" y1="23.6895" x2="155.035" y2="31.4195" gradientUnits="userSpaceOnUse">
<stop stop-color="#F5614B"/>
<stop offset="0.0001" stop-color="#F5614B"/>
<stop offset="1" stop-color="#FA7545"/>
</linearGradient>
<linearGradient id="paint1_linear_556_69313" x1="56.4375" y1="23.6895" x2="155.035" y2="31.4195" gradientUnits="userSpaceOnUse">
<stop stop-color="#F5614B"/>
<stop offset="0.0001" stop-color="#F5614B"/>
<stop offset="1" stop-color="#FA7545"/>
</linearGradient>
<linearGradient id="paint2_linear_556_69313" x1="134.242" y1="41.209" x2="215.184" y2="45.9684" gradientUnits="userSpaceOnUse">
<stop stop-color="#F5614B"/>
<stop offset="0.0001" stop-color="#F5614B"/>
<stop offset="1" stop-color="#FA7545"/>
</linearGradient>
</defs>
</svg>
