<svg fill="none" xmlns="http://www.w3.org/2000/svg" viewBox="0 0 26 21">
    <path
        d="M25.5 2.884a10.08 10.08 0 0 1-2.9.796A5.063 5.063 0 0 0 24.82.886a10.086 10.086 0 0 1-3.207 1.225A5.041 5.041 0 0 0 17.928.518a5.048 5.048 0 0 0-5.047 5.049c0 .395.044.78.13 1.15A14.335 14.335 0 0 1 2.605 1.443a5.024 5.024 0 0 0-.684 2.538c0 1.751.892 3.296 2.246 4.202A5.026 5.026 0 0 1 1.88 7.55v.064a5.05 5.05 0 0 0 4.05 4.95 5.13 5.13 0 0 1-2.28.088 5.055 5.055 0 0 0 4.715 3.506 10.128 10.128 0 0 1-7.475 2.09 14.287 14.287 0 0 0 7.739 2.27c9.286 0 14.364-7.694 14.364-14.365 0-.219-.005-.436-.015-.653A10.284 10.284 0 0 0 25.5 2.884Z"
        fill="#434344" />
</svg>